<svg width="135" height="135" viewBox="0 0 135 135" fill="none" xmlns="http://www.w3.org/2000/svg">
<g filter="url(#filter0_ddd_13626_2630)">
<rect x="6" y="5" width="123" height="122.952" rx="8" fill="white" shape-rendering="crispEdges"/>
<g clip-path="url(#clip0_13626_2630)">
<path d="M82.3162 59.7342C83.7591 59.7256 85.2063 59.7169 86.6491 59.7039C86.6318 59.7949 86.6014 59.8816 86.6014 59.9682C86.6014 61.2161 86.5971 62.4639 86.6014 63.7118C86.6014 63.8115 86.6404 63.9068 86.6578 63.9934C88.1223 63.9934 89.5478 63.9934 90.9776 63.9934C90.9516 64.4787 90.917 64.9597 90.9083 65.4406C90.8996 66.3808 90.9083 67.3254 90.9083 68.283H95.2152C95.2152 67.2258 95.2108 66.2075 95.2152 65.1893C95.2152 64.8123 95.2542 64.4354 95.2715 64.0584C96.6667 64.0584 98.0619 64.0584 99.4614 64.0584V59.7516H95.2152C95.2152 60.8391 95.2108 61.8877 95.2152 62.9406C95.2152 63.3175 95.2585 63.6945 95.2802 64.0714C95.0982 64.0584 94.9205 64.0281 94.7386 64.0281C93.482 64.0194 92.2212 64.0151 90.9646 64.0064C90.943 63.8418 90.9083 63.6815 90.9083 63.5168C90.904 62.4683 90.9083 61.4154 90.9083 60.3668C90.9083 60.1589 90.9083 59.9552 90.9083 59.7126H86.6448V55.4187H90.8953V46.8396H103.794V55.371H112.395V51.1118H108.144V46.8223H116.702V55.3884H112.434V59.7039H103.816V64.0194H99.535V68.3003H103.803V72.5768H108.105V64.0064H116.723V59.7386H121V68.309H116.741V72.5942H108.149C108.136 72.8021 108.123 72.9625 108.123 73.1228C108.123 74.2363 108.11 75.3499 108.127 76.4677C108.131 76.8274 108.027 76.9357 107.663 76.9314C105.189 76.914 102.715 76.9227 100.246 76.9227C100.02 76.9227 99.795 76.9227 99.5394 76.9227V81.2122H103.812V89.8173H108.123V91.7324C108.123 92.4213 108.11 93.1059 108.136 93.7949C108.136 93.9118 108.292 94.1198 108.378 94.1198C109.704 94.1415 111.03 94.1328 112.417 94.1328V89.865H121.009V98.405H116.771V102.712H108.162V107.019H112.425V111.291H116.728V107.062H121.013V119.905C120.866 119.913 120.718 119.931 120.571 119.931C118.023 119.931 115.471 119.926 112.924 119.939C112.555 119.939 112.417 119.857 112.43 119.458C112.456 118.358 112.438 117.262 112.438 116.161C112.438 115.996 112.425 115.836 112.417 115.654H103.829V119.905H99.535V115.641H95.2542V111.356H90.93V115.593H86.6318V107.053H82.3206V119.9H65.0931C65.0931 119.25 65.0931 118.613 65.0931 117.977C65.0931 117.335 65.0758 116.694 65.1018 116.053C65.1148 115.706 64.9978 115.615 64.6598 115.615C62.1251 115.628 59.5904 115.624 57.0557 115.619C56.8737 115.619 56.6917 115.602 56.5141 115.589L56.5227 115.598C56.5097 115.433 56.4794 115.269 56.4794 115.1C56.4794 112.595 56.4794 110.095 56.4794 107.591C56.4794 107.426 56.4794 107.261 56.4794 107.04H47.9177V102.738H56.4361V94.1458H47.8917V85.5538L47.883 85.5668C48.065 85.5494 48.2426 85.5148 48.4246 85.5148C50.9117 85.5148 53.4031 85.5148 55.8901 85.5148C56.0678 85.5148 56.2454 85.5148 56.4794 85.5148V76.94H60.7733V98.3617H65.0845V94.1372H69.374V85.5234H65.1321V81.2469H77.9877V85.5018H73.7198V94.0982H69.426V98.405H65.0975V102.708H56.5097V107.01H60.7863V111.287H65.0888V107.023H69.3913V102.725H77.992V94.1198C78.5163 94.1198 78.9843 94.1198 79.4522 94.1198C80.2321 94.1198 81.0121 94.0982 81.7876 94.1285C82.2079 94.1458 82.3249 94.0158 82.3249 93.5955C82.3119 88.4828 82.3162 83.3657 82.3162 78.2529C82.3162 77.8283 82.3162 77.4036 82.3162 76.927H65.1061V64.0238H60.7949V68.2656H56.4924V64.0238H52.2029V68.309H47.896L47.909 68.322C47.9003 67.4554 47.8873 66.5888 47.8873 65.7223C47.8873 63.7118 47.9003 61.7057 47.909 59.6952L47.896 59.7082C48.078 59.7082 48.26 59.6952 48.4463 59.6952C53.8104 59.6952 59.1788 59.6952 64.5428 59.6952C64.7162 59.6952 64.8895 59.6952 65.1105 59.6952V55.4014H69.4433L69.4303 55.3884V59.7126H73.6809V68.3003H69.4303V72.5638H86.6058V68.2916H82.3249C82.3249 68.0837 82.3249 67.919 82.3249 67.7544C82.3249 65.7223 82.3249 63.6945 82.3249 61.6624C82.3249 61.0081 82.3466 60.3538 82.3596 59.6952L82.3509 59.7082L82.3162 59.7342ZM86.6231 85.5581V98.3964H99.4657V85.5581H86.6231ZM99.4917 102.742C99.2837 102.742 99.1624 102.742 99.0411 102.742C95.3192 102.742 91.5972 102.742 87.871 102.742C87.4637 102.742 86.9047 102.63 86.6924 102.842C86.4801 103.054 86.5971 103.613 86.5928 104.02C86.5841 105.008 86.5928 105.996 86.5928 107.049H95.2325V111.339H99.5047V115.602H103.764V107.032H99.4874V102.738L99.4917 102.742ZM69.3957 111.3H77.9834C77.9834 110.03 77.9661 108.8 77.992 107.569C78.0007 107.14 77.8621 107.036 77.4548 107.04C74.8811 107.058 72.303 107.049 69.7293 107.049C69.6253 107.049 69.5256 107.066 69.3957 107.079V111.304V111.3ZM90.8606 76.914V72.6505H86.6318V76.914H90.8606ZM95.2325 76.8967H99.47V72.6462H95.2325V76.8967ZM99.5177 55.4404V59.6909H103.777V55.4404H99.5177ZM99.4787 51.1335H95.2412V55.3797H99.4787V51.1335ZM103.846 98.47V102.738C105.189 102.738 106.485 102.734 107.78 102.738C108.053 102.738 108.11 102.612 108.11 102.374C108.101 101.551 108.11 100.727 108.11 99.8999C108.11 99.4319 108.11 98.964 108.11 98.4657H103.851L103.846 98.47Z" fill="black"/>
<path d="M47.87 68.3306V72.6202H52.1335V76.8967H39.8672V72.6332H22.6657V59.7256H26.9163V55.4274H22.6397V51.1292H18.3372V68.2873H14.0563V46.8353H22.6181V51.0772H26.9206V46.8353H31.2318V55.3927H35.5343V59.6909H39.8455V55.4187H43.5068V51.1205H39.8802V46.818H47.8787L47.8613 46.805V51.1292H56.4014V55.4404H47.8657V59.7342L47.8787 59.7212H39.8759V64.0324H43.5458C43.5458 64.6737 43.5371 65.25 43.5458 65.8262C43.5588 66.6755 43.5848 67.5247 43.6021 68.374C42.6446 68.3523 41.687 68.335 40.7294 68.3176C40.4478 68.3133 40.1618 68.3176 39.8845 68.3176V72.5898H43.5458C43.5458 72.1306 43.5415 71.7059 43.5458 71.2856C43.5588 70.3151 43.5761 69.3402 43.5935 68.3696C45.019 68.361 46.4488 68.3523 47.8743 68.348L47.8613 68.335L47.87 68.3306ZM26.9639 59.7429V63.9934H31.2231V59.7429H26.9639ZM35.582 64.0498V68.296H39.8282V64.0498H35.582Z" fill="black"/>
<path d="M90.9256 42.5154V13C91.1422 13 91.3329 13 91.5279 13C101.021 13 110.514 13 120.012 13C120.957 13 120.957 13 120.957 13.9359C120.957 23.1866 120.957 32.4329 120.957 41.6835C120.957 42.5024 120.957 42.5111 120.081 42.5154C117.867 42.5198 115.653 42.5154 113.439 42.5154C106.173 42.5154 98.9067 42.5154 91.6405 42.5154C91.4152 42.5154 91.1899 42.5154 90.9213 42.5154H90.9256ZM95.2065 17.3112V17.7661C95.2065 24.2524 95.2065 30.7431 95.2108 37.2294C95.2108 37.6496 95.0418 38.1393 95.5661 38.4122C95.6094 38.4339 95.6094 38.5292 95.5964 38.4859C95.7871 38.3949 95.9387 38.2649 96.1034 38.2519C96.398 38.2216 96.7576 38.1263 96.8053 38.4772C96.9786 38.3949 97.1303 38.2736 97.2992 38.2519C97.5679 38.2173 97.8885 38.1653 97.9145 38.4946C98.0662 38.4079 98.2048 38.2692 98.3565 38.2519C98.6338 38.2173 98.9761 38.1436 99.0107 38.4469C99.197 38.3732 99.3747 38.2476 99.548 38.2562C99.7516 38.2649 99.9553 38.3862 100.168 38.4599C100.202 38.1393 100.549 38.2216 100.835 38.2519C101.017 38.2692 101.186 38.3949 101.324 38.4556C101.489 38.3906 101.693 38.2606 101.892 38.2562C102.078 38.2562 102.269 38.3906 102.425 38.4556C102.594 38.3906 102.793 38.2606 102.997 38.2562C103.183 38.2562 103.374 38.3949 103.521 38.4556C103.695 38.3906 103.898 38.2562 104.097 38.2562C104.284 38.2562 104.474 38.3949 104.626 38.4599C104.782 38.3949 104.968 38.2519 105.155 38.2562C105.358 38.2562 105.558 38.3906 105.731 38.4556C105.874 38.3992 106.06 38.2736 106.255 38.2519C106.524 38.2216 106.871 38.1393 106.879 38.4729C107.048 38.3992 107.217 38.2736 107.403 38.2476C107.663 38.2129 107.988 38.1523 107.98 38.4686C108.149 38.3949 108.322 38.2736 108.508 38.2476C108.768 38.2129 109.089 38.1609 109.08 38.4642C109.258 38.3862 109.427 38.2692 109.609 38.2476C109.869 38.2173 110.189 38.1523 110.181 38.4642C110.367 38.3862 110.536 38.2649 110.714 38.2519C110.995 38.2259 111.346 38.1349 111.377 38.4772C111.541 38.3949 111.697 38.2736 111.862 38.2519C112.131 38.2173 112.46 38.1566 112.473 38.4772C112.642 38.3949 112.794 38.2736 112.963 38.2519C113.231 38.2173 113.56 38.1523 113.573 38.4729C113.742 38.3906 113.898 38.2692 114.063 38.2519C114.332 38.2173 114.657 38.1609 114.678 38.4946C114.826 38.4079 114.969 38.2649 115.12 38.2519C115.424 38.2259 115.801 38.1046 115.892 38.6375C115.984 38.4122 116.235 38.2591 116.645 38.1783V17.3112H95.2065Z" fill="black"/>
<path d="M43.5675 89.8693C43.5675 90.2203 43.5675 90.5062 43.5675 90.7965C43.5675 100.169 43.5675 109.545 43.5675 118.917C43.5675 119.883 43.5675 119.887 42.5926 119.887C33.2639 119.887 23.9396 119.887 14.611 119.887H14.182C14.013 119.285 13.9264 90.5972 14.0824 89.8693H43.5718H43.5675ZM39.2779 94.1805H18.3632V115.589C18.5452 115.598 18.6622 115.611 18.7835 115.611C25.4691 115.611 32.159 115.611 38.8447 115.602C39.044 115.602 39.2433 115.468 39.4902 115.377C39.4816 115.373 39.5422 115.425 39.6419 115.52V94.3495C39.6159 94.3495 39.5899 94.3495 39.5639 94.3495C39.5292 94.5358 39.4946 94.7221 39.4599 94.9084C39.4209 94.9041 39.3819 94.8997 39.3429 94.8954C39.3256 94.6744 39.3083 94.4535 39.2866 94.1805H39.2779Z" fill="black"/>
<path d="M14.052 13.0173H43.5371V42.4851H14.052V13.0173ZM39.6462 24.5254C39.6462 23.9665 39.6419 23.4725 39.6462 22.9786C39.6549 22.359 39.6765 21.7394 39.6852 21.1198C39.6895 20.6865 39.6852 20.2489 39.6852 19.8156C39.6852 19.1223 39.6852 18.4291 39.6809 17.7358C39.6809 17.6405 39.6635 17.4672 39.6202 17.4542C39.3516 17.3805 39.0699 17.2939 38.797 17.2939C32.1287 17.2852 25.4604 17.2852 18.7878 17.2895C18.6405 17.2895 18.4932 17.3069 18.3459 17.3155V38.1609C18.7098 38.3906 19.2644 37.9486 19.4464 38.6419C19.4464 38.1566 19.7757 38.2173 20.0357 38.2519C20.2177 38.2736 20.3866 38.3992 20.56 38.4772C20.5296 38.1739 20.8416 38.2173 21.0929 38.2519C21.2879 38.2779 21.4699 38.3949 21.6605 38.4729C21.6475 38.1523 21.9768 38.2173 22.2411 38.2519C22.4491 38.2779 22.6441 38.3906 22.8304 38.4599C22.969 38.3992 23.1553 38.2606 23.346 38.2606C23.5496 38.2606 23.7489 38.3949 23.9266 38.4599C24.0696 38.3992 24.2602 38.2606 24.4465 38.2606C24.6502 38.2606 24.8495 38.3949 25.0228 38.4599C25.1745 38.3992 25.3608 38.2606 25.5471 38.2606C25.7507 38.2606 25.95 38.3949 26.119 38.4599C26.275 38.3949 26.457 38.2779 26.652 38.2562C26.9206 38.2259 27.2629 38.1479 27.2759 38.4772C27.4535 38.3992 27.6182 38.2822 27.8002 38.2562C28.0601 38.2216 28.3808 38.1696 28.3721 38.4729C28.5498 38.3949 28.7187 38.2779 28.9007 38.2562C29.1607 38.2216 29.4813 38.1653 29.4727 38.4729C29.6546 38.3949 29.8236 38.2779 30.0013 38.2562C30.2612 38.2259 30.5819 38.1609 30.5689 38.4859C30.7379 38.4036 30.8938 38.2736 31.0585 38.2562C31.3531 38.2259 31.7127 38.1306 31.7647 38.4816C31.9337 38.3992 32.0854 38.2779 32.25 38.2562C32.5187 38.2216 32.848 38.1609 32.861 38.4816C33.0343 38.3992 33.1859 38.2779 33.3506 38.2562C33.6192 38.2259 33.9485 38.1609 33.9615 38.4772C34.1305 38.3992 34.2865 38.2736 34.4511 38.2562C34.7197 38.2216 35.0447 38.1653 35.0664 38.5032C35.2137 38.4166 35.3567 38.2736 35.5083 38.2606C35.8116 38.2346 36.1886 38.1133 36.2536 38.5032C36.4096 38.4166 36.5482 38.2779 36.6999 38.2606C36.9772 38.2259 37.3195 38.1523 37.3585 38.4989C37.5101 38.4122 37.6488 38.2779 37.8047 38.2606C38.0864 38.2259 38.42 38.1566 38.4547 38.4556C38.784 38.3212 39.1133 38.1869 39.4729 38.0353C39.4989 38.2129 39.5249 38.3992 39.5509 38.5855C39.5812 38.5855 39.6072 38.5855 39.6375 38.5855V27.2854C39.6115 27.2854 39.5899 27.2854 39.5639 27.2854C39.5206 27.4198 39.4772 27.5497 39.4382 27.6841C39.4122 27.6797 39.3862 27.6754 39.3559 27.6711V25.665C39.3906 25.665 39.4296 25.6606 39.4642 25.6563C39.4946 25.8729 39.5249 26.0896 39.5596 26.3062C39.4382 26.0029 40.0838 25.483 39.3212 25.3443V24.5514C39.4469 24.5427 39.5552 24.5384 39.6462 24.5341V24.5254Z" fill="black"/>
<path d="M69.413 25.9293C69.4043 25.8989 69.387 25.8729 69.387 25.8426C69.387 23.0176 69.387 20.1969 69.387 17.3155H73.6722V13.0347H77.966V17.2982H82.2816V30.2188H86.5668V34.4997H77.9964V42.5025H73.7025L73.7112 42.5155C73.6982 42.3941 73.6765 42.2771 73.6765 42.1558C73.6808 39.6168 73.6895 37.0777 73.6982 34.5387C75.1063 34.5387 76.5189 34.5387 77.953 34.5387V30.2405H73.6982C73.6895 28.8669 73.6852 27.4978 73.6808 26.1242C73.6808 26.0722 73.7242 26.0159 73.7458 25.9639C74.2918 25.9509 74.8377 25.9249 75.3836 25.9206C76.2329 25.9119 77.0821 25.9206 77.9487 25.9206V21.6527H73.6765C73.6765 23.0349 73.6765 24.3738 73.6765 25.7126C73.6765 25.7993 73.7242 25.8859 73.7458 25.9683C73.5638 25.9509 73.3862 25.9206 73.2042 25.9206C71.9304 25.9206 70.6565 25.9206 69.387 25.9206L69.4043 25.9379L69.413 25.9293Z" fill="black"/>
<path d="M60.7862 25.9293C63.6633 25.9293 66.5359 25.9293 69.413 25.9293L69.3956 25.9119L69.413 30.2361H65.0671C65.0671 30.9034 65.0671 31.51 65.0671 32.1209C65.0758 34.361 65.0844 36.6054 65.0888 38.8455L65.1018 38.8325H60.7819C60.7732 39.0145 60.7602 39.1618 60.7602 39.3135C60.7602 40.9296 60.7559 42.5501 60.7602 44.1663C60.7602 45.0502 60.7819 45.9341 60.7949 46.818H56.4447C56.4447 46.5927 56.4447 46.441 56.4447 46.2894C56.4447 42.7494 56.4447 39.2095 56.4447 35.6739C56.4447 35.2926 56.4707 34.9156 56.4837 34.5343L56.475 34.543H60.7559C60.7559 34.2917 60.7559 34.1314 60.7559 33.9667C60.7559 31.9259 60.7559 29.8808 60.7559 27.84C60.7559 27.2031 60.7776 26.5619 60.7906 25.9249L60.7819 25.9379L60.7862 25.9293Z" fill="black"/>
<path d="M73.7068 42.4981V46.8007H77.9877V47.3899C77.9877 49.9203 77.9877 52.4464 77.9877 54.9768C77.9877 55.1284 78.0007 55.2801 78.0093 55.4317L78.0223 55.4187C75.1496 55.4187 72.2726 55.4187 69.3999 55.4187L69.4129 55.4317C69.3999 55.2497 69.3783 55.0678 69.3783 54.8858C69.3783 52.3814 69.3783 49.877 69.3783 47.3726V46.818C67.9051 46.818 66.5013 46.818 65.0974 46.818C65.0887 44.6905 65.0757 42.5588 65.0714 40.4313C65.0714 39.8984 65.0931 39.3698 65.1061 38.8369L65.0931 38.8499H69.3783V42.5155H73.7155L73.7068 42.5025V42.4981Z" fill="black"/>
<path d="M14.039 85.5104V81.2469H18.2809V76.9574H14.0563V72.6548H18.3155V76.927H22.6267V81.2166H31.2101V85.5148H14.039V85.5104Z" fill="black"/>
<path d="M47.883 46.818C47.8743 46.0251 47.857 45.2322 47.857 44.4436C47.857 39.8681 47.857 35.2926 47.857 30.7171C47.857 30.5698 47.857 30.4181 47.857 30.2318H52.1855V25.9163L52.1725 25.9293C53.611 25.9293 55.0539 25.9293 56.4924 25.9293L56.4794 25.9163C56.4664 26.0982 56.4491 26.2802 56.4491 26.4622C56.4491 28.9276 56.4491 31.393 56.4491 33.8584C56.4491 34.0837 56.4707 34.3133 56.4837 34.5387L56.4924 34.53H52.1595V46.805H47.8657L47.883 46.818Z" fill="black"/>
<path d="M52.1855 25.9163H47.896V17.3329H60.7646C60.7646 17.5278 60.7646 17.7228 60.7646 17.9135C60.7646 20.4179 60.7646 22.9179 60.7646 25.4223C60.7646 25.5913 60.7819 25.7559 60.7906 25.9249L60.7993 25.9119C59.3607 25.9119 57.9222 25.9119 56.4794 25.9119L56.4924 25.9249C56.4794 25.119 56.4577 24.3131 56.4491 23.5115C56.4404 22.8919 56.4491 22.268 56.4491 21.6397H52.1725V25.9249L52.1855 25.9119V25.9163Z" fill="black"/>
<path d="M56.4881 115.606C56.4751 116.841 56.4621 118.076 56.4491 119.311C56.4491 119.506 56.4491 119.701 56.4491 119.918H47.883V111.365H52.1639V115.615C53.637 115.615 55.0669 115.615 56.4967 115.615L56.4881 115.606Z" fill="black"/>
<path d="M47.8656 85.5754C46.5571 85.5624 45.2442 85.5408 43.9357 85.5364C41.2797 85.5321 38.628 85.5364 35.9719 85.5364C35.8506 85.5364 35.7336 85.5234 35.582 85.5104V81.2686H47.857C47.857 82.7071 47.857 84.1499 47.857 85.5884L47.8656 85.5754Z" fill="black"/>
<path d="M82.3162 46.779V38.8455H86.5668V46.779H82.3162Z" fill="black"/>
<path d="M121 81.2512V85.5018H116.754V81.2512H121Z" fill="black"/>
<path d="M78.0093 55.4274H82.3162C82.3162 56.8875 82.3162 58.3131 82.3162 59.7342L82.3249 59.7212C80.8864 59.7212 79.4522 59.7212 78.018 59.7212V55.4144L78.005 55.4274H78.0093Z" fill="black"/>
<path d="M60.7863 46.8006C62.2248 46.8006 63.6676 46.8006 65.1061 46.8006C65.0931 47.9748 65.0801 49.1447 65.0715 50.3189C65.0715 50.5616 65.0715 50.7999 65.0715 51.0728H60.7906V46.8006H60.7863Z" fill="black"/>
<path d="M95.1718 94.1155H90.9256V89.8693H95.1718V94.1155Z" fill="black"/>
<path d="M112.373 21.6224C112.382 21.8217 112.395 21.9863 112.395 22.151C112.395 25.9033 112.395 29.6555 112.395 33.4078C112.395 33.6201 112.386 33.8367 112.339 34.0404C112.308 34.179 112.213 34.4 112.126 34.413C111.884 34.4433 111.563 34.5776 111.429 34.205C111.156 34.5646 110.458 34.5473 110.215 34.1704C109.964 34.5603 109.371 34.5603 109.119 34.1704C108.868 34.556 108.279 34.5603 108.023 34.1704C107.772 34.5516 107.178 34.5516 106.927 34.1704C106.671 34.543 105.991 34.5473 105.74 34.1704C105.484 34.5386 104.895 34.5386 104.643 34.1704C104.388 34.53 103.799 34.5343 103.547 34.1704C103.287 34.5256 102.702 34.5256 102.451 34.1704C102.178 34.53 101.567 34.517 101.324 34.1444C101.073 34.5343 100.389 34.5343 100.185 34.2137C100.042 34.2787 99.9033 34.4 99.782 34.3827C99.6996 34.374 99.5957 34.1834 99.574 34.062C99.522 33.7977 99.496 33.5204 99.496 33.2475C99.4917 29.4649 99.496 25.6823 99.496 21.8997C99.496 21.8087 99.509 21.7177 99.5133 21.5921H112.373V21.6224Z" fill="black"/>
<path d="M22.5877 111.317C22.5877 110.94 22.5877 110.641 22.5877 110.338C22.5877 106.568 22.5877 102.799 22.5877 99.029C22.5877 98.4397 22.5877 98.4397 23.1943 98.4397C26.9639 98.4397 30.7335 98.4484 34.5031 98.4267C34.9667 98.4267 35.0663 98.5827 35.062 99.003C35.0403 102.539 35.036 106.074 35.0317 109.61C35.0317 110.004 35.01 110.403 35.0447 110.797C35.0837 111.204 34.9407 111.326 34.5377 111.321C31.9597 111.308 29.3773 111.313 26.7992 111.313C25.4257 111.313 24.0565 111.313 22.5834 111.313L22.5877 111.317Z" fill="black"/>
<path d="M35.4737 106.824C35.4737 106.915 35.4953 107.01 35.4693 107.092C35.4433 107.179 35.374 107.253 35.3263 107.331C35.2657 107.261 35.179 107.201 35.1444 107.118C35.1097 107.04 35.1097 106.936 35.1314 106.854C35.1747 106.668 35.2397 106.486 35.296 106.304C35.3827 106.464 35.465 106.629 35.5517 106.789C35.5257 106.802 35.4997 106.815 35.4737 106.824Z" fill="black"/>
<path d="M35.4693 102.344C35.4693 102.448 35.4867 102.56 35.4607 102.656C35.4433 102.725 35.361 102.777 35.309 102.838C35.2527 102.781 35.166 102.734 35.1444 102.664C35.114 102.569 35.1054 102.452 35.127 102.352C35.1704 102.166 35.244 101.988 35.3003 101.811C35.3827 101.98 35.4607 102.144 35.543 102.313C35.517 102.322 35.491 102.335 35.465 102.344H35.4693Z" fill="black"/>
<path d="M35.5343 110.16C35.4606 110.329 35.3957 110.481 35.3307 110.628C35.2613 110.472 35.14 110.316 35.14 110.16C35.14 110.004 35.2613 109.848 35.3307 109.692C35.3957 109.839 35.4606 109.991 35.5343 110.16Z" fill="black"/>
<path d="M35.5516 109.09C35.4563 109.259 35.3783 109.393 35.3003 109.527C35.2397 109.363 35.1357 109.194 35.1357 109.029C35.1357 108.882 35.2483 108.735 35.3133 108.587C35.387 108.743 35.465 108.904 35.5516 109.086V109.09Z" fill="black"/>
<path d="M35.5516 107.942C35.4606 108.137 35.3913 108.284 35.3263 108.431C35.2613 108.271 35.1443 108.115 35.14 107.955C35.1314 107.803 35.2397 107.647 35.296 107.491C35.3783 107.638 35.465 107.781 35.556 107.942H35.5516Z" fill="black"/>
<path d="M35.5517 105.697C35.4607 105.853 35.374 105.996 35.2917 106.144C35.2354 105.988 35.1314 105.832 35.14 105.68C35.1487 105.52 35.2614 105.364 35.3307 105.208C35.3957 105.355 35.465 105.502 35.556 105.702L35.5517 105.697Z" fill="black"/>
<path d="M35.5516 99.029C35.465 99.1936 35.3957 99.3236 35.3263 99.4536C35.2613 99.2933 35.1443 99.1329 35.1443 98.9683C35.1443 98.821 35.257 98.6737 35.322 98.5263C35.3957 98.6867 35.4693 98.847 35.556 99.029H35.5516Z" fill="black"/>
<path d="M35.5516 104.592C35.4607 104.748 35.3783 104.896 35.2917 105.043C35.2353 104.887 35.1314 104.731 35.1357 104.579C35.1444 104.419 35.257 104.263 35.322 104.103C35.3913 104.25 35.4563 104.397 35.5473 104.592H35.5516Z" fill="black"/>
<path d="M35.5516 100.099C35.4606 100.259 35.3783 100.407 35.296 100.554C35.2397 100.402 35.1314 100.246 35.14 100.095C35.1487 99.9345 35.2613 99.7742 35.3263 99.6182C35.3957 99.7655 35.465 99.9085 35.556 100.104L35.5516 100.099Z" fill="black"/>
<path d="M35.5516 103.492C35.4563 103.665 35.3827 103.804 35.3047 103.942C35.244 103.778 35.1357 103.613 35.1357 103.448C35.1357 103.301 35.2483 103.154 35.309 103.002C35.387 103.158 35.4606 103.31 35.5516 103.492Z" fill="black"/>
<path d="M35.5516 101.165C35.4607 101.36 35.3913 101.503 35.322 101.65C35.257 101.49 35.1444 101.334 35.1357 101.174C35.1314 101.022 35.2353 100.866 35.2917 100.714C35.374 100.862 35.4563 101.009 35.5473 101.169L35.5516 101.165Z" fill="black"/>
<path d="M39.4599 110.853V111.759C39.4252 111.759 39.3906 111.759 39.3559 111.759V110.853C39.3906 110.853 39.4252 110.853 39.4599 110.853Z" fill="black"/>
<path d="M39.3559 107.266V106.36C39.3906 106.36 39.4252 106.36 39.4642 106.36V107.266C39.4296 107.266 39.3949 107.266 39.3559 107.266Z" fill="black"/>
<path d="M39.4729 96.2949V97.1832C39.4382 97.1832 39.4036 97.1832 39.3646 97.1832V96.2906C39.3992 96.2906 39.4339 96.2906 39.4729 96.2906V96.2949Z" fill="black"/>
<path d="M39.3472 102.768V101.876C39.3819 101.876 39.4166 101.876 39.4556 101.876V102.768C39.4209 102.768 39.3862 102.768 39.3472 102.768Z" fill="black"/>
<path d="M39.3559 101.59V100.775C39.3906 100.775 39.4252 100.775 39.4599 100.775V101.59C39.4252 101.59 39.3906 101.59 39.3559 101.59Z" fill="black"/>
<path d="M39.3516 100.476V99.6789C39.3862 99.6789 39.4209 99.6789 39.4599 99.6789V100.485C39.4252 100.485 39.3906 100.48 39.3516 100.476Z" fill="black"/>
<path d="M39.3559 103.86V103.063H39.4599V103.882C39.4252 103.873 39.3906 103.869 39.3559 103.86Z" fill="black"/>
<path d="M39.4642 98.574V99.3886C39.4296 99.3886 39.3949 99.3886 39.3559 99.3886V98.574C39.3906 98.574 39.4252 98.574 39.4642 98.574Z" fill="black"/>
<path d="M39.3472 104.969V104.172H39.4512V104.965C39.4166 104.965 39.3819 104.969 39.3472 104.974V104.969Z" fill="black"/>
<path d="M39.3559 98.2924V97.4778C39.3906 97.4778 39.4252 97.4778 39.4599 97.4778V98.2924C39.4252 98.2924 39.3906 98.2924 39.3559 98.2924Z" fill="black"/>
<path d="M39.3472 106.074V105.273C39.3819 105.273 39.4166 105.273 39.4512 105.273V106.07C39.4166 106.07 39.3819 106.074 39.3472 106.079V106.074Z" fill="black"/>
<path d="M39.4599 95.1857V96.0003C39.4252 96.0003 39.3906 96.0003 39.3559 96.0003V95.1857C39.3906 95.1857 39.4252 95.1857 39.4599 95.1857Z" fill="black"/>
<path d="M39.4642 107.552V108.366H39.3559V107.552H39.4642Z" fill="black"/>
<path d="M39.4729 108.661V109.458C39.4382 109.458 39.4036 109.458 39.3689 109.462V108.661C39.4036 108.661 39.4382 108.661 39.4729 108.661Z" fill="black"/>
<path d="M39.3559 110.546V109.748C39.3906 109.748 39.4252 109.748 39.4599 109.748V110.563C39.4252 110.554 39.3906 110.55 39.3559 110.541V110.546Z" fill="black"/>
<path d="M39.3472 112.851V112.049C39.3819 112.049 39.4166 112.049 39.4556 112.049V112.851C39.4209 112.851 39.3862 112.851 39.3472 112.851Z" fill="black"/>
<path d="M39.3516 113.943V113.145C39.3862 113.145 39.4209 113.145 39.4599 113.145V113.951L39.3516 113.943Z" fill="black"/>
<path d="M39.4599 114.242V115.056C39.4252 115.056 39.3906 115.056 39.3559 115.056V114.242C39.3906 114.242 39.4252 114.242 39.4599 114.242Z" fill="black"/>
<path d="M39.4729 17.7835V18.6717C39.4382 18.6717 39.4036 18.6717 39.3646 18.6717V17.7791C39.3992 17.7791 39.4339 17.7791 39.4729 17.7791V17.7835Z" fill="black"/>
<path d="M39.4686 35.7345V36.6228C39.4339 36.6228 39.3992 36.6228 39.3689 36.6271V35.7432C39.4036 35.7432 39.4382 35.7389 39.4686 35.7345Z" fill="black"/>
<path d="M39.4729 22.268V23.1562C39.4382 23.1562 39.4036 23.1562 39.3646 23.1562V22.2637C39.3992 22.2637 39.4339 22.2637 39.4729 22.2637V22.268Z" fill="black"/>
<path d="M39.4685 31.2413V32.1036L39.3516 32.1123C39.3342 31.8263 39.3169 31.5403 39.2996 31.2543C39.3559 31.2543 39.4122 31.2457 39.4685 31.2413Z" fill="black"/>
<path d="M39.3472 21.969V21.1674H39.4512V21.9647H39.3472V21.969Z" fill="black"/>
<path d="M39.4642 32.4502V33.2475C39.4296 33.2475 39.3949 33.2475 39.3602 33.2475V32.4329C39.3949 32.4415 39.4296 32.4459 39.4642 32.4545V32.4502Z" fill="black"/>
<path d="M39.3472 20.8685V20.0669C39.3819 20.0669 39.4166 20.0669 39.4556 20.0669V20.8685C39.4209 20.8685 39.3862 20.8685 39.3472 20.8685Z" fill="black"/>
<path d="M39.3559 29.8332V29.0359C39.3906 29.0359 39.4252 29.0359 39.4599 29.0359V29.8505C39.4252 29.8418 39.3906 29.8375 39.3559 29.8288V29.8332Z" fill="black"/>
<path d="M39.4599 33.5291V34.3437C39.4252 34.3437 39.3906 34.3437 39.3559 34.3437V33.5291C39.3906 33.5291 39.4252 33.5291 39.4599 33.5291Z" fill="black"/>
<path d="M39.4729 23.4595V24.2568C39.4382 24.2568 39.4036 24.2568 39.3689 24.2611V23.4639C39.4036 23.4639 39.4382 23.4595 39.4729 23.4552V23.4595Z" fill="black"/>
<path d="M39.4556 27.944V28.7499C39.4252 28.7499 39.3906 28.7499 39.3602 28.7499V27.944H39.4556Z" fill="black"/>
<path d="M39.3516 35.4442V34.6686C39.3776 34.6686 39.4036 34.6686 39.4339 34.6686V35.4399C39.4079 35.4399 39.3819 35.4399 39.3516 35.4399V35.4442Z" fill="black"/>
<path d="M39.3472 19.7679V18.9664C39.3819 18.9664 39.4166 18.9664 39.4556 18.9664V19.7679C39.4209 19.7679 39.3862 19.7679 39.3472 19.7679Z" fill="black"/>
<path d="M39.4642 36.9217V37.7363C39.4296 37.7363 39.3949 37.7363 39.3559 37.7363V36.9217C39.3906 36.9217 39.4252 36.9217 39.4642 36.9217Z" fill="black"/>
<path d="M39.4729 30.1451V30.9424C39.4382 30.9424 39.4036 30.9424 39.3689 30.9467V30.1495C39.4036 30.1495 39.4382 30.1495 39.4729 30.1451Z" fill="black"/>
<path d="M73.7155 30.2231C73.7155 31.6616 73.7155 33.1045 73.7155 34.543C72.4806 34.53 71.2458 34.5213 70.0152 34.5083C69.8203 34.5083 69.6253 34.5083 69.3956 34.5083V30.2188C70.8341 30.2188 72.2727 30.2188 73.7155 30.2188V30.2231Z" fill="black"/>
<path d="M39.6982 17.3199H18.3459V38.5812H39.6982V17.3199Z" fill="white"/>
<path d="M35.0577 21.5704H22.5834V34.4693H35.0577V21.5704Z" fill="black"/>
<path d="M91.1986 13.0173H120.684V42.4851H91.1986V13.0173ZM116.793 24.5254C116.793 23.9665 116.788 23.4725 116.793 22.9786C116.801 22.359 116.823 21.7394 116.832 21.1198C116.836 20.6865 116.832 20.2489 116.832 19.8156C116.832 19.1223 116.832 18.4291 116.827 17.7358C116.827 17.6405 116.81 17.4672 116.767 17.4542C116.498 17.3805 116.217 17.2939 115.944 17.2939C109.275 17.2852 102.607 17.2852 95.9344 17.2895C95.7871 17.2895 95.6398 17.3069 95.4925 17.3155V38.1609C95.8564 38.3906 96.411 37.9486 96.593 38.6419C96.593 38.1566 96.9223 38.2173 97.1823 38.2519C97.3643 38.2736 97.5333 38.3992 97.7066 38.4772C97.6762 38.1739 97.9882 38.2173 98.2395 38.2519C98.4345 38.2779 98.6165 38.3949 98.8071 38.4729C98.7941 38.1523 99.1234 38.2173 99.3877 38.2519C99.5957 38.2779 99.7907 38.3906 99.977 38.4599C100.116 38.3992 100.302 38.2606 100.493 38.2606C100.696 38.2606 100.896 38.3949 101.073 38.4599C101.216 38.3992 101.407 38.2606 101.593 38.2606C101.797 38.2606 101.996 38.3949 102.169 38.4599C102.321 38.3992 102.507 38.2606 102.694 38.2606C102.897 38.2606 103.097 38.3949 103.266 38.4599C103.422 38.3949 103.604 38.2779 103.799 38.2562C104.067 38.2259 104.41 38.1479 104.423 38.4772C104.6 38.3992 104.765 38.2822 104.947 38.2562C105.207 38.2216 105.527 38.1696 105.519 38.4729C105.696 38.3949 105.865 38.2779 106.047 38.2562C106.307 38.2216 106.628 38.1653 106.619 38.4729C106.801 38.3949 106.97 38.2779 107.148 38.2562C107.408 38.2259 107.728 38.1609 107.715 38.4859C107.884 38.4036 108.04 38.2736 108.205 38.2562C108.5 38.2259 108.859 38.1306 108.911 38.4816C109.08 38.3992 109.232 38.2779 109.397 38.2562C109.665 38.2216 109.995 38.1609 110.008 38.4816C110.181 38.3992 110.333 38.2779 110.497 38.2562C110.766 38.2259 111.095 38.1609 111.108 38.4772C111.277 38.3992 111.433 38.2736 111.598 38.2562C111.866 38.2216 112.191 38.1653 112.213 38.5032C112.36 38.4166 112.503 38.2736 112.655 38.2606C112.958 38.2346 113.335 38.1133 113.4 38.5032C113.556 38.4166 113.695 38.2779 113.846 38.2606C114.124 38.2259 114.466 38.1523 114.505 38.4989C114.657 38.4122 114.795 38.2779 114.951 38.2606C115.233 38.2259 115.567 38.1566 115.601 38.4556C115.931 38.3212 116.26 38.1869 116.62 38.0353C116.646 38.2129 116.672 38.3992 116.697 38.5855C116.728 38.5855 116.754 38.5855 116.784 38.5855V27.2854C116.758 27.2854 116.736 27.2854 116.71 27.2854C116.667 27.4198 116.624 27.5497 116.585 27.6841C116.559 27.6797 116.533 27.6754 116.503 27.6711V25.665C116.537 25.665 116.576 25.6606 116.611 25.6563C116.641 25.8729 116.671 26.0896 116.706 26.3062C116.585 26.0029 117.23 25.483 116.468 25.3443V24.5514C116.594 24.5427 116.702 24.5384 116.793 24.5341V24.5254Z" fill="black"/>
<path d="M116.845 17.3199H95.4924V38.5812H116.845V17.3199Z" fill="white"/>
<path d="M112.204 21.5704H99.73V34.4693H112.204V21.5704Z" fill="black"/>
<path d="M14.052 90.3069H43.5371V119.775H14.052V90.3069ZM39.6462 101.815C39.6462 101.256 39.6419 100.762 39.6462 100.268C39.6549 99.6486 39.6765 99.029 39.6852 98.4094C39.6895 97.9761 39.6852 97.5385 39.6852 97.1052C39.6852 96.4119 39.6852 95.7187 39.6809 95.0254C39.6809 94.9301 39.6635 94.7568 39.6202 94.7438C39.3516 94.6701 39.0699 94.5834 38.797 94.5834C32.1287 94.5748 25.4604 94.5748 18.7878 94.5791C18.6405 94.5791 18.4932 94.5964 18.3459 94.6051V115.451C18.7098 115.68 19.2644 115.238 19.4464 115.931C19.4464 115.446 19.7757 115.507 20.0357 115.542C20.2177 115.563 20.3866 115.689 20.56 115.767C20.5296 115.464 20.8416 115.507 21.0929 115.542C21.2879 115.567 21.4699 115.684 21.6605 115.762C21.6475 115.442 21.9768 115.507 22.2411 115.542C22.4491 115.567 22.6441 115.68 22.8304 115.749C22.969 115.689 23.1553 115.55 23.346 115.55C23.5496 115.55 23.7489 115.684 23.9266 115.749C24.0696 115.689 24.2602 115.55 24.4465 115.55C24.6502 115.55 24.8495 115.684 25.0228 115.749C25.1745 115.689 25.3608 115.55 25.5471 115.55C25.7507 115.55 25.95 115.684 26.119 115.749C26.275 115.684 26.457 115.567 26.652 115.546C26.9206 115.516 27.2629 115.438 27.2759 115.767C27.4535 115.689 27.6182 115.572 27.8002 115.546C28.0601 115.511 28.3808 115.459 28.3721 115.762C28.5498 115.684 28.7187 115.567 28.9007 115.546C29.1607 115.511 29.4813 115.455 29.4727 115.762C29.6546 115.684 29.8236 115.567 30.0013 115.546C30.2612 115.516 30.5819 115.451 30.5689 115.775C30.7379 115.693 30.8938 115.563 31.0585 115.546C31.3531 115.516 31.7127 115.42 31.7647 115.771C31.9337 115.689 32.0854 115.567 32.25 115.546C32.5187 115.511 32.848 115.451 32.861 115.771C33.0343 115.689 33.1859 115.567 33.3506 115.546C33.6192 115.516 33.9485 115.451 33.9615 115.767C34.1305 115.689 34.2865 115.563 34.4511 115.546C34.7197 115.511 35.0447 115.455 35.0664 115.793C35.2137 115.706 35.3567 115.563 35.5083 115.55C35.8116 115.524 36.1886 115.403 36.2536 115.793C36.4096 115.706 36.5482 115.567 36.6999 115.55C36.9772 115.515 37.3195 115.442 37.3585 115.788C37.5101 115.702 37.6488 115.567 37.8047 115.55C38.0864 115.515 38.42 115.446 38.4547 115.745C38.784 115.611 39.1133 115.477 39.4729 115.325C39.4989 115.503 39.5249 115.689 39.5509 115.875C39.5812 115.875 39.6072 115.875 39.6375 115.875V104.575C39.6115 104.575 39.5899 104.575 39.5639 104.575C39.5206 104.709 39.4772 104.839 39.4382 104.974C39.4122 104.969 39.3862 104.965 39.3559 104.961V102.955C39.3906 102.955 39.4296 102.95 39.4642 102.946C39.4946 103.163 39.5249 103.379 39.5596 103.596C39.4382 103.292 40.0838 102.773 39.3212 102.634V101.841C39.4469 101.832 39.5552 101.828 39.6462 101.824V101.815Z" fill="black"/>
<path d="M39.6982 94.6051H18.3459V115.866H39.6982V94.6051Z" fill="white"/>
<path d="M35.0577 98.8556H22.5834V111.755H35.0577V98.8556Z" fill="black"/>
</g>
</g>
<defs>
<filter id="filter0_ddd_13626_2630" x="0" y="0" width="135" height="134.952" filterUnits="userSpaceOnUse" color-interpolation-filters="sRGB">
<feFlood flood-opacity="0" result="BackgroundImageFix"/>
<feColorMatrix in="SourceAlpha" type="matrix" values="0 0 0 0 0 0 0 0 0 0 0 0 0 0 0 0 0 0 127 0" result="hardAlpha"/>
<feOffset dy="1"/>
<feGaussianBlur stdDeviation="3"/>
<feComposite in2="hardAlpha" operator="out"/>
<feColorMatrix type="matrix" values="0 0 0 0 0.321569 0 0 0 0 0.439216 0 0 0 0 0.580392 0 0 0 0.2 0"/>
<feBlend mode="normal" in2="BackgroundImageFix" result="effect1_dropShadow_13626_2630"/>
<feColorMatrix in="SourceAlpha" type="matrix" values="0 0 0 0 0 0 0 0 0 0 0 0 0 0 0 0 0 0 127 0" result="hardAlpha"/>
<feOffset dy="2"/>
<feGaussianBlur stdDeviation="0.5"/>
<feComposite in2="hardAlpha" operator="out"/>
<feColorMatrix type="matrix" values="0 0 0 0 0.321569 0 0 0 0 0.439216 0 0 0 0 0.580392 0 0 0 0.12 0"/>
<feBlend mode="normal" in2="effect1_dropShadow_13626_2630" result="effect2_dropShadow_13626_2630"/>
<feColorMatrix in="SourceAlpha" type="matrix" values="0 0 0 0 0 0 0 0 0 0 0 0 0 0 0 0 0 0 127 0" result="hardAlpha"/>
<feOffset dy="2"/>
<feGaussianBlur stdDeviation="0.5"/>
<feComposite in2="hardAlpha" operator="out"/>
<feColorMatrix type="matrix" values="0 0 0 0 0.321569 0 0 0 0 0.439216 0 0 0 0 0.580392 0 0 0 0.14 0"/>
<feBlend mode="normal" in2="effect2_dropShadow_13626_2630" result="effect3_dropShadow_13626_2630"/>
<feBlend mode="normal" in="SourceGraphic" in2="effect3_dropShadow_13626_2630" result="shape"/>
</filter>
<clipPath id="clip0_13626_2630">
<rect width="107" height="106.952" fill="white" transform="translate(14 13)"/>
</clipPath>
</defs>
</svg>
