<svg width="60" height="60" viewBox="0 0 60 60" fill="none" xmlns="http://www.w3.org/2000/svg">
<path d="M52.1296 28.6143L17.3543 20.304C15.9785 19.9752 14.5967 20.824 14.2679 22.1998L9.53606 42.0007C9.20729 43.3765 10.0561 44.7583 11.4318 45.087L46.2072 53.3974C47.5829 53.7261 48.9647 52.8774 49.2936 51.5016L54.0254 31.7007C54.3541 30.325 53.5054 28.9431 52.1296 28.6143Z" fill="#728FF7"/>
<path d="M20.42 20.0233L49.5251 26.9786C52.4646 27.6811 54.2821 30.6401 53.5797 33.5796L51.4976 42.2921L11.7371 32.7904L13.8191 24.0779C14.5215 21.1385 17.4806 19.3209 20.42 20.0233Z" fill="#3749EF"/>
<path fill-rule="evenodd" clip-rule="evenodd" d="M53.384 39.3964C53.384 39.3964 42.8157 39.9023 31.6841 37.2418C20.5524 34.5813 11.3545 29.3533 11.3545 29.3533L13.4771 20.4755C13.7812 19.2077 15.0522 18.4265 16.32 18.7307L53.7585 27.6789C55.0263 27.983 55.8075 29.254 55.5033 30.5219L53.3808 39.3996L53.384 39.3964Z" fill="#728FF7"/>
<path d="M36.0973 35.1323L28.7113 33.3673C28.0234 33.2029 27.3324 33.6273 27.1681 34.3152L26.3339 37.8058C26.1696 38.4937 26.5939 39.1846 27.2818 39.3489L34.6678 41.114C35.3558 41.2784 36.0466 40.854 36.211 40.1662L37.0452 36.6755C37.2096 35.9876 36.7851 35.2967 36.0973 35.1323Z" fill="#8EB5EF"/>
<path d="M44.6002 28.272C43.5671 28.0028 42.9456 26.9432 43.2147 25.9102L44.6927 20.2476L27.8176 15.8497L26.3396 21.5122C26.0705 22.5452 25.0109 23.1668 23.9779 22.8977C22.9449 22.6285 22.3232 21.5689 22.5924 20.5359L24.5585 12.9996C24.8277 11.9667 25.8873 11.345 26.9203 11.6142L47.5426 16.9885C48.5756 17.2576 49.1972 18.3173 48.928 19.3503L46.9619 26.8865C46.6928 27.9196 45.6332 28.5411 44.6002 28.272Z" fill="#728FF7"/>
<path fill-rule="evenodd" clip-rule="evenodd" d="M40.4685 -28.1596C40.668 -17.9682 38.7837 -7.64273 36.4823 0.046424C36.2726 0.845183 36.1629 1.06578 35.981 1.52876C34.2728 5.91269 28.5512 7.31785 28.4496 7.34936C27.2055 7.74438 26.5181 9.07577 26.9133 10.3157C27.2094 11.2552 28.0417 11.8818 28.9651 11.9595C29.2672 11.9868 29.5748 11.9552 29.8838 11.8564C29.9896 11.8208 30.9547 11.5041 32.259 10.8412C31.5785 12.6604 30.8595 14.3107 30.3292 15.3636C30.1496 15.7215 29.7627 15.9281 29.3644 15.8737L28.0309 15.7035C27.3641 19.7345 31.5396 19.7105 31.8712 19.7383C32.3413 19.7774 32.8143 19.6735 33.2226 19.4464C33.4821 19.9142 33.8382 20.5941 35.1713 20.9872C36.2272 21.3746 37.3121 21.1613 37.7246 20.9343C38.0481 21.3529 38.6402 21.8065 39.718 22.1396C41.0008 22.5359 41.9473 22.2987 42.3642 22.0634C42.7098 22.4321 43.9326 23.2937 45.4728 23.4303C46.3668 23.5075 47.267 23.0717 47.7381 22.2405C49.1468 19.7592 51.8821 11.0026 51.8098 10.6311C54.4371 1.19118 57.0186 -10.3267 58.3548 -21.1889C53.6065 -25.0279 47.7044 -27.5451 41.1613 -28.1161C40.9305 -28.1376 40.6994 -28.1423 40.4685 -28.1596Z" fill="#FFC8E9"/>
<path fill-rule="evenodd" clip-rule="evenodd" d="M44.2191 18.1487C44.3444 18.1892 44.4176 18.3125 44.4024 18.4384L44.393 18.4845L43.5978 20.9825C43.5177 21.1995 43.3558 21.5072 43.0932 21.8088C42.822 22.1186 42.4977 22.3474 42.1128 22.4657C41.9731 22.5091 41.8234 22.4303 41.78 22.2907C41.7365 22.151 41.8153 22.0014 41.9549 21.9579C42.2384 21.8713 42.4817 21.6954 42.6926 21.4559C42.8174 21.3155 42.9215 21.1578 43.0046 20.9997L43.0309 20.9456L43.0706 20.8581L43.0926 20.8081L43.8835 18.3185C43.9239 18.1932 44.0473 18.12 44.1689 18.1351L44.215 18.1444L44.2191 18.1487Z" fill="#003CE5"/>
<path fill-rule="evenodd" clip-rule="evenodd" d="M39.4721 16.9414C39.5253 16.8037 39.6781 16.7354 39.8158 16.7886C39.9369 16.8331 40.0057 16.9606 39.9821 17.0863L39.9685 17.1323L38.9511 19.8066L38.9377 19.8441L38.8715 19.9983C38.8715 19.9983 38.8538 20.04 38.8407 20.0608C38.7529 20.2439 38.6441 20.4268 38.5145 20.5964C38.2466 20.9484 37.9261 21.2025 37.5414 21.304C37.3976 21.343 37.2523 21.256 37.2173 21.1165C37.1782 20.9727 37.2653 20.8274 37.4048 20.7924C37.6583 20.7261 37.8849 20.5458 38.088 20.2766C38.1918 20.1358 38.2831 19.9863 38.3577 19.8322L38.4018 19.7322L38.4328 19.6572L39.4636 16.9454L39.4721 16.9414Z" fill="#003CE5"/>
<path fill-rule="evenodd" clip-rule="evenodd" d="M35.3622 15.3233C35.4833 15.3678 35.5521 15.4954 35.5327 15.6211L35.5192 15.6671L34.5141 18.3542C34.4211 18.5835 34.2295 18.9075 33.9245 19.2251C33.6752 19.4849 33.3811 19.6891 33.0461 19.821C32.9105 19.8771 32.7562 19.8109 32.7002 19.671C32.6442 19.5353 32.7104 19.3811 32.8503 19.3251C33.113 19.2212 33.3434 19.0577 33.541 18.8515C33.6871 18.6989 33.8083 18.5332 33.9083 18.3671L33.939 18.3088L33.9871 18.2173L34.0135 18.159L35.0185 15.4761C35.0631 15.355 35.1906 15.2861 35.3163 15.3055L35.3623 15.3191L35.3622 15.3233Z" fill="#003CE5"/>
<path d="M52.3175 28.5907L17.1454 20.2016C15.7538 19.8697 14.3563 20.7265 14.0238 22.1153L9.23792 42.104C8.90539 43.4928 9.76384 44.8878 11.1553 45.2197L46.3274 53.6088C47.7189 53.9407 49.1165 53.0839 49.449 51.695L54.2349 31.7063C54.5674 30.3175 53.7089 28.9226 52.3175 28.5907Z" fill="#728FF7"/>
<path d="M20.3095 20.278L49.4814 27.0906C52.4277 27.7787 54.2494 30.6771 53.5454 33.5563L51.4585 42.0902L11.6066 32.7833L13.6934 24.2494C14.3975 21.3702 17.3633 19.5899 20.3095 20.278Z" fill="#3749EF"/>
<mask id="mask0_309_9213" style="mask-type:luminance" maskUnits="userSpaceOnUse" x="6" y="26" width="22" height="15">
<path d="M24.8246 26.6802L27.1712 36.1863L8.44505 40.3236L6.14027 30.5627L24.8246 26.6802Z" fill="white"/>
</mask>
<g mask="url(#mask0_309_9213)">
<path fill-rule="evenodd" clip-rule="evenodd" d="M-0.550816 36.8207L17.9997 50.7291L33.72 30.0095L15.1695 16.1011L-0.550816 36.8207Z" fill="#00BBC4"/>
</g>
<mask id="mask1_309_9213" style="mask-type:luminance" maskUnits="userSpaceOnUse" x="7" y="27" width="19" height="12">
<path d="M23.9613 27.6475L25.9924 34.7531L9.19578 38.7326L7.1815 31.4028L23.9613 27.6475Z" fill="white"/>
</mask>
<g mask="url(#mask1_309_9213)">
<path fill-rule="evenodd" clip-rule="evenodd" d="M1.87592 36.4835L18.0257 47.828L31.1832 29.7405L15.0329 18.3962L1.87592 36.4835Z" fill="#8AE7F2"/>
</g>
<mask id="mask2_309_9213" style="mask-type:luminance" maskUnits="userSpaceOnUse" x="5" y="26" width="23" height="18">
<path d="M22.8636 26.931L27.2647 35.6775L9.92689 43.8742L5.50992 34.8698L22.8636 26.931Z" fill="white"/>
</mask>
<g mask="url(#mask2_309_9213)">
<path fill-rule="evenodd" clip-rule="evenodd" d="M0.376455 42.4592L21.5546 51.8959L32.2757 28.2001L11.0975 18.7634L0.376455 42.4592Z" fill="#00BBC4"/>
</g>
<mask id="mask3_309_9213" style="mask-type:luminance" maskUnits="userSpaceOnUse" x="6" y="28" width="19" height="14">
<path d="M21.7591 28.5496L24.9378 34.8579L10.1263 41.8493L6.92204 35.3265L21.7591 28.5496Z" fill="white"/>
</mask>
<g mask="url(#mask3_309_9213)">
<path fill-rule="evenodd" clip-rule="evenodd" d="M2.94262 41.1395L19.9587 48.7219L28.823 29.1297L11.8065 21.5477L2.94262 41.1395Z" fill="#8AE7F2"/>
</g>
<mask id="mask4_309_9213" style="mask-type:luminance" maskUnits="userSpaceOnUse" x="4" y="27" width="22" height="20">
<path d="M19.356 27.2507L25.8307 34.5162L11.5323 46.9004L4.97464 39.391L19.356 27.2507Z" fill="white"/>
</mask>
<g mask="url(#mask4_309_9213)">
<path fill-rule="evenodd" clip-rule="evenodd" d="M2.51542 43.5364L18.9711 50.8687L28.2129 30.4417L11.7572 23.1094L2.51542 43.5364Z" fill="#00BBC4"/>
</g>
<mask id="mask5_309_9213" style="mask-type:luminance" maskUnits="userSpaceOnUse" x="6" y="28" width="19" height="18">
<path d="M19.6386 28.081L24.6045 33.7805L11.311 45.5535L6.26068 39.6352L19.6386 28.081Z" fill="white"/>
</mask>
<g mask="url(#mask5_309_9213)">
<path fill-rule="evenodd" clip-rule="evenodd" d="M4.12937 42.9462L18.2084 49.212L26.6712 30.5295L12.5923 24.2634L4.12937 42.9462Z" fill="#8AE7F2"/>
</g>
<circle cx="15.4277" cy="37.146" r="2.5645" transform="rotate(-105.755 15.4277 37.146)" fill="#00BBC4"/>
<path d="M9.78708 41.7393L9.89111 41.8676C10.0342 42.0441 10.2934 42.0712 10.4699 41.928L12.5158 40.2691C12.6923 40.1259 12.7193 39.8668 12.5762 39.6903L12.4722 39.562C12.329 39.3855 12.0699 39.3584 11.8934 39.5016L9.84752 41.1605C9.67101 41.3037 9.64395 41.5628 9.78708 41.7393Z" fill="#00BBC4"/>
<path d="M18.0869 34.9563L18.1909 35.0846C18.334 35.2611 18.5932 35.2881 18.7697 35.145L20.8156 33.486C20.9921 33.3429 21.0191 33.0838 20.876 32.9073L20.772 32.779C20.6288 32.6025 20.3697 32.5754 20.1932 32.7186L18.1473 34.3775C17.9708 34.5207 17.9438 34.7798 18.0869 34.9563Z" fill="#00BBC4"/>
<mask id="mask6_309_9213" style="mask-type:luminance" maskUnits="userSpaceOnUse" x="10" y="27" width="19" height="22">
<path d="M19.7011 27.2581L28.3246 31.9357L19.0941 48.8382L10.3082 43.9561L19.7011 27.2581Z" fill="white"/>
</mask>
<g mask="url(#mask6_309_9213)">
<path fill-rule="evenodd" clip-rule="evenodd" d="M3.22769 45.2835L24.7007 54.8516L35.5836 30.7981L14.1103 21.2299L3.22769 45.2835Z" fill="#00BBC4"/>
</g>
<mask id="mask7_309_9213" style="mask-type:luminance" maskUnits="userSpaceOnUse" x="11" y="28" width="16" height="20">
<path d="M20.0746 28.4729L26.9664 32.1871L18.5059 47.5788L11.4524 43.6877L20.0746 28.4729Z" fill="white"/>
</mask>
<g mask="url(#mask7_309_9213)">
<path fill-rule="evenodd" clip-rule="evenodd" d="M5.87292 44.0619L22.9541 51.6731L31.8216 32.0739L14.7404 24.4627L5.87292 44.0619Z" fill="#8AE7F2"/>
</g>
<circle cx="19.257" cy="37.8354" r="2.5645" transform="rotate(-128.759 19.257 37.8354)" fill="#00BBC4"/>
<path d="M15.8607 44.2688L16.0066 44.3462C16.2073 44.4528 16.4564 44.3764 16.5629 44.1757L17.7978 41.8491C17.9043 41.6484 17.828 41.3993 17.6273 41.2928L17.4814 41.2153C17.2806 41.1088 17.0315 41.1851 16.925 41.3859L15.6901 43.7124C15.5836 43.9132 15.6599 44.1622 15.8607 44.2688Z" fill="#00BBC4"/>
<path d="M20.8509 34.781L20.9968 34.8585C21.1975 34.965 21.4466 34.8887 21.5531 34.6879L22.788 32.3614C22.8946 32.1607 22.8182 31.9116 22.6175 31.805L22.4716 31.7276C22.2709 31.6211 22.0218 31.6974 21.9152 31.8981L20.6804 34.2247C20.5738 34.4254 20.6502 34.6745 20.8509 34.781Z" fill="#00BBC4"/>
<path fill-rule="evenodd" clip-rule="evenodd" d="M53.356 39.6107C53.356 39.6107 42.8582 40.1158 31.8007 37.4592C20.7433 34.8025 11.6066 29.582 11.6066 29.582L13.715 20.7169C14.0171 19.4509 15.2797 18.6708 16.539 18.9746L53.7281 27.91C54.9875 28.2136 55.7635 29.4828 55.4613 30.7488L53.3529 39.6139L53.356 39.6107Z" fill="#728FF7"/>
<path d="M36.2257 35.2354L28.7041 33.5827C28.0035 33.4288 27.2999 33.8261 27.1325 34.4702L26.2831 37.7387C26.1157 38.3828 26.5478 39.0298 27.2483 39.1837L34.77 40.8365C35.4706 40.9904 36.1742 40.593 36.3416 39.9489L37.1911 36.6804C37.3585 36.0362 36.9262 35.3893 36.2257 35.2354Z" fill="#8EB5EF"/>
</svg>
