<svg width="61" height="61" viewBox="0 0 61 61" fill="none" xmlns="http://www.w3.org/2000/svg">
<path fill-rule="evenodd" clip-rule="evenodd" d="M48.5366 23.3756C49.3236 24.9289 48.7652 26.8311 47.2933 27.6914L47.1752 27.7571C45.9117 28.4259 44.8954 31.9265 45.9908 35.3524C47.958 40.3937 49.4855 42.7774 49.4855 42.7774L49.6915 43.1193C49.8682 43.4062 50.0577 43.6979 50.2621 43.9945L50.5145 44.3527C51.6402 45.9151 60.0156 53.8757 62.2596 55.7206C58.8689 61.3687 53.4147 65.1758 48.0012 66.8018C44.2215 61.8639 31.0067 50.3293 25.2806 48.399C21.5209 47.4587 17.3196 47.2972 13.9128 47.5552L13.3368 47.6035C12.0121 47.7254 10.8258 47.9111 9.85701 48.1376C8.39665 48.4794 6.94166 47.546 6.60742 46.0535C6.28372 44.608 7.12979 43.1678 8.51006 42.7682C7.58943 42.5011 6.8361 41.7417 6.60742 40.7205C6.27317 39.228 7.1862 37.7411 8.64674 37.3995C9.04997 37.3052 9.50899 37.2178 10.0161 37.1392L10.0087 37.1071C9.67441 35.6145 10.5874 34.1275 12.048 33.7861C12.4772 33.6857 12.9701 33.5905 13.5174 33.5036C13.4735 32.2029 14.3356 31.0115 15.6232 30.7105L16.019 30.6224L16.3136 30.5616L16.6318 30.4998L17.1515 30.4058L17.525 30.3429L17.9191 30.2803L18.3331 30.2184L18.766 30.1576L19.217 30.0983L19.6853 30.0409L20.4182 29.9594L20.926 29.9086L21.4482 29.8612L21.9838 29.8176L22.532 29.7781L23.0921 29.7431L23.6631 29.7132L24.2443 29.6886C24.4396 29.6813 24.6365 29.675 24.8347 29.6698L25.4336 29.6572C25.5341 29.6556 25.6348 29.6543 25.7359 29.6533L26.3459 29.6508C32.9966 29.6698 39.1955 31.1838 39.1955 31.1838C39.2477 30.4342 39.3527 29.6929 39.5109 28.9683C40.2232 25.7051 41.9061 23.2249 44.2493 21.9845C45.8095 21.1586 47.7286 21.7815 48.5366 23.3756Z" fill="#FFC8E9"/>
<path fill-rule="evenodd" clip-rule="evenodd" d="M41.8656 41.523C42.6888 41.9563 43.3326 42.588 43.5881 43.2132C43.6277 43.3105 43.5827 43.4224 43.4875 43.4633C43.464 43.4733 43.4394 43.478 43.4153 43.478C43.3421 43.478 43.2727 43.4338 43.2426 43.3604C42.8227 42.3324 41.027 41.0581 38.747 41.3334C38.6458 41.3466 38.5513 41.2712 38.5393 41.1663C38.5269 41.0614 38.6003 40.9663 38.7028 40.9538C40.0995 40.7833 41.1938 41.1697 41.8656 41.523ZM24.3897 41.7849C24.4918 41.8012 24.5617 41.8989 24.5456 42.0033C24.5295 42.1076 24.4337 42.1791 24.3319 42.1626C23.4363 42.0195 22.5608 41.9129 21.7096 41.8371L21.0759 41.7859C19.7131 41.6871 18.4176 41.6659 17.2077 41.6982L16.6554 41.7168C16.4734 41.7242 16.2935 41.7328 16.1157 41.7425L15.5889 41.7747L15.0756 41.8129L14.576 41.8565L14.0905 41.9052L13.6197 41.9582L13.1638 42.0151L12.7233 42.0754C12.6512 42.0857 12.5797 42.0961 12.5089 42.1066L12.0922 42.1709L11.6919 42.2373L11.3084 42.3051L10.942 42.374L10.5932 42.4433L10.1039 42.5469L9.65644 42.6486L9.12719 42.778L8.67792 42.8965C8.66164 42.9008 8.64536 42.9029 8.62927 42.9029C8.54677 42.9029 8.47112 42.8466 8.44855 42.7611C8.4221 42.6591 8.48129 42.5541 8.58099 42.5269L9.01814 42.4111L9.49744 42.292L10.0177 42.1715L10.5779 42.0516L11.1768 41.9341L11.5971 41.858C11.6685 41.8455 11.7406 41.8331 11.8134 41.8208L12.2581 41.7486C12.3335 41.7368 12.4096 41.7252 12.4864 41.7137L12.9547 41.6466L13.4385 41.5836L13.9372 41.5253L14.4507 41.4722L14.9785 41.4249C15.0676 41.4175 15.1574 41.4104 15.2477 41.4035L15.7964 41.3659C18.2963 41.2123 21.2067 41.2762 24.3897 41.7849ZM26.2902 36.6748C26.3923 36.6911 26.4622 36.7888 26.4461 36.8932C26.43 36.9973 26.3337 37.0696 26.2325 37.0525C24.2847 36.7412 22.4249 36.5611 20.6895 36.4823L20.0447 36.4574C19.5123 36.4406 18.9925 36.4333 18.4864 36.4346L17.8858 36.4403C17.2919 36.45 16.7184 36.4716 16.1672 36.5035L15.6235 36.5388L15.0951 36.5807L14.5824 36.6287C13.9937 36.6882 13.4379 36.7597 12.9182 36.8406L12.4816 36.9122C12.4103 36.9245 12.3398 36.9369 12.2701 36.9496L11.8608 37.0275C11.7941 37.0408 11.7282 37.0542 11.6631 37.0678L11.282 37.1512C11.0344 37.2079 10.7997 37.2667 10.5785 37.3272C10.5622 37.3316 10.5459 37.3336 10.5298 37.3336C10.4473 37.3336 10.3717 37.2773 10.3491 37.1919C10.3226 37.0898 10.3818 36.9849 10.4815 36.9576L10.8275 36.8671L11.1935 36.7795C11.2561 36.7652 11.3196 36.751 11.3838 36.7369L11.7789 36.6543L12.1928 36.5755L12.6252 36.5008C12.993 36.4404 13.3796 36.3846 13.7839 36.3345L14.2773 36.277C14.361 36.2679 14.4453 36.259 14.5303 36.2504L15.0483 36.2017C15.136 36.1941 15.2243 36.1867 15.3133 36.1796L15.8549 36.1404C15.9464 36.1344 16.0386 36.1287 16.1314 36.1233L16.6956 36.0944L17.2743 36.0727L17.8672 36.0588C18.5669 36.0471 19.2945 36.0518 20.0468 36.0754L20.6978 36.1003C20.9167 36.1101 21.1376 36.1216 21.3604 36.1348L22.0343 36.1792C23.393 36.2783 24.8169 36.4393 26.2902 36.6748ZM29.8543 33.1705C29.9564 33.1867 30.0263 33.2845 30.0102 33.3888C29.9941 33.4932 29.8978 33.5654 29.7966 33.5482C27.8487 33.2368 25.9888 33.0566 24.2534 32.9778L23.6086 32.9529C22.8632 32.9293 22.1426 32.9245 21.4497 32.9358L20.8626 32.9494C20.4759 32.961 20.0985 32.9777 19.7311 32.999L19.1874 33.0343C19.098 33.0407 19.0093 33.0475 18.9212 33.0544L18.4007 33.0994C18.3152 33.1075 18.2304 33.1157 18.1463 33.1242L17.6498 33.1781C17.2429 33.2254 16.8533 33.2783 16.4821 33.3361L16.0455 33.4077C15.9742 33.42 15.9037 33.4325 15.834 33.4452L15.4247 33.523L15.0341 33.6047L14.6627 33.6897C14.4818 33.733 14.3083 33.7774 14.1424 33.8228C14.1261 33.8272 14.1098 33.8293 14.0937 33.8293C14.0112 33.8293 13.9356 33.7729 13.913 33.6875C13.8866 33.5854 13.9458 33.4805 14.0455 33.4533C14.3254 33.3767 14.6265 33.3029 14.9477 33.2326L15.3428 33.15C15.4102 33.1365 15.4785 33.1232 15.5475 33.1101L15.9707 33.0333C16.5472 32.9337 17.1723 32.8455 17.8414 32.7727L18.3513 32.721C18.4377 32.7128 18.5247 32.705 18.6124 32.6973L19.1462 32.6549C19.2365 32.6483 19.3274 32.6421 19.419 32.6361L19.9758 32.6036C21.1983 32.5409 22.5247 32.5284 23.935 32.5823L24.5919 32.612L25.2602 32.6514C26.7203 32.7477 28.2583 32.9153 29.8543 33.1705Z" fill="#003CE5"/>
<path fill-rule="evenodd" clip-rule="evenodd" d="M23.5462 13.1962L37.9379 15.2188C41.1895 15.6758 43.455 18.6822 42.998 21.9338L40.9754 36.3255C40.5184 39.5771 37.512 41.8425 34.2604 41.3856L19.8687 39.3629C16.6171 38.9059 14.3516 35.8996 14.8086 32.648L16.8312 18.2563C17.2882 15.0047 20.2946 12.7392 23.5462 13.1962Z" fill="#002DA0"/>
<path fill-rule="evenodd" clip-rule="evenodd" d="M23.1642 11.7829L38.8643 13.9894C41.7546 14.3956 43.7683 17.0679 43.3621 19.9582L41.1556 35.6583C40.7494 38.5486 38.0771 40.5623 35.1868 40.1561L19.4867 37.9496C16.5964 37.5434 14.5827 34.8711 14.9889 31.9808L17.1954 16.2807C17.6016 13.3904 20.2739 11.3767 23.1642 11.7829Z" fill="#0A47F0"/>
<path fill-rule="evenodd" clip-rule="evenodd" d="M30.484 17.589C35.2998 18.2762 38.6466 22.7372 37.9594 27.5529C37.2722 32.3686 32.8112 35.7155 27.9954 35.0282C23.1797 34.341 19.8329 29.88 20.5201 25.0643C21.2073 20.2486 25.6683 16.9018 30.484 17.589ZM30.2352 19.3329C26.3826 18.7831 22.8138 21.4606 22.2641 25.3132C21.7143 29.1658 24.3918 32.7346 28.2443 33.2843C32.0969 33.8341 35.6657 31.1566 36.2155 27.3041C36.7653 23.4515 34.0878 19.8827 30.2352 19.3329ZM28.742 29.7965C29.2242 29.8653 29.5583 30.3115 29.4896 30.7928C29.4208 31.275 28.9754 31.6092 28.4932 31.5404C28.011 31.4716 27.6768 31.0262 27.7456 30.544C27.8143 30.0627 28.2598 29.7276 28.742 29.7965ZM29.9864 21.0768C32.017 21.3666 33.2715 22.9954 33.0387 24.6264C32.8458 25.9784 32.1347 26.7237 31.0692 27.2261L30.898 27.3034C30.2432 27.5872 29.9413 27.8607 29.8774 28.0926L29.8664 28.1497C29.8127 28.6332 29.3773 28.9816 28.8938 28.928C28.4103 28.8743 28.0619 28.4389 28.1155 27.9554C28.2196 27.0179 28.8877 26.3032 29.9971 25.7779L30.1975 25.6871C30.8542 25.4025 31.1956 25.0726 31.2948 24.3776C31.3887 23.7197 30.8147 22.9745 29.7375 22.8208C28.7076 22.6738 28.0596 23.0898 27.8039 23.673C27.6086 24.1186 27.0891 24.3214 26.6436 24.1261C26.1981 23.9308 25.9952 23.4114 26.1905 22.9658C26.7473 21.6955 28.1251 20.8112 29.9864 21.0768Z" fill="white"/>
</svg>
