<svg width="60" height="60" viewBox="0 0 60 60" fill="none" xmlns="http://www.w3.org/2000/svg">
<path fill-rule="evenodd" clip-rule="evenodd" d="M49.7274 62.3354C36.1275 54.2976 33.4867 49.4351 33.172 37.8714C33.0526 36.16 32.6167 34.7765 31.2652 34.4804C29.8543 34.171 28.8026 34.6727 28.297 35.9522C28.1857 36.234 26.914 39.1641 27.7072 44.19C25.1958 42.6513 23.3794 40.4868 23.1789 36.686C26.5034 35.8933 27.8957 34.8933 28.3003 34.5411C28.3003 34.5411 30.4351 32.8454 28.8368 30.7816C28.6962 30.6242 28.5461 30.5041 28.3922 30.3998C29.2353 29.6658 29.6977 28.9331 29.838 28.7384C30.6453 27.6204 30.2948 26.0207 29.1069 25.2032C27.9175 24.3863 26.2397 24.5852 25.4309 25.7021C24.0043 27.6741 21.0398 31.12 19.1617 31.9691C18.8397 32.1154 18.5595 32.2762 18.298 32.4427C15.8136 32.9277 14.0397 34.5854 13.6025 36.888C13.1715 37.084 12.7602 37.3346 12.3788 37.6519C10.5486 39.1765 10.3604 41.1391 10.5663 42.6672C10.5733 42.7168 10.5798 42.7659 10.5878 42.8147C8.60983 46.0681 11.6947 52.5577 11.6947 52.5577C15.2083 59.9684 17.5188 63.5078 21.4144 69.2827C34.1474 74.314 44.0684 69.5401 44.0684 69.5401" fill="#FFC8E9"/>
<path fill-rule="evenodd" clip-rule="evenodd" d="M27.8792 44.0053C27.982 44.0332 28.0431 44.138 28.0159 44.2393L27.9182 44.6232L27.8018 45.1115L27.6814 45.649C27.4505 46.7158 27.2601 47.7983 27.1394 48.8298C27.0033 49.9918 26.9651 51.0148 27.0444 51.8495C27.0543 51.9542 26.9767 52.0461 26.8708 52.0548C26.765 52.0636 26.6712 51.9857 26.6613 51.8811C26.5791 51.0159 26.6182 49.9682 26.7572 48.782C26.8794 47.7372 27.0718 46.6433 27.3052 45.5656L27.4266 45.0227L27.5937 44.3314L27.644 44.1379C27.6711 44.0366 27.7765 43.9773 27.8792 44.0053Z" fill="#003CE5"/>
<path fill-rule="evenodd" clip-rule="evenodd" d="M14.2054 37.2497C14.6531 34.7304 16.6323 32.9261 19.3709 32.5415C23.8458 31.9125 25.3435 30.8321 25.3577 30.8212C25.2978 30.8657 25.2724 30.8921 25.2724 30.8921C25.2724 30.8921 27.7982 29.1397 29.3114 30.8718C30.8693 32.9334 28.748 34.659 28.748 34.659C28.2237 35.1244 25.7602 36.7694 19.8804 37.5967" fill="#FFC8E9"/>
<path fill-rule="evenodd" clip-rule="evenodd" d="M23.4257 36.7267C23.5252 36.7016 23.6278 36.7609 23.6548 36.8593C23.6817 36.9577 23.6229 37.0578 23.5234 37.083C22.4291 37.3597 21.2259 37.5939 19.9088 37.779C19.807 37.7934 19.7114 37.7234 19.6954 37.623C19.6794 37.5224 19.7491 37.4293 19.851 37.415C21.1549 37.2316 22.3448 37 23.4257 36.7267Z" fill="#003CE5"/>
<path fill-rule="evenodd" clip-rule="evenodd" d="M28.8422 30.2182C28.93 30.2726 28.9573 30.3863 28.9033 30.4719C28.8492 30.5577 28.7343 30.583 28.6465 30.5286C27.8781 30.052 27.1656 30.1145 26.2198 30.5853L25.9922 30.7039L25.188 31.149L24.8853 31.31L24.5891 31.4591C24.0001 31.7459 23.423 31.9669 22.7073 32.1543L22.3371 32.2454C22.2732 32.2601 22.2083 32.2747 22.1421 32.2891L21.7293 32.3733C21.5865 32.4008 21.4378 32.4278 21.283 32.4542L20.7989 32.5326L20.2729 32.6095L19.7006 32.6856C19.6011 32.6982 19.4996 32.7109 19.3959 32.7237C19.2937 32.7361 19.1995 32.6645 19.1854 32.5637C19.1712 32.4629 19.2425 32.3711 19.3447 32.3586L19.9324 32.2838L20.4719 32.2089L20.9673 32.1332L21.4229 32.0555L21.8428 31.9752C22.3809 31.8658 22.8349 31.7469 23.2498 31.609L23.5544 31.5017C23.6042 31.4832 23.6535 31.4643 23.7025 31.4452L23.9928 31.3255C24.0408 31.3048 24.0885 31.2837 24.1362 31.2621L24.4219 31.128L24.7096 30.9832C24.7579 30.958 24.8066 30.9325 24.8555 30.9064L25.2813 30.6748L25.8693 30.3482C27.0064 29.7434 27.8881 29.6264 28.8422 30.2182Z" fill="#003CE5"/>
<path fill-rule="evenodd" clip-rule="evenodd" d="M21.8865 46.2462C22.4453 46.2942 23.2544 46.5514 24.0825 45.9572C25.2178 45.1416 25.6224 43.6609 24.7486 42.4613C24.1278 41.6091 20.9726 37.241 17.1851 36.7178C15.6413 36.505 14.1987 36.9261 13.0151 37.9349L15.462 43.5143L21.8865 46.2462Z" fill="#FFC8E9"/>
<path fill-rule="evenodd" clip-rule="evenodd" d="M17.2095 36.5352C17.8997 36.6306 18.5924 36.8522 19.2854 37.188C20.6481 37.8482 21.9542 38.9139 23.1826 40.2441C23.5742 40.6681 23.9384 41.0983 24.2802 41.532L24.5859 41.9281L24.7862 42.1981C24.8222 42.2471 24.8601 42.299 24.9008 42.3549C25.8092 43.6021 25.4882 45.124 24.1987 46.103C23.4528 46.6689 22.5766 46.715 21.8202 46.4161C21.724 46.3781 21.6763 46.2711 21.7135 46.1769C21.7508 46.0827 21.8588 46.0371 21.9549 46.0751C22.5974 46.329 23.3361 46.29 23.9682 45.8104C25.1077 44.9454 25.3824 43.6428 24.5985 42.5664L24.3832 42.273L24.193 42.0203L23.9866 41.7548C23.6506 41.3286 23.2927 40.9057 22.9081 40.4895C21.7091 39.1912 20.4378 38.1538 19.1245 37.5176C18.466 37.1985 17.8112 36.989 17.1629 36.8994C16.3021 36.7812 15.4733 36.8659 14.7033 37.1492C14.6071 37.1846 14.499 37.1361 14.4617 37.0409C14.4244 36.9458 14.4721 36.8399 14.5683 36.8045C15.3966 36.4998 16.2878 36.4085 17.2095 36.5352Z" fill="#003CE5"/>
<path fill-rule="evenodd" clip-rule="evenodd" d="M11.2889 42.9857C11.9341 42.0019 12.9413 41.4208 14.1254 41.3499C16.9657 41.1788 20.2079 44.3438 21.8865 46.2464C22.823 47.3061 22.7193 48.8984 21.6557 49.802C20.5922 50.705 19.2792 50.666 18.0354 49.519C17.2258 48.6579 16.2714 47.6988 15.7645 47.3368C15.2575 46.9752 14.4354 47.5668 14.9155 48.2594" fill="#FFC8E9"/>
<path fill-rule="evenodd" clip-rule="evenodd" d="M14.1111 41.1663C16.5347 41.0205 19.3214 43.0624 22.027 46.1269C23.0313 47.2639 22.9201 48.9727 21.7786 49.9419C20.6557 50.896 19.291 50.8424 18.0463 49.7749L17.9135 49.6566C17.6446 49.4252 17.3713 49.1725 17.0776 48.8868L15.8845 47.6958L15.6902 47.5095C15.2926 47.1529 14.7271 47.6641 15.0691 48.1571C15.1276 48.2416 15.1062 48.3558 15.0214 48.4122C14.9363 48.4687 14.8202 48.4461 14.7616 48.3617C14.1738 47.5137 15.2056 46.5811 15.9393 47.2391L16.1395 47.4308L17.3382 48.627C17.5545 48.8374 17.7591 49.0294 17.9609 49.2093L18.1618 49.3856C19.3105 50.4453 20.518 50.5239 21.5325 49.6619C22.5187 48.8247 22.6146 47.3485 21.7466 46.3661C19.118 43.3885 16.4005 41.3973 14.1391 41.5333C13.045 41.5991 12.1118 42.1213 11.4972 43.0113C11.4396 43.0948 11.3236 43.1154 11.2381 43.0575C11.1526 42.9995 11.13 42.885 11.1875 42.8016C11.8659 41.8191 12.9029 41.2389 14.1111 41.1663Z" fill="#003CE5"/>
<path fill-rule="evenodd" clip-rule="evenodd" d="M41.9714 44.7532C41.98 44.6605 42.0339 43.8323 41.1516 43.7384C41.0031 43.7226 40.8956 43.5893 40.9114 43.4408C40.9272 43.2924 41.0604 43.1844 41.2089 43.2002C42.0902 43.294 42.2126 42.4752 42.224 42.3799C42.2402 42.232 42.373 42.1248 42.5213 42.1406C42.6685 42.1562 42.7752 42.2869 42.7622 42.4334L42.7619 42.4364C42.7527 42.5326 42.7 43.3589 43.5811 43.4526C43.7296 43.4684 43.8375 43.6021 43.8217 43.7505C43.8059 43.899 43.6723 44.0067 43.5238 43.9909C42.6328 43.8961 42.5192 44.7166 42.5092 44.8104C42.4934 44.9589 42.3601 45.0666 42.2116 45.0508C42.0631 45.035 41.9556 44.9017 41.9714 44.7532Z" fill="#F4F9FF"/>
<path fill-rule="evenodd" clip-rule="evenodd" d="M43.9707 19.3697C43.9758 19.3144 44.008 18.8204 43.4817 18.7644C43.3931 18.7549 43.329 18.6754 43.3384 18.5869C43.3478 18.4983 43.4273 18.4339 43.5158 18.4433C44.0416 18.4992 44.1145 18.0108 44.1214 17.954C44.1311 17.8658 44.2103 17.8018 44.2987 17.8112C44.3865 17.8206 44.4502 17.8985 44.4424 17.9859L44.4422 17.9877C44.4367 18.0451 44.4053 18.5379 44.9308 18.5939C45.0194 18.6033 45.0838 18.683 45.0744 18.7716C45.065 18.8602 44.9853 18.9244 44.8967 18.915C44.3652 18.8584 44.2975 19.3478 44.2915 19.4038C44.2821 19.4924 44.2025 19.5566 44.114 19.5472C44.0254 19.5378 43.9613 19.4582 43.9707 19.3697Z" fill="#F4F9FF"/>
<path fill-rule="evenodd" clip-rule="evenodd" d="M14.1043 26.8365C14.1094 26.7812 14.1415 26.2872 13.6152 26.2312C13.5266 26.2218 13.4625 26.1423 13.472 26.0537C13.4814 25.9651 13.5608 25.9007 13.6494 25.9102C14.1751 25.9661 14.2481 25.4777 14.2549 25.4209C14.2646 25.3326 14.3438 25.2687 14.4322 25.2781C14.5201 25.2874 14.5837 25.3654 14.5759 25.4527L14.5757 25.4546C14.5703 25.512 14.5388 26.0048 15.0644 26.0607C15.153 26.0702 15.2173 26.1499 15.2079 26.2384C15.1985 26.327 15.1188 26.3912 15.0302 26.3818C14.4987 26.3253 14.431 26.8147 14.4251 26.8707C14.4156 26.9592 14.3361 27.0235 14.2475 27.014C14.1589 27.0046 14.0948 26.9251 14.1043 26.8365Z" fill="#F4F9FF"/>
<path d="M48.0136 21.7352C48.0136 21.7352 47.9866 21.7275 47.9751 21.7236C47.9635 21.7236 47.9481 21.716 47.9365 21.7121C47.925 21.7083 47.9095 21.7044 47.898 21.7006C47.8864 21.7006 47.871 21.6929 47.8594 21.6891C47.8479 21.6852 47.8325 21.6814 47.8209 21.6775C47.8093 21.6737 47.7939 21.6699 47.7824 21.666C47.7708 21.666 47.7554 21.6583 47.7438 21.6545C47.7323 21.6545 47.7168 21.6468 47.7053 21.643C47.6937 21.643 47.6783 21.6353 47.6667 21.6314C47.6552 21.6276 47.6398 21.6238 47.6282 21.6199C47.6166 21.6199 47.6012 21.6122 47.5897 21.6084C47.5781 21.6084 47.5627 21.6007 47.5511 21.5969C47.5396 21.593 47.5242 21.5892 47.5126 21.5853C47.501 21.5853 47.4856 21.5777 47.4741 21.5738C47.4625 21.5738 47.4471 21.5661 47.4355 21.5623C47.4239 21.5584 47.4085 21.5546 47.397 21.5508C47.3854 21.5508 47.37 21.5431 47.3584 21.5392C47.3469 21.5392 47.3315 21.5316 47.3199 21.5277C47.3083 21.5277 47.2929 21.52 47.2814 21.5162C47.2698 21.5162 47.2544 21.5085 47.2428 21.5047C47.2313 21.5047 47.2158 21.497 47.2043 21.4931C47.1927 21.4893 47.1773 21.4855 47.1657 21.4816C47.1542 21.4778 47.1388 21.4739 47.1272 21.4701C47.1156 21.4662 47.1002 21.4624 47.0887 21.4586C47.0771 21.4547 47.0617 21.4509 47.0501 21.447C47.0386 21.447 47.0231 21.4394 47.0116 21.4355C47 21.4355 46.9846 21.4278 46.973 21.424C46.9615 21.424 46.9461 21.4163 46.9345 21.4125C46.9229 21.4086 46.9075 21.4048 46.896 21.4009C46.8844 21.4009 46.869 21.3933 46.8574 21.3894C46.8459 21.3894 46.8304 21.3817 46.8189 21.3779C46.8073 21.3779 46.7919 21.3702 46.7803 21.3664C46.7688 21.3664 46.7534 21.3587 46.7418 21.3548C46.7302 21.351 46.7148 21.3471 46.7033 21.3433C46.6917 21.3433 46.6763 21.3356 46.6647 21.3318C46.6532 21.3318 46.6377 21.3241 46.6262 21.3203C46.6146 21.3203 46.5992 21.3126 46.5876 21.3087C46.5761 21.3087 46.5607 21.301 46.5491 21.2972C46.5375 21.2972 46.5221 21.2895 46.5106 21.2857C46.499 21.2818 46.4836 21.278 46.472 21.2742L46.4335 21.2626C46.4335 21.2626 46.4065 21.2549 46.395 21.2511C46.3834 21.2473 46.368 21.2434 46.3564 21.2396C46.3449 21.2396 46.3294 21.2319 46.3179 21.2281C46.3063 21.2281 46.2909 21.2204 46.2793 21.2165C46.2678 21.2165 46.2524 21.2088 46.2408 21.205L46.2023 21.1935C46.2023 21.1935 46.1753 21.1858 46.1637 21.182C46.1522 21.182 46.1367 21.1743 46.1252 21.1704C46.1136 21.1666 46.0982 21.1627 46.0866 21.1589C45.3351 20.9399 44.4449 20.817 43.3927 20.7978C42.0092 20.7709 40.8954 20.9245 40.0052 21.2665L46.3102 10.6208C46.6763 10.0023 46.3294 9.24158 45.682 9.06102C45.6704 9.05718 45.655 9.05333 45.6434 9.04949C45.6319 9.04565 45.6165 9.04181 45.6049 9.03797C45.5933 9.03412 45.5779 9.03028 45.5664 9.02644C45.5548 9.0226 45.5394 9.01876 45.5278 9.01492C45.5163 9.01107 45.5008 9.00723 45.4893 9.00339C45.4777 8.99955 45.4623 8.99571 45.4507 8.99186C45.4392 8.98802 45.4238 8.98418 45.4122 8.98034C45.4006 8.9765 45.3852 8.97266 45.3737 8.96881C45.3621 8.96497 45.3467 8.96113 45.3351 8.95729C45.3236 8.95729 45.3081 8.9496 45.2966 8.94576C45.285 8.94192 45.2696 8.93808 45.258 8.93424C45.2465 8.9304 45.2311 8.92655 45.2195 8.92271C45.2079 8.91887 45.1925 8.91503 45.181 8.91119C45.1694 8.90734 45.154 8.9035 45.1424 8.89966C45.1309 8.89582 45.1155 8.89198 45.1039 8.88814C45.0923 8.88429 45.0769 8.88045 45.0654 8.87661C45.0538 8.87277 45.0384 8.86893 45.0268 8.86508C45.0152 8.86124 44.9998 8.8574 44.9883 8.85356C44.9767 8.84972 44.9613 8.84588 44.9497 8.84203C44.9382 8.83819 44.9228 8.83435 44.9112 8.83051C44.8996 8.82667 44.8842 8.82282 44.8727 8.81898C44.8611 8.81514 44.8457 8.8113 44.8341 8.80746C44.8226 8.80362 44.8071 8.79977 44.7956 8.79593C44.784 8.79209 44.7686 8.78825 44.757 8.78441C44.7455 8.78056 44.7301 8.77672 44.7185 8.77288C44.7069 8.76904 44.6915 8.7652 44.68 8.76136C44.6684 8.76136 44.653 8.75367 44.6414 8.74983C44.6299 8.74599 44.6144 8.74215 44.6029 8.7383C44.5913 8.73446 44.5759 8.73062 44.5643 8.72678C44.5528 8.72294 44.5374 8.7191 44.5258 8.71525C44.5142 8.71141 44.4988 8.70757 44.4873 8.70373C44.4757 8.69989 44.4603 8.69604 44.4487 8.6922C44.4372 8.68836 44.4217 8.68452 44.4102 8.68068C44.3986 8.67684 44.3832 8.67299 44.3716 8.66915C44.3601 8.66531 44.3447 8.66147 44.3331 8.65763C44.3215 8.65378 44.3061 8.64994 44.2946 8.6461C44.283 8.6461 44.2676 8.63842 44.256 8.63458C44.2445 8.63073 44.229 8.62689 44.2175 8.62305C44.2059 8.61921 44.1905 8.61537 44.1789 8.61152C44.1674 8.60768 44.152 8.60384 44.1404 8.6C44.1288 8.59616 44.1134 8.59232 44.1019 8.58847C44.0903 8.58463 44.0749 8.58079 44.0633 8.57695C44.0518 8.57311 44.0364 8.56926 44.0248 8.56542C44.0132 8.56158 43.9978 8.55774 43.9863 8.5539C43.9747 8.55006 43.9593 8.54621 43.9477 8.54237C43.9362 8.53853 43.9207 8.53469 43.9092 8.53085C43.8976 8.527 43.8822 8.52316 43.8706 8.51932C43.8591 8.51548 43.8437 8.51164 43.8321 8.5078C43.8205 8.50395 43.8051 8.50011 43.7936 8.49627C43.782 8.49243 43.7666 8.48859 43.755 8.48474C43.6587 8.45401 43.5585 8.4348 43.4467 8.43096L39.9859 8.38486C39.6005 8.37717 39.2421 8.57695 39.0455 8.90734L32.2896 20.3099C32.3667 19.5684 32.4129 18.7693 32.4322 17.8934C32.5286 13.1602 31.831 10.3749 28.5783 9.44136C28.5667 9.44136 28.5513 9.43367 28.5398 9.42983C28.5282 9.42599 28.5128 9.42215 28.5012 9.41831C28.4897 9.41831 28.4742 9.41062 28.4627 9.40678C28.4511 9.40678 28.4357 9.3991 28.4241 9.39526C28.4126 9.39526 28.3972 9.38757 28.3856 9.38373C28.374 9.38373 28.3586 9.37605 28.3471 9.3722C28.3355 9.36836 28.3201 9.36452 28.3085 9.36068C28.297 9.36068 28.2815 9.353 28.27 9.34915C28.2584 9.34531 28.243 9.34147 28.2314 9.33763C28.2199 9.33763 28.2045 9.32994 28.1929 9.3261C28.1813 9.3261 28.1698 9.31842 28.1544 9.31458C28.1428 9.31458 28.1274 9.30689 28.1158 9.30305L28.0773 9.29153C28.0773 9.29153 28.0503 9.28384 28.0387 9.28C28.0272 9.28 28.0118 9.27232 28.0002 9.26848C27.9886 9.26848 27.9732 9.26079 27.9617 9.25695C27.9501 9.25695 27.9347 9.24927 27.9231 9.24542C27.9116 9.24542 27.8961 9.23774 27.8846 9.2339C27.873 9.2339 27.8576 9.22622 27.846 9.22237C27.8345 9.22237 27.8191 9.21469 27.8075 9.21085L27.769 9.19932C27.769 9.19932 27.742 9.19164 27.7304 9.1878C27.7189 9.1878 27.7035 9.18011 27.6919 9.17627C27.6803 9.17627 27.6649 9.16859 27.6533 9.16475C27.6418 9.16475 27.6264 9.15706 27.6148 9.15322C27.6032 9.14938 27.5878 9.14554 27.5763 9.1417C27.5647 9.1417 27.5493 9.13401 27.5377 9.13017C27.5262 9.12633 27.5108 9.12249 27.4992 9.11864C27.4876 9.11864 27.4722 9.11096 27.4607 9.10712C27.4491 9.10712 27.4337 9.09944 27.4221 9.09559C27.4106 9.09559 27.3951 9.08791 27.3836 9.08407C27.372 9.08407 27.3605 9.07638 27.345 9.07254C27.3335 9.07254 27.3181 9.06486 27.3065 9.06102C27.2949 9.06102 27.2795 9.05333 27.268 9.04949C27.2564 9.04949 27.241 9.04181 27.2294 9.03797C27.2179 9.03797 27.2024 9.03028 27.1909 9.02644C27.1793 9.02644 27.1639 9.01876 27.1523 9.01492C27.1408 9.01492 27.1254 9.00723 27.1138 9.00339C27.1022 9.00339 27.0868 8.99571 27.0753 8.99186C27.0637 8.99186 27.0483 8.98418 27.0367 8.98034C27.0252 8.98034 27.0097 8.97266 26.9982 8.96881C26.9866 8.96881 26.9712 8.96113 26.9596 8.95729C26.9481 8.95345 26.9327 8.9496 26.9211 8.94576C26.9095 8.94576 26.8941 8.93808 26.8826 8.93424C26.871 8.93424 26.8556 8.92655 26.844 8.92271C26.8325 8.91887 26.8171 8.91503 26.8055 8.91119C26.7939 8.90734 26.7785 8.9035 26.7669 8.89966C26.7554 8.89966 26.7438 8.89198 26.7284 8.88814C26.713 8.88429 26.7014 8.88045 26.6899 8.87661C26.6783 8.87277 26.6629 8.86893 26.6513 8.86508C25.8998 8.6461 25.0096 8.52316 23.9613 8.50395C18.4271 8.40407 17.2362 11.2393 17.1206 17.052C17.0242 21.7736 17.7218 24.5589 20.9822 25.4925C20.9938 25.4963 21.0092 25.5002 21.0208 25.504C21.0323 25.5078 21.0477 25.5117 21.0593 25.5155C21.0709 25.5155 21.0824 25.5232 21.0978 25.527C21.1094 25.5309 21.1248 25.5347 21.1364 25.5386C21.1479 25.5386 21.1634 25.5463 21.1749 25.5501C21.1865 25.5501 21.2019 25.5578 21.2135 25.5616C21.225 25.5616 21.2404 25.5693 21.252 25.5731C21.2636 25.5731 21.2751 25.5808 21.2905 25.5847C21.3059 25.5885 21.3175 25.5924 21.3291 25.5962C21.3406 25.6 21.356 25.6039 21.3676 25.6077C21.3792 25.6077 21.3946 25.6154 21.4061 25.6193C21.4177 25.6193 21.4331 25.6269 21.4447 25.6308C21.4563 25.6346 21.4717 25.6385 21.4832 25.6423C21.4948 25.6423 21.5064 25.65 21.5218 25.6538C21.5372 25.6577 21.5487 25.6615 21.5603 25.6654C21.5719 25.6692 21.5873 25.673 21.5988 25.6769C21.6104 25.6769 21.6258 25.6846 21.6374 25.6884C21.6489 25.6884 21.6644 25.6961 21.6759 25.6999C21.6875 25.6999 21.7029 25.7076 21.7145 25.7115C21.726 25.7153 21.7414 25.7191 21.753 25.723C21.7646 25.723 21.78 25.7307 21.7915 25.7345C21.8031 25.7345 21.8185 25.7422 21.8301 25.746C21.8416 25.746 21.8571 25.7537 21.8686 25.7576C21.8802 25.7576 21.8917 25.7652 21.9072 25.7691C21.9187 25.7729 21.9341 25.7768 21.9457 25.7806C21.9573 25.7806 21.9727 25.7883 21.9842 25.7921C21.9958 25.7921 22.0112 25.7998 22.0228 25.8037C22.0343 25.8037 22.0498 25.8113 22.0613 25.8152C22.0729 25.8152 22.0883 25.8229 22.0999 25.8267C22.1114 25.8267 22.1268 25.8344 22.1384 25.8382C22.15 25.8421 22.1654 25.8459 22.1769 25.8498C22.1885 25.8536 22.2039 25.8574 22.2155 25.8613C22.227 25.8613 22.2424 25.869 22.254 25.8728C22.2656 25.8728 22.281 25.8805 22.2925 25.8843C22.3041 25.8843 22.3195 25.892 22.3311 25.8959C22.3427 25.8959 22.3581 25.9035 22.3696 25.9074C22.3812 25.9112 22.3966 25.9151 22.4082 25.9189C22.4197 25.9189 22.4351 25.9266 22.4467 25.9304C22.4583 25.9304 22.4737 25.9381 22.4852 25.942C22.4968 25.942 22.5122 25.9496 22.5238 25.9535C22.5353 25.9535 22.5508 25.9612 22.5623 25.965C22.5739 25.965 22.5893 25.9727 22.6009 25.9765C22.6124 25.9765 22.6278 25.9842 22.6394 25.9881C22.651 25.9919 22.6664 25.9957 22.6779 25.9996C22.6895 26.0034 22.7011 26.0073 22.7165 26.0111C22.728 26.0111 22.7435 26.0188 22.755 26.0226C22.7666 26.0265 22.782 26.0303 22.7936 26.0342C22.8051 26.0342 22.8205 26.0419 22.8321 26.0457C22.8437 26.0457 22.8591 26.0534 22.8706 26.0572C22.8822 26.0572 22.8976 26.0649 22.9092 26.0687C23.6607 26.2877 24.5509 26.4107 25.6031 26.4299C26.9751 26.4568 28.0811 26.3031 28.9675 25.9689L22.6625 36.6145C22.2964 37.2331 22.6433 37.9937 23.2907 38.1743C23.3023 38.1782 23.3177 38.182 23.3293 38.1858C23.3408 38.1897 23.3562 38.1935 23.3678 38.1974C23.3794 38.2012 23.3948 38.205 23.4063 38.2089C23.4179 38.2127 23.4333 38.2166 23.4449 38.2204C23.4564 38.2243 23.4718 38.2281 23.4834 38.2319C23.495 38.2358 23.5104 38.2396 23.522 38.2435C23.5335 38.2473 23.5489 38.2511 23.5605 38.255C23.5721 38.2588 23.5875 38.2627 23.599 38.2665C23.6106 38.2704 23.626 38.2742 23.6376 38.278C23.6491 38.2819 23.6645 38.2857 23.6761 38.2896C23.6877 38.2934 23.7031 38.2972 23.7146 38.3011C23.7262 38.3049 23.7416 38.3088 23.7532 38.3126C23.7647 38.3165 23.7802 38.3203 23.7917 38.3241C23.8033 38.328 23.8187 38.3318 23.8303 38.3357C23.8418 38.3395 23.8572 38.3433 23.8688 38.3472C23.8804 38.351 23.8958 38.3549 23.9073 38.3587C23.9189 38.3626 23.9343 38.3664 23.9459 38.3702C23.9574 38.3741 23.9729 38.3779 23.9844 38.3818C23.996 38.3856 24.0114 38.3895 24.023 38.3933C24.0345 38.3971 24.0499 38.401 24.0615 38.4048C24.0731 38.4087 24.0885 38.4125 24.1 38.4163C24.1116 38.4202 24.127 38.424 24.1386 38.4279C24.1501 38.4279 24.1656 38.4356 24.1771 38.4394C24.1887 38.4432 24.2041 38.4471 24.2157 38.4509C24.2272 38.4548 24.2426 38.4586 24.2542 38.4624C24.2658 38.4663 24.2812 38.4701 24.2927 38.474C24.3043 38.4778 24.3197 38.4817 24.3313 38.4855C24.3428 38.4893 24.3582 38.4932 24.3698 38.497C24.3814 38.5009 24.3968 38.5047 24.4084 38.5085C24.4199 38.5124 24.4353 38.5162 24.4469 38.5201C24.4585 38.5239 24.4739 38.5278 24.4854 38.5316C24.497 38.5354 24.5124 38.5393 24.524 38.5431C24.5355 38.547 24.5509 38.5508 24.5625 38.5546C24.5741 38.5585 24.5895 38.5623 24.601 38.5662C24.6126 38.57 24.628 38.5739 24.6396 38.5777C24.6511 38.5815 24.6666 38.5854 24.6781 38.5892C24.6897 38.5931 24.7051 38.5969 24.7167 38.6008C24.7282 38.6046 24.7436 38.6084 24.7552 38.6123C24.7668 38.6161 24.7822 38.62 24.7937 38.6238C24.8053 38.6276 24.8207 38.6315 24.8323 38.6353C24.8438 38.6392 24.8593 38.643 24.8708 38.6469C24.8824 38.6507 24.8978 38.6545 24.9094 38.6584C24.9209 38.6622 24.9363 38.6661 24.9479 38.6699C24.9595 38.6737 24.9749 38.6776 24.9864 38.6814C24.998 38.6853 25.0134 38.6891 25.025 38.693C25.0365 38.6968 25.052 38.7006 25.0635 38.7045C25.0751 38.7083 25.0905 38.7122 25.1021 38.716C25.1136 38.7198 25.129 38.7237 25.1406 38.7275C25.1522 38.7314 25.1676 38.7352 25.1791 38.7391C25.1907 38.7429 25.2061 38.7467 25.2177 38.7506C25.314 38.7813 25.4142 38.8005 25.526 38.8044L29.0369 38.8735C29.4223 38.8812 29.7807 38.6814 29.9773 38.351L36.7602 26.9024C36.6792 27.6593 36.6291 28.4737 36.6137 29.3727C36.5174 34.0943 37.2149 36.8796 40.4676 37.8132C40.4792 37.8132 40.4946 37.8209 40.5062 37.8247C40.5177 37.8247 40.5331 37.8324 40.5447 37.8362C40.5563 37.8401 40.5717 37.8439 40.5832 37.8478C40.5948 37.8478 40.6102 37.8554 40.6218 37.8593C40.6333 37.8593 40.6488 37.867 40.6603 37.8708C40.6719 37.8708 40.6873 37.8785 40.6989 37.8823C40.7104 37.8862 40.7258 37.89 40.7374 37.8939C40.749 37.8977 40.7644 37.9015 40.7759 37.9054C40.7875 37.9054 40.8029 37.9131 40.8145 37.9169C40.826 37.9207 40.8415 37.9246 40.853 37.9284C40.8646 37.9284 40.88 37.9361 40.8916 37.94C40.9031 37.9438 40.9185 37.9476 40.9301 37.9515C40.9417 37.9553 40.9571 37.9592 40.9686 37.963C40.9802 37.963 40.9956 37.9707 41.0072 37.9745C41.0187 37.9745 41.0342 37.9822 41.0457 37.9861C41.0573 37.9861 41.0727 37.9937 41.0843 37.9976C41.0958 37.9976 41.1112 38.0053 41.1228 38.0091C41.1344 38.0091 41.1498 38.0168 41.1613 38.0206C41.1729 38.0206 41.1883 38.0283 41.1999 38.0322C41.2114 38.036 41.2269 38.0398 41.2384 38.0437C41.25 38.0437 41.2654 38.0514 41.277 38.0552C41.2885 38.0552 41.3039 38.0629 41.3155 38.0667C41.3271 38.0667 41.3425 38.0744 41.354 38.0783C41.3656 38.0821 41.381 38.0859 41.3926 38.0898L41.4311 38.1013C41.4311 38.1013 41.4581 38.109 41.4696 38.1128C41.4812 38.1167 41.4966 38.1205 41.5082 38.1244C41.5197 38.1244 41.5352 38.132 41.5467 38.1359C41.5583 38.1359 41.5737 38.1436 41.5853 38.1474C41.5968 38.1474 41.6122 38.1551 41.6238 38.1589C41.6354 38.1628 41.6508 38.1666 41.6623 38.1705C41.6739 38.1705 41.6893 38.1782 41.7009 38.182C41.7124 38.182 41.7279 38.1897 41.7394 38.1935C41.751 38.1974 41.7664 38.2012 41.778 38.205C41.7895 38.205 41.8049 38.2127 41.8165 38.2166C41.8281 38.2166 41.8435 38.2243 41.855 38.2281C41.8666 38.2319 41.882 38.2358 41.8936 38.2396C41.9051 38.2396 41.9206 38.2473 41.9321 38.2511C41.9437 38.255 41.9591 38.2588 41.9707 38.2627C41.9822 38.2627 41.9976 38.2704 42.0092 38.2742C42.0208 38.2742 42.0362 38.2819 42.0477 38.2857C42.0593 38.2857 42.0747 38.2934 42.0863 38.2972C42.0978 38.3011 42.1132 38.3049 42.1248 38.3088C42.1364 38.3126 42.1518 38.3165 42.1633 38.3203C42.1749 38.3203 42.1903 38.328 42.2019 38.3318C42.2135 38.3318 42.2289 38.3395 42.2404 38.3434C42.252 38.3434 42.2674 38.351 42.279 38.3549L42.3175 38.3664C42.3175 38.3664 42.3445 38.3741 42.356 38.3779C42.3676 38.3779 42.383 38.3856 42.3946 38.3895C43.1461 38.6084 44.0364 38.7314 45.0846 38.7506C50.642 38.862 51.8328 36.0267 51.9484 30.2256C52.0448 25.4925 51.3472 22.7072 48.0868 21.7736L48.0136 21.7352ZM25.5414 17.221C25.4913 19.6606 25.4451 21.3702 24.4045 21.8274C23.9574 21.0283 23.9844 19.5914 24.0191 17.7243C24.0692 15.2924 24.1155 13.5713 25.1445 13.0988C25.5915 13.9055 25.5761 15.3539 25.5375 17.2172L25.5414 17.221ZM44.9729 29.5149C44.9228 31.9544 44.8842 33.664 43.8398 34.1212C43.3928 33.3221 43.412 31.8853 43.4506 30.0181C43.5007 27.5747 43.5469 25.8536 44.5836 25.3887C45.0307 26.1917 45.0114 27.64 44.9729 29.511V29.5149Z" fill="#005CFF"/>
<path d="M25.9246 9.13354C20.3691 9.02181 19.1786 11.8651 19.063 17.6942C18.9474 23.5117 20.0223 26.3974 25.5817 26.5091C31.1257 26.6208 32.3162 23.7775 32.4318 17.96C32.5474 12.1309 31.4725 9.24141 25.9285 9.13354H25.9246ZM25.6549 22.6102C23.9251 22.5755 23.9597 20.6954 24.0175 17.7943C24.0753 14.8933 24.1254 12.9862 25.8437 13.0209C27.5504 13.0556 27.5389 14.9626 27.4811 17.8637C27.4233 20.7648 27.3732 22.6449 25.6549 22.614V22.6102Z" fill="#80DAFC"/>
<path d="M28.9874 38.9772L25.4776 38.9078C24.6608 38.8924 24.1677 38.0024 24.5799 37.3013L40.9807 9.52735C41.1772 9.19602 41.5355 8.99568 41.9208 9.00339L45.4306 9.07274C46.2473 9.08815 46.7405 9.97811 46.3283 10.6793L29.9274 38.4532C29.7309 38.7845 29.3726 38.9849 28.9874 38.9772Z" fill="#80DAFC"/>
<path d="M45.3491 21.4623C39.8051 21.3505 38.6146 24.1938 38.499 30.0229C38.3835 35.8404 39.4584 38.7261 45.0024 38.8378C50.5579 38.9495 51.7484 36.1063 51.864 30.2887C51.9795 24.4597 50.9046 21.5701 45.3491 21.4623ZM45.0794 34.9389C43.3611 34.9042 43.3842 33.0241 43.442 30.1231C43.4998 27.2066 43.5499 25.3149 45.2682 25.3496C46.9865 25.3843 46.9634 27.276 46.9056 30.1924C46.8478 33.0935 46.8093 34.9774 45.0794 34.9428V34.9389Z" fill="#80DAFC"/>
<path fill-rule="evenodd" clip-rule="evenodd" d="M14.2052 37.2495C14.6528 34.7302 16.632 32.9259 19.3707 32.5413C23.8456 31.9124 25.3432 30.8319 25.3575 30.8211C25.2975 30.8655 25.2722 30.8919 25.2722 30.8919C25.2722 30.8919 27.798 29.1396 29.3111 30.8717C30.869 32.9332 28.7478 34.6588 28.7478 34.6588C28.2234 35.1242 25.7599 36.7692 19.8801 37.5965" fill="#FFC8E9"/>
<path fill-rule="evenodd" clip-rule="evenodd" d="M23.426 36.7265C23.5255 36.7013 23.6281 36.7606 23.655 36.859C23.6819 36.9575 23.6231 37.0576 23.5236 37.0827C22.4294 37.3594 21.2262 37.5936 19.909 37.7788C19.8072 37.7932 19.7117 37.7232 19.6956 37.6227C19.6797 37.5221 19.7493 37.429 19.8512 37.4148C21.1551 37.2314 22.345 36.9998 23.426 36.7265Z" fill="#003CE5"/>
<path fill-rule="evenodd" clip-rule="evenodd" d="M28.8422 30.218C28.93 30.2724 28.9573 30.3861 28.9033 30.4717C28.8492 30.5575 28.7343 30.5828 28.6465 30.5284C27.8781 30.0518 27.1656 30.1143 26.2198 30.5851L25.9922 30.7037L25.188 31.1489L24.8853 31.3099L24.5891 31.4589C24.0001 31.7457 23.423 31.9667 22.7073 32.1542L22.3371 32.2452C22.2732 32.2599 22.2083 32.2745 22.1421 32.2889L21.7293 32.3731C21.5865 32.4007 21.4378 32.4276 21.283 32.454L20.7989 32.5325L20.2729 32.6093L19.7006 32.6854C19.6011 32.698 19.4996 32.7107 19.3959 32.7235C19.2937 32.7359 19.1995 32.6643 19.1854 32.5635C19.1712 32.4628 19.2425 32.3709 19.3447 32.3584L19.9324 32.2836L20.4719 32.2087L20.9673 32.133L21.4229 32.0553L21.8428 31.975C22.3809 31.8657 22.8349 31.7468 23.2498 31.6088L23.5544 31.5015C23.6042 31.483 23.6535 31.4641 23.7025 31.445L23.9928 31.3253C24.0408 31.3046 24.0885 31.2835 24.1362 31.2619L24.4219 31.1278L24.7096 30.983C24.7579 30.9579 24.8066 30.9323 24.8555 30.9063L25.2813 30.6746L25.8693 30.3481C27.0064 29.7433 27.8881 29.6262 28.8422 30.218Z" fill="#003CE5"/>
<path fill-rule="evenodd" clip-rule="evenodd" d="M21.8865 46.2462C22.4453 46.2942 23.2544 46.5514 24.0825 45.9572C25.2178 45.1416 25.6224 43.6609 24.7486 42.4613C24.1278 41.6091 20.9726 37.241 17.1851 36.7178C15.6413 36.505 14.1987 36.9261 13.0151 37.9349L15.462 43.5143L21.8865 46.2462Z" fill="#FFC8E9"/>
<path fill-rule="evenodd" clip-rule="evenodd" d="M17.2095 36.5364C17.8997 36.6317 18.5924 36.8534 19.2854 37.1891C20.6481 37.8494 21.9542 38.915 23.1826 40.2453C23.5742 40.6692 23.9384 41.0995 24.2802 41.5331L24.5859 41.9293L24.7862 42.1992C24.8222 42.2483 24.8601 42.3001 24.9008 42.3561C25.8092 43.6033 25.4882 45.1252 24.1987 46.1042C23.4528 46.6701 22.5766 46.7162 21.8202 46.4173C21.724 46.3793 21.6763 46.2722 21.7135 46.1781C21.7508 46.0838 21.8588 46.0383 21.9549 46.0763C22.5974 46.3301 23.3361 46.2912 23.9682 45.8116C25.1077 44.9465 25.3824 43.6439 24.5985 42.5676L24.3832 42.2741L24.193 42.0214L23.9866 41.756C23.6506 41.3297 23.2927 40.9068 22.9081 40.4906C21.7091 39.1923 20.4378 38.155 19.1245 37.5187C18.466 37.1997 17.8112 36.9901 17.1629 36.9006C16.3021 36.7823 15.4733 36.8671 14.7033 37.1504C14.6071 37.1858 14.499 37.1373 14.4617 37.0421C14.4244 36.9469 14.4721 36.8411 14.5683 36.8057C15.3966 36.501 16.2878 36.4097 17.2095 36.5364Z" fill="#003CE5"/>
<path fill-rule="evenodd" clip-rule="evenodd" d="M11.2889 42.9856C11.9341 42.0018 12.9413 41.4207 14.1254 41.3498C16.9657 41.1787 20.2079 44.3438 21.8865 46.2463C22.823 47.3061 22.7193 48.8984 21.6557 49.8019C20.5922 50.705 19.2792 50.6659 18.0354 49.5189C17.2258 48.6578 16.2714 47.6988 15.7645 47.3367C15.2575 46.9752 14.4354 47.5667 14.9155 48.2594" fill="#FFC8E9"/>
<path fill-rule="evenodd" clip-rule="evenodd" d="M14.1115 41.166C16.535 41.0202 19.3217 43.0621 22.0273 46.1266C23.0316 47.2636 22.9205 48.9724 21.7789 49.9416C20.6561 50.8957 19.2914 50.8421 18.0467 49.7746L17.9138 49.6563C17.645 49.4249 17.3717 49.1722 17.078 48.8865L15.8849 47.6955L15.6906 47.5092C15.293 47.1526 14.7275 47.6638 15.0694 48.1568C15.128 48.2413 15.1066 48.3555 15.0217 48.4119C14.9367 48.4684 14.8205 48.4458 14.762 48.3613C14.1742 47.5134 15.206 46.5808 15.9396 47.2388L16.1399 47.4305L17.3385 48.6267C17.5548 48.8371 17.7595 49.0291 17.9613 49.209L18.1622 49.3852C19.3109 50.445 20.5184 50.5236 21.5328 49.6616C22.5191 48.8244 22.6149 47.3482 21.747 46.3658C19.1183 43.3882 16.4009 41.397 14.1395 41.533C13.0454 41.5988 12.1121 42.121 11.4976 43.011C11.44 43.0945 11.324 43.1151 11.2384 43.0572C11.153 42.9992 11.1303 42.8846 11.1879 42.8013C11.8663 41.8188 12.9033 41.2386 14.1115 41.166Z" fill="#003CE5"/>
</svg>
