<svg width="61" height="60" viewBox="0 0 61 60" fill="none" xmlns="http://www.w3.org/2000/svg">
<path fill-rule="evenodd" clip-rule="evenodd" d="M51.5794 21.5574C52.4141 23.2048 51.8218 25.2221 50.2608 26.1345L50.1356 26.2042C48.7955 26.9135 47.7177 30.626 48.8795 34.2593C48.9337 34.3429 48.9866 34.427 49.0382 34.5118L49.1892 34.7679C49.2138 34.8109 49.2381 34.854 49.2621 34.8973L49.4031 35.159L49.5385 35.4245L49.6689 35.6938L49.7953 35.9669L49.9789 36.3841L50.1579 36.8102L50.4529 37.5407L50.8804 38.6074L51.0762 39.0807L51.2834 39.5639L51.4293 39.8916L51.5822 40.2239L51.7431 40.5607C51.7706 40.6172 51.7984 40.6739 51.8267 40.7308L52.0008 41.0745C52.0307 41.1322 52.0609 41.19 52.0916 41.2481L52.2808 41.5989C52.3133 41.6577 52.3462 41.7168 52.3796 41.776L52.5858 42.1339L52.8042 42.4966C52.9916 42.8008 53.1926 43.1102 53.4093 43.4247L53.677 43.8046C54.8709 45.4617 60.3797 52.178 62.7596 54.1346C59.1636 60.1247 54.6207 63.5544 48.8795 65.2788C44.8709 60.042 32.9882 50.1431 26.9154 48.0959C22.928 47.0986 18.4723 46.9274 14.8593 47.201L14.2484 47.2522C12.8435 47.3815 11.5853 47.5784 10.5579 47.8187C9.00916 48.1812 7.46607 47.1912 7.11159 45.6084C6.7683 44.0754 7.66559 42.548 9.12943 42.1242C8.15306 41.8409 7.35412 41.0355 7.11159 39.9525C6.75711 38.3696 7.72541 36.7926 9.27438 36.4304C9.70203 36.3304 10.1888 36.2377 10.7266 36.1544L10.7188 36.1203C10.3643 34.5373 11.3326 32.9603 12.8815 32.5982C13.3368 32.4917 13.8595 32.3908 14.4399 32.2986C14.3934 30.9192 15.3076 29.6556 16.6732 29.3364L17.093 29.243L17.4055 29.1786L17.7429 29.113L18.2941 29.0132L18.6902 28.9465L19.1082 28.8801L19.5472 28.8145L20.0063 28.75L20.4846 28.6872L20.9812 28.6263L21.7586 28.5399L22.2971 28.486L22.8509 28.4357L23.4189 28.3894L24.0004 28.3475L24.5944 28.3105L25.2 28.2787L25.8163 28.2526C26.0234 28.2449 26.2322 28.2383 26.4425 28.2327L27.0776 28.2193C27.1842 28.2177 27.2911 28.2163 27.3983 28.2153L28.0451 28.2125C29.5627 28.215 31.1351 28.2799 32.7114 28.4319C32.9221 28.1562 33.0977 27.9734 33.2306 27.902L33.9357 28.0173L34.7347 28.1597L35.4509 28.2958L36.2681 28.4604L36.9827 28.6126L37.5483 28.7387L37.9373 28.8284L38.5359 28.9714L38.9433 29.0724L39.3562 29.1779L39.9831 29.3445L40.4045 29.4613L40.8273 29.5825L41.2504 29.7082L41.6727 29.8384C41.7281 29.0434 41.8395 28.2572 42.0072 27.4887C42.7627 24.028 44.5474 21.3977 47.0325 20.0821C48.6872 19.2062 50.7225 19.8668 51.5794 21.5574Z" fill="#FFC8E9"/>
<path fill-rule="evenodd" clip-rule="evenodd" d="M18.0382 38.0211H15.8206C15.8206 38.0211 13.4074 37.9273 12.9418 39.8021C12.4767 41.6768 16.42 41.2572 17.5962 41.9136C18.7724 42.5693 20.727 45.021 23.8481 45.3142C29.762 45.8693 38.4684 44.4382 43.7934 41.8077C48.2206 39.6208 44.2997 37.2213 40.2817 37.2213H35.5772L18.0382 38.0211Z" fill="#FFB4DE"/>
<path fill-rule="evenodd" clip-rule="evenodd" d="M42.3816 40.096C43.2546 40.5555 43.9375 41.2255 44.2084 41.8885C44.2503 41.9918 44.2027 42.1104 44.1017 42.1538C44.0767 42.1644 44.0506 42.1694 44.0251 42.1694C43.9475 42.1694 43.8739 42.1225 43.8419 42.0447C43.3966 40.9545 41.4922 39.603 39.0742 39.8949C38.9669 39.9089 38.8666 39.829 38.8539 39.7177C38.8407 39.6064 38.9186 39.5056 39.0273 39.4923C40.5086 39.3115 41.6691 39.7213 42.3816 40.096Z" fill="#003CE5"/>
<path fill-rule="evenodd" clip-rule="evenodd" d="M23.2203 18.9424C19.4662 18.9424 16.423 16.1144 16.423 12.6262C16.423 9.13768 19.4662 6.30994 23.2203 6.30994C26.9743 6.30994 30.0177 9.13768 30.0177 12.6262C30.0177 16.1144 26.9743 18.9424 23.2203 18.9424Z" fill="#FFC74A"/>
<path fill-rule="evenodd" clip-rule="evenodd" d="M28.02 17.0978C26.9651 18.0753 25.5659 18.7312 24.0065 18.8983L24.84 18.5277C25.8998 18.0512 26.9586 17.5719 28.02 17.0978ZM23.2203 6.30994C25.3076 6.30994 27.174 7.18481 28.4209 8.56053C24.5076 10.5445 20.639 12.6023 16.8059 14.7167C16.5588 14.0623 16.423 13.3591 16.423 12.6262C16.423 9.13768 19.466 6.30994 23.2203 6.30994Z" fill="#FFE39C"/>
<path fill-rule="evenodd" clip-rule="evenodd" d="M23.1134 17.3272C20.2593 17.3272 17.9459 15.1775 17.9459 12.5256C17.9459 9.87357 20.2593 7.72388 23.1134 7.72388C25.9674 7.72388 28.2807 9.87357 28.2807 12.5256C28.2807 15.1775 25.9674 17.3272 23.1134 17.3272Z" fill="#FF9700"/>
<path fill-rule="evenodd" clip-rule="evenodd" d="M23.3289 17.4629C20.5132 17.4629 18.2308 15.3419 18.2308 12.7256C18.2308 10.1093 20.5132 7.9884 23.3289 7.9884C26.1445 7.9884 28.4269 10.1093 28.4269 12.7256C28.4269 15.3419 26.1445 17.4629 23.3289 17.4629Z" fill="#FFA900"/>
<path fill-rule="evenodd" clip-rule="evenodd" d="M24.6042 10.0241C24.5893 9.87341 24.4499 9.74915 24.2961 9.77745C24.1406 9.79263 24.0273 9.92692 24.0428 10.0786L24.4637 14.2486C24.4769 14.3815 24.5862 14.4833 24.718 14.4953L24.7718 14.4952C24.9273 14.48 25.0406 14.3457 25.0251 14.194L24.6042 10.0241ZM22.5215 12.5138L22.1482 12.4079C21.9022 12.3324 21.695 12.2368 21.5041 11.9907C21.4262 11.8901 21.3612 11.7038 21.3897 11.512C21.4128 11.356 21.4911 11.229 21.6232 11.1335C21.7696 11.0285 21.9111 10.9885 22.0537 11.0142C22.336 11.063 22.5865 11.3508 22.6593 11.458C22.7451 11.5845 22.9192 11.6197 23.05 11.5364C23.1797 11.4533 23.2164 11.2834 23.1311 11.1568L23.1014 11.1146C22.9976 10.9733 22.6558 10.5609 22.1557 10.4726C21.8603 10.4216 21.5594 10.4959 21.2883 10.6914C21.0338 10.8744 20.8756 11.1307 20.8308 11.4332C20.7851 11.7447 20.8704 12.0856 21.0542 12.3227C21.3801 12.7431 21.758 12.8722 22.1022 12.9689L22.3735 13.0456C22.6191 13.1201 22.8556 13.2191 23.0897 13.4559C23.2015 13.5692 23.3639 13.8329 23.3518 14.0957C23.3443 14.2676 23.2649 14.4156 23.109 14.5485C22.9557 14.6789 22.8 14.7367 22.6296 14.7243C22.366 14.7051 22.1268 14.5274 21.9955 14.4102L21.8899 14.3072C21.7898 14.1918 21.612 14.1779 21.4925 14.2746C21.3874 14.3619 21.3635 14.5079 21.4299 14.6211L21.4591 14.6618C21.4786 14.685 21.9511 15.2245 22.5837 15.2728C22.6475 15.2774 22.7109 15.2771 22.7733 15.2719C23.0262 15.2508 23.2629 15.1477 23.4799 14.9627C23.7507 14.7319 23.9012 14.4404 23.9155 14.1194C23.9354 13.6808 23.7017 13.2816 23.4955 13.0735C23.1637 12.738 22.8292 12.6049 22.5215 12.5138Z" fill="#FFE39C"/>
<path d="M15.2743 38.8873V33.175L21.766 36.0736L19.7468 40.1124C19.6371 40.3318 19.4057 40.4631 19.1611 40.4447L18.3627 40.3848C17.2839 40.3038 16.2567 39.8905 15.4225 39.2018C15.3286 39.1243 15.2743 39.009 15.2743 38.8873Z" fill="#80DAFC"/>
<path d="M25.2546 42.1342L24.8465 38.6503L33.7589 38.0062L33.3562 42.3277C33.3335 42.5717 33.1679 42.7788 32.9348 42.8546L32.1145 43.1214C29.9315 43.8313 27.5534 43.6205 25.5294 42.5375C25.3773 42.4562 25.2747 42.3055 25.2546 42.1342Z" fill="#BBF5FF"/>
<path d="M37.2753 40.2963L36.3997 38.1131L42.3413 34.9998L42.4408 39.9498C42.4469 40.2533 42.2339 40.5173 41.936 40.5754L41.705 40.6205C40.3806 40.8789 39.0194 40.885 37.6928 40.6385C37.5042 40.6034 37.3467 40.4743 37.2753 40.2963Z" fill="#80DAFC"/>
<path d="M36.1825 12.7857L34.309 14.7098L39.9205 17.6084L41.791 10.6304C39.6963 10.4942 37.6469 11.2817 36.1825 12.7857Z" fill="#BBF5FF"/>
<path d="M43.0011 11.0602C44.7451 12.1727 42.7566 17.9533 42.6382 20.5074L42.0708 19.919C40.2654 18.0471 38.2518 16.3879 36.0693 14.9736C37.0162 13.6965 40.1404 9.23516 43.0011 11.0602Z" fill="#43D6FF"/>
<path d="M45.532 27.0556C45.532 36.1806 40.6907 38.9718 29.5777 39.6159C20.5233 39.6159 13.1833 36.5027 13.1833 27.0556C13.1833 19.763 18.6848 13.8511 29.5777 13.8511C38.6321 13.8511 45.532 18.5747 45.532 27.0556Z" fill="#BBF5FF"/>
<path d="M46.6319 28.6701C46.6319 31.4977 44.0702 33.7899 40.9103 33.7899C37.7504 33.7899 35.1888 31.4977 35.1888 28.6701C35.1888 25.8425 37.8043 23.7696 40.9103 23.5502C44.6418 23.2867 46.6319 25.8425 46.6319 28.6701Z" fill="#43D6FF"/>
<path d="M46.6327 28.8815C46.6327 31.1345 44.5951 32.9609 42.0815 32.9609C39.5679 32.9609 37.5303 31.1345 37.5303 28.8815C37.5303 26.6285 39.6108 24.9769 42.0815 24.8021C45.8525 24.5353 46.6327 26.6285 46.6327 28.8815Z" fill="#BBF5FF"/>
<ellipse cx="44.3227" cy="28.3538" rx="0.330089" ry="1.03728" fill="#005CFF"/>
<ellipse cx="40.6913" cy="28.9988" rx="0.440118" ry="1.03728" fill="#005CFF"/>
<ellipse cx="0.816802" cy="1.09503" rx="0.816802" ry="1.09503" transform="matrix(0.521602 -0.853189 0.864289 0.502996 32.1083 21.0421)" fill="#005CFF"/>
<ellipse cx="0.284101" cy="0.380873" rx="0.284101" ry="0.380873" transform="matrix(0.521601 -0.853189 0.864288 0.502997 33.1554 20.6996)" fill="#F7F7F7"/>
<ellipse cx="0.336653" cy="1.03041" rx="0.336653" ry="1.03041" transform="matrix(0.802519 -0.596626 0.615509 0.78813 41.5709 18.9767)" fill="#005CFF"/>
<ellipse cx="0.0900643" cy="0.275851" rx="0.0900643" ry="0.275851" transform="matrix(0.802519 -0.596627 0.615509 0.78813 42.3568 19.3318)" fill="#F7F7F7"/>
<path d="M24.5004 14.5854L23.0157 20.9564L29.3058 20.1119L29.3058 11.7676C27.1678 11.2046 24.9908 12.4811 24.5004 14.5854Z" fill="#BBF5FF"/>
<path d="M27.2677 12.1329C25.0671 13.2065 24.9204 18.4668 25.0671 21.0433L29.1382 17.608L32.7971 15.0213C31.6234 13.733 30.5686 10.5226 27.2677 12.1329Z" fill="#43D6FF"/>
<path d="M27.7528 39.3523L28.0296 39.3973C30.6096 39.8168 33.2525 39.614 35.7382 38.8055V38.8055" stroke="#06A0FF" stroke-width="0.156335" stroke-linecap="round"/>
</svg>
