<svg width="60" height="60" viewBox="0 0 60 60" fill="none" xmlns="http://www.w3.org/2000/svg">
<path fill-rule="evenodd" clip-rule="evenodd" d="M52.6097 59.8364C37.8995 51.1424 35.0432 45.883 34.7028 33.3753C34.5736 31.5242 34.1021 30.0278 32.6403 29.7075C31.1143 29.3728 29.9767 29.9155 29.4299 31.2995C29.3094 31.6043 27.9339 34.7735 28.7919 40.2097C26.0755 38.5454 24.1108 36.2043 23.8939 32.0932C27.4898 31.2358 28.9958 30.1541 29.4334 29.7732C29.4334 29.7732 31.7424 27.939 30.0136 25.7068C29.8616 25.5366 29.6993 25.4066 29.5328 25.2938C30.4447 24.4999 30.9449 23.7073 31.0966 23.4968C31.9698 22.2875 31.5907 20.5572 30.3058 19.673C29.0193 18.7894 27.2046 19.0045 26.3298 20.2126C24.7867 22.3456 21.5802 26.0728 19.5488 26.9912C19.2005 27.1494 18.8974 27.3233 18.6145 27.5034C15.9273 28.028 14.0087 29.821 13.5358 32.3117C13.0696 32.5236 12.6247 32.7947 12.2122 33.1379C10.2326 34.787 10.029 36.9098 10.2517 38.5626C10.2593 38.6163 10.2664 38.6694 10.275 38.7222C8.13553 42.2411 11.4723 49.2605 11.4723 49.2605C15.2726 57.2761 17.7718 61.1045 21.9854 67.3508C35.7578 72.7928 46.4887 67.6293 46.4887 67.6293" fill="#FFC8E9"/>
<path fill-rule="evenodd" clip-rule="evenodd" d="M28.9793 40.0102C29.0905 40.0403 29.1567 40.1537 29.1272 40.2632L29.0215 40.6785L28.8956 41.2066L28.7654 41.7881C28.5157 42.9419 28.3097 44.1128 28.1791 45.2286C28.0319 46.4854 27.9906 47.5919 28.0764 48.4947C28.0871 48.608 28.0031 48.7074 27.8886 48.7168C27.7742 48.7263 27.6727 48.642 27.662 48.5289C27.573 47.5931 27.6154 46.4598 27.7657 45.1768C27.898 44.0467 28.1061 42.8635 28.3585 41.6978L28.4898 41.1106L28.6705 40.3629L28.7249 40.1536C28.7542 40.044 28.8682 39.9799 28.9793 40.0102Z" fill="#003CE5"/>
<path fill-rule="evenodd" clip-rule="evenodd" d="M14.1879 32.7027C14.6721 29.9777 16.8128 28.0261 19.775 27.6102C24.6152 26.9299 26.2352 25.7612 26.2506 25.7495C26.1857 25.7975 26.1583 25.8261 26.1583 25.8261C26.1583 25.8261 28.8903 23.9307 30.527 25.8042C32.212 28.034 29.9176 29.9005 29.9176 29.9005C29.3505 30.4039 26.6859 32.1832 20.3261 33.078" fill="#FFC8E9"/>
<path fill-rule="evenodd" clip-rule="evenodd" d="M24.1612 32.1367C24.2688 32.1095 24.3798 32.1736 24.4089 32.2801C24.438 32.3865 24.3744 32.4948 24.2668 32.522C23.0832 32.8213 21.7818 33.0747 20.3571 33.2749C20.247 33.2905 20.1437 33.2148 20.1263 33.1061C20.109 32.9973 20.1844 32.8966 20.2946 32.8812C21.7049 32.6828 22.992 32.4323 24.1612 32.1367Z" fill="#003CE5"/>
<path fill-rule="evenodd" clip-rule="evenodd" d="M30.0193 25.0967C30.1143 25.1555 30.1438 25.2784 30.0853 25.3711C30.0268 25.4639 29.9025 25.4912 29.8076 25.4324C28.9765 24.9169 28.2058 24.9845 27.1828 25.4937L26.9366 25.622L26.0667 26.1035L25.7394 26.2776L25.4189 26.4388C24.7819 26.7491 24.1577 26.9881 23.3835 27.1908L22.9831 27.2893C22.9141 27.3052 22.8438 27.321 22.7722 27.3366L22.3257 27.4277C22.1712 27.4575 22.0105 27.4866 21.843 27.5152L21.3194 27.6L20.7504 27.6831L20.1315 27.7655C20.0238 27.7791 19.914 27.7928 19.8019 27.8066C19.6913 27.8201 19.5894 27.7427 19.5741 27.6336C19.5588 27.5246 19.636 27.4253 19.7464 27.4118L20.3821 27.3308L20.9656 27.2499L21.5015 27.168L21.9943 27.0839L22.4485 26.997C23.0305 26.8788 23.5216 26.7502 23.9704 26.6009L24.2998 26.4849C24.3537 26.4649 24.407 26.4444 24.46 26.4238L24.7741 26.2943C24.8259 26.2719 24.8776 26.2491 24.9291 26.2258L25.2381 26.0807L25.5493 25.9241C25.6015 25.8969 25.6542 25.8693 25.7072 25.8411L26.1677 25.5905L26.8037 25.2373C28.0337 24.5831 28.9873 24.4566 30.0193 25.0967Z" fill="#003CE5"/>
<path fill-rule="evenodd" clip-rule="evenodd" d="M22.4971 42.4344C23.1016 42.4862 23.9767 42.7644 24.8724 42.1217C26.1004 41.2396 26.538 39.638 25.5928 38.3404C24.9214 37.4187 21.5086 32.694 17.412 32.1281C15.7421 31.8979 14.1817 32.3534 12.9015 33.4446L15.5482 39.4794L22.4971 42.4344Z" fill="#FFC8E9"/>
<path fill-rule="evenodd" clip-rule="evenodd" d="M17.4372 31.9314C18.1837 32.0346 18.933 32.2743 19.6826 32.6375C21.1564 33.3516 22.5692 34.5043 23.8979 35.9431C24.3215 36.4017 24.7154 36.867 25.0851 37.3361L25.4158 37.7645L25.6323 38.0565C25.6713 38.1096 25.7123 38.1657 25.7564 38.2262C26.7389 39.5752 26.3917 41.2214 24.997 42.2802C24.1901 42.8924 23.2424 42.9422 22.4242 42.6189C22.3203 42.5779 22.2687 42.462 22.3089 42.3602C22.3492 42.2583 22.466 42.209 22.57 42.2501C23.2649 42.5247 24.0639 42.4826 24.7476 41.9638C25.9802 41.0281 26.2773 39.6192 25.4294 38.455L25.1965 38.1376L24.9907 37.8642L24.7675 37.5771C24.404 37.1161 24.017 36.6587 23.601 36.2085C22.3041 34.8042 20.929 33.6821 19.5085 32.994C18.7963 32.6489 18.088 32.4222 17.3868 32.3254C16.4557 32.1974 15.5593 32.2891 14.7264 32.5955C14.6224 32.6338 14.5054 32.5814 14.4651 32.4784C14.4248 32.3755 14.4764 32.261 14.5804 32.2227C15.4763 31.8931 16.4402 31.7944 17.4372 31.9314Z" fill="#003CE5"/>
<path fill-rule="evenodd" clip-rule="evenodd" d="M11.0342 38.9072C11.7321 37.8431 12.8215 37.2146 14.1022 37.1379C17.1745 36.9528 20.6812 40.3762 22.4969 42.4341C23.5099 43.5803 23.3977 45.3026 22.2472 46.28C21.097 47.2567 19.6768 47.2145 18.3314 45.9738C17.4558 45.0425 16.4234 44.0051 15.8752 43.6135C15.3267 43.2224 14.4376 43.8623 14.9568 44.6115" fill="#FFC8E9"/>
<path fill-rule="evenodd" clip-rule="evenodd" d="M14.0866 36.9396C16.708 36.7818 19.7222 38.9904 22.6486 42.3052C23.7349 43.5349 23.6147 45.3832 22.38 46.4315C21.1654 47.4635 19.6893 47.4056 18.343 46.2509L18.1993 46.1229C17.9086 45.8726 17.6129 45.5993 17.2953 45.2903L16.0048 44.0021L15.7946 43.8006C15.3646 43.4149 14.7529 43.9678 15.1228 44.5011C15.1861 44.5924 15.1629 44.716 15.0712 44.777C14.9792 44.8381 14.8535 44.8136 14.7902 44.7223C14.1545 43.8052 15.2705 42.7964 16.064 43.5081L16.2806 43.7154L17.5771 45.0093C17.811 45.2369 18.0324 45.4445 18.2506 45.6391L18.468 45.8298C19.7105 46.976 21.0165 47.0611 22.1138 46.1287C23.1805 45.2231 23.2842 43.6264 22.3454 42.5638C19.5022 39.3432 16.5629 37.1894 14.1169 37.3366C12.9335 37.4077 11.924 37.9725 11.2593 38.9352C11.197 39.0255 11.0715 39.0478 10.979 38.9852C10.8866 38.9224 10.8621 38.7985 10.9244 38.7084C11.6581 37.6456 12.7798 37.0181 14.0866 36.9396Z" fill="#003CE5"/>
<path fill-rule="evenodd" clip-rule="evenodd" d="M44.2207 44.1829C44.23 44.0827 44.2883 43.1869 43.334 43.0853C43.1733 43.0682 43.0571 42.924 43.0742 42.7634C43.0913 42.6028 43.2353 42.486 43.3959 42.5031C44.3492 42.6046 44.4816 41.7189 44.4939 41.6159C44.5115 41.4559 44.6551 41.3399 44.8155 41.357C44.9747 41.3739 45.0901 41.5153 45.0761 41.6737L45.0757 41.677C45.0657 41.7811 45.0087 42.6747 45.9618 42.7762C46.1224 42.7933 46.2391 42.9378 46.222 43.0984C46.2049 43.259 46.0604 43.3755 45.8998 43.3584C44.9361 43.2558 44.8132 44.1433 44.8024 44.2448C44.7854 44.4054 44.6411 44.5219 44.4805 44.5048C44.3199 44.4877 44.2036 44.3435 44.2207 44.1829Z" fill="#F4F9FF"/>
<path fill-rule="evenodd" clip-rule="evenodd" d="M6.00111 30.785C6.00664 30.7252 6.04144 30.1909 5.47215 30.1303C5.37634 30.1201 5.30701 30.0341 5.31721 29.9383C5.3274 29.8425 5.41329 29.7728 5.50911 29.783C6.07774 29.8435 6.15669 29.3152 6.16406 29.2538C6.17454 29.1584 6.26022 29.0892 6.35587 29.0993C6.45086 29.1095 6.5197 29.1938 6.5113 29.2883L6.51109 29.2902C6.50515 29.3523 6.47115 29.8854 7.03962 29.9459C7.13543 29.9561 7.20507 30.0423 7.19488 30.1381C7.18468 30.2339 7.09848 30.3034 7.00267 30.2932C6.4278 30.232 6.35454 30.7614 6.3481 30.8219C6.3379 30.9177 6.25186 30.9872 6.15605 30.977C6.06024 30.9668 5.99092 30.8808 6.00111 30.785Z" fill="#F4F9FF"/>
<path fill-rule="evenodd" clip-rule="evenodd" d="M41.6724 11.3433C41.6779 11.2835 41.7127 10.7492 41.1434 10.6886C41.0476 10.6784 40.9783 10.5924 40.9885 10.4966C40.9987 10.4008 41.0846 10.3311 41.1804 10.3413C41.749 10.4018 41.828 9.87352 41.8353 9.81209C41.8458 9.71665 41.9315 9.64746 42.0271 9.65764C42.1221 9.66775 42.191 9.75205 42.1826 9.84655L42.1824 9.84852C42.1764 9.9106 42.1424 10.4437 42.7109 10.5042C42.8067 10.5144 42.8763 10.6006 42.8661 10.6964C42.8559 10.7922 42.7697 10.8617 42.6739 10.8515C42.0991 10.7903 42.0258 11.3197 42.0194 11.3802C42.0092 11.476 41.9231 11.5455 41.8273 11.5353C41.7315 11.5251 41.6622 11.4391 41.6724 11.3433Z" fill="#F4F9FF"/>
<path fill-rule="evenodd" clip-rule="evenodd" d="M21.8206 26.7049C23.2747 28.5355 24.5263 30.5168 25.5525 32.6147L29.6577 41.005C30.0734 41.6648 30.9393 41.8706 31.5918 41.4646L43.3931 34.1183C44.0448 33.7122 44.2363 32.8482 43.8206 32.1884L39.5454 23.5105C38.512 21.4139 37.2537 19.4333 35.7927 17.6051L30.2702 10.6956C29.8542 10.0353 28.9883 9.82959 28.3361 10.236L16.5349 17.5823C15.8828 17.988 15.6913 18.852 16.1073 19.5122L21.8206 26.7049Z" fill="#FF7800"/>
<mask id="mask0_309_9212" style="mask-type:luminance" maskUnits="userSpaceOnUse" x="22" y="8" width="21" height="30">
<path d="M35.6951 37.7908L22.0289 34.8739L28.3977 8.25519L42.3651 11.3847L35.6951 37.7908Z" fill="white"/>
</mask>
<g mask="url(#mask0_309_9212)">
<path fill-rule="evenodd" clip-rule="evenodd" d="M38.5051 -1.10868L9.08091 14.0291L25.873 47.1321L55.2972 31.9943L38.5051 -1.10868Z" fill="#00BBC4"/>
</g>
<mask id="mask1_309_9212" style="mask-type:luminance" maskUnits="userSpaceOnUse" x="25" y="10" width="16" height="26">
<path d="M34.88 35.1136L25.0195 33.015L30.4724 10.2845L40.5946 12.5465L34.88 35.1136Z" fill="white"/>
</mask>
<g mask="url(#mask1_309_9212)">
<path fill-rule="evenodd" clip-rule="evenodd" d="M37.6799 2.92334L14.0382 15.0859L27.9222 42.4561L51.564 30.2927L37.6799 2.92334Z" fill="#8AE7F2"/>
</g>
<mask id="mask2_309_9212" style="mask-type:luminance" maskUnits="userSpaceOnUse" x="23" y="6" width="16" height="29">
<path d="M38.4729 33.5997L24.6021 34.3138L23.595 7.33624L37.8112 6.74766L38.4729 33.5997Z" fill="white"/>
</mask>
<g mask="url(#mask2_309_9212)">
<path fill-rule="evenodd" clip-rule="evenodd" d="M35.3956 0.306249L12.5327 12.0686L27.0086 40.6048L49.8715 28.8425L35.3956 0.306249Z" fill="#00BBC4"/>
</g>
<mask id="mask3_309_9212" style="mask-type:luminance" maskUnits="userSpaceOnUse" x="25" y="8" width="12" height="24">
<path d="M36.4113 31.5765L26.5193 31.9665L25.3753 8.73272L35.56 8.43624L36.4113 31.5765Z" fill="white"/>
</mask>
<g mask="url(#mask3_309_9212)">
<path fill-rule="evenodd" clip-rule="evenodd" d="M33.9217 3.54257L15.9871 12.7697L28.1489 36.7448L46.0839 27.5181L33.9217 3.54257Z" fill="#8AE7F2"/>
</g>
<mask id="mask4_309_9212" style="mask-type:luminance" maskUnits="userSpaceOnUse" x="16" y="6" width="24" height="32">
<path d="M39.9858 32.1462L27.0752 37.5639L16.5116 12.1894L29.7948 6.77359L39.9858 32.1462Z" fill="white"/>
</mask>
<g mask="url(#mask4_309_9212)">
<path fill-rule="evenodd" clip-rule="evenodd" d="M34.644 -2.29259L4.81015 13.0558L21.8557 46.6587L51.69 31.3099L34.644 -2.29259Z" fill="#00BBC4"/>
</g>
<mask id="mask5_309_9212" style="mask-type:luminance" maskUnits="userSpaceOnUse" x="19" y="8" width="19" height="27">
<path d="M37.8038 30.1447L28.3878 34.126L19.6316 12.9285L29.3598 8.9272L37.8038 30.1447Z" fill="white"/>
</mask>
<g mask="url(#mask5_309_9212)">
<path fill-rule="evenodd" clip-rule="evenodd" d="M33.6397 1.74413L9.90766 13.9534L23.7968 41.3333L47.5288 29.1241L33.6397 1.74413Z" fill="#8AE7F2"/>
</g>
<path fill-rule="evenodd" clip-rule="evenodd" d="M43.8498 31.715C40.2133 28.531 37.4678 25.7849 35.6133 23.4766C33.7588 21.1684 31.0919 17.3321 28.305 12.3758C28.0874 14.5719 29.8011 17.9021 32.7538 21.9582C35.7065 26.0142 39.4051 29.2665 43.8498 31.715Z" fill="black" fill-opacity="0.301961"/>
<path fill-rule="evenodd" clip-rule="evenodd" d="M14.8238 22.8858L17.5811 28.9082C19.2685 32.5932 21.7921 35.8209 24.9566 38.3422L30.3703 42.6542C30.8479 43.2616 31.738 43.3545 32.3589 42.8627L43.5922 33.9632C44.213 33.4715 44.3294 32.5805 43.8522 31.9735L38.6565 27.8831C35.4773 25.3798 32.9353 22.1666 31.2272 18.4914L28.3054 12.2047C27.8282 11.5977 26.9381 11.5048 26.3172 11.9966L15.0839 20.8961C14.463 21.3878 14.3467 22.2788 14.8238 22.8858Z" fill="#FF961F"/>
<path fill-rule="evenodd" clip-rule="evenodd" d="M19.3135 18.8166L21.0628 22.3817C21.0628 22.3817 22.04 24.0349 24.5195 27.191C26.999 30.3471 28.4271 31.6998 28.4271 31.6998C28.737 32.1076 30.1182 32.5944 30.2909 32.4622L33.2483 30.2271C33.421 30.0948 33.5654 29.9264 33.0006 29.2487L30.0816 26.1104C28.2948 24.1896 26.6236 21.9308 25.2706 19.7899L22.9134 15.9619C22.6035 15.5541 22.2127 15.3309 22.04 15.4632L19.1252 17.7109C18.9525 17.8432 19.0035 18.4087 19.3135 18.8166Z" fill="#FF7800"/>
<path fill-rule="evenodd" clip-rule="evenodd" d="M28.6229 27.7034C28.0512 28.2237 27.9989 29.0972 28.5059 29.6544C29.0129 30.2115 29.8872 30.241 30.4589 29.7207C31.0305 29.2005 31.0833 28.3273 30.5762 27.7702C30.0692 27.213 29.1945 27.1831 28.6229 27.7034Z" fill="#FF961F"/>
<path fill-rule="evenodd" clip-rule="evenodd" d="M14.1876 32.7017C14.6718 29.9767 16.8126 28.0251 19.7748 27.6092C24.615 26.9288 26.2349 25.7602 26.2503 25.7484C26.1855 25.7965 26.1581 25.8251 26.1581 25.8251C26.1581 25.8251 28.8901 23.9297 30.5267 25.8032C32.2118 28.033 29.9174 29.8995 29.9174 29.8995C29.3502 30.4029 26.6856 32.1822 20.3258 33.0769" fill="#FFC8E9"/>
<path fill-rule="evenodd" clip-rule="evenodd" d="M24.1623 32.1354C24.2699 32.1082 24.3809 32.1723 24.41 32.2788C24.4391 32.3853 24.3755 32.4935 24.2679 32.5207C23.0843 32.82 21.7829 33.0734 20.3582 33.2736C20.2481 33.2892 20.1448 33.2135 20.1274 33.1048C20.1101 32.996 20.1855 32.8953 20.2957 32.8799C21.706 32.6815 22.9931 32.431 24.1623 32.1354Z" fill="#003CE5"/>
<path fill-rule="evenodd" clip-rule="evenodd" d="M30.0204 25.0966C30.1154 25.1554 30.1449 25.2784 30.0864 25.371C30.0279 25.4638 29.9036 25.4911 29.8087 25.4323C28.9776 24.9168 28.2069 24.9844 27.1839 25.4936L26.9377 25.6219L26.0678 26.1034L25.7405 26.2776L25.42 26.4387C24.783 26.749 24.1588 26.9881 23.3846 27.1908L22.9842 27.2892C22.9152 27.3052 22.8449 27.321 22.7733 27.3365L22.3268 27.4276C22.1723 27.4574 22.0116 27.4865 21.8441 27.5151L21.3205 27.6L20.7515 27.6831L20.1325 27.7654C20.0249 27.779 19.9151 27.7927 19.803 27.8066C19.6924 27.82 19.5905 27.7426 19.5752 27.6336C19.5599 27.5246 19.6371 27.4252 19.7475 27.4117L20.3832 27.3308L20.9667 27.2498L21.5026 27.1679L21.9954 27.0838L22.4496 26.997C23.0316 26.8787 23.5227 26.7501 23.9715 26.6009L24.3009 26.4848C24.3548 26.4649 24.4081 26.4444 24.4611 26.4237L24.7752 26.2942C24.827 26.2718 24.8786 26.249 24.9302 26.2257L25.2392 26.0806L25.5504 25.924C25.6026 25.8968 25.6553 25.8692 25.7083 25.841L26.1688 25.5905L26.8048 25.2373C28.0348 24.5831 28.9884 24.4565 30.0204 25.0966Z" fill="#003CE5"/>
<path fill-rule="evenodd" clip-rule="evenodd" d="M22.4971 42.4329C23.1016 42.4848 23.9767 42.763 24.8724 42.1203C26.1004 41.2381 26.538 39.6365 25.5928 38.3389C24.9214 37.4172 21.5086 32.6925 17.412 32.1267C15.7421 31.8964 14.1817 32.3519 12.9015 33.4431L15.5482 39.4779L22.4971 42.4329Z" fill="#FFC8E9"/>
<path fill-rule="evenodd" clip-rule="evenodd" d="M17.4372 31.9302C18.1837 32.0334 18.933 32.2731 19.6826 32.6362C21.1564 33.3504 22.5692 34.503 23.8979 35.9418C24.3215 36.4004 24.7154 36.8658 25.0851 37.3349L25.4158 37.7633L25.6323 38.0553C25.6713 38.1084 25.7123 38.1645 25.7564 38.225C26.7389 39.574 26.3917 41.2201 24.997 42.279C24.1901 42.8912 23.2424 42.941 22.4242 42.6177C22.3203 42.5766 22.2687 42.4608 22.3089 42.359C22.3492 42.2571 22.466 42.2078 22.57 42.2489C23.2649 42.5235 24.0639 42.4813 24.7476 41.9626C25.9802 41.0269 26.2773 39.618 25.4294 38.4538L25.1965 38.1363L24.9907 37.863L24.7675 37.5759C24.404 37.1149 24.017 36.6574 23.601 36.2072C22.3041 34.803 20.929 33.6809 19.5085 32.9927C18.7963 32.6476 18.088 32.421 17.3868 32.3241C16.4557 32.1962 15.5593 32.2879 14.7264 32.5943C14.6224 32.6326 14.5054 32.5802 14.4651 32.4772C14.4248 32.3743 14.4764 32.2598 14.5804 32.2215C15.4763 31.8919 16.4402 31.7931 17.4372 31.9302Z" fill="#003CE5"/>
<path fill-rule="evenodd" clip-rule="evenodd" d="M11.0339 38.9058C11.7317 37.8417 12.8211 37.2132 14.1019 37.1365C17.1741 36.9514 20.6809 40.3748 22.4965 42.4327C23.5095 43.5789 23.3973 45.3012 22.2469 46.2786C21.0966 47.2553 19.6764 47.2131 18.331 45.9724C17.4554 45.0411 16.4231 44.0037 15.8748 43.6121C15.3264 43.221 14.4372 43.8609 14.9565 44.6101" fill="#FFC8E9"/>
<path fill-rule="evenodd" clip-rule="evenodd" d="M14.0866 36.9381C16.708 36.7804 19.7222 38.9889 22.6486 42.3037C23.7349 43.5334 23.6147 45.3818 22.38 46.43C21.1654 47.4621 19.6893 47.4041 18.343 46.2494L18.1993 46.1214C17.9086 45.8712 17.6129 45.5978 17.2953 45.2888L16.0048 44.0007L15.7946 43.7991C15.3646 43.4134 14.7529 43.9663 15.1228 44.4996C15.1861 44.5909 15.1629 44.7145 15.0712 44.7755C14.9792 44.8366 14.8535 44.8121 14.7902 44.7208C14.1545 43.8037 15.2705 42.7949 16.064 43.5066L16.2806 43.714L17.5771 45.0078C17.811 45.2354 18.0324 45.4431 18.2506 45.6377L18.468 45.8283C19.7105 46.9746 21.0165 47.0596 22.1138 46.1273C23.1805 45.2216 23.2842 43.625 22.3454 42.5624C19.5022 39.3417 16.5629 37.1879 14.1169 37.3351C12.9335 37.4062 11.924 37.9711 11.2593 38.9337C11.197 39.024 11.0715 39.0463 10.979 38.9837C10.8866 38.921 10.8621 38.7971 10.9244 38.7069C11.6581 37.6442 12.7798 37.0166 14.0866 36.9381Z" fill="#003CE5"/>
</svg>
