<svg width="61" height="60" viewBox="0 0 61 60" fill="none" xmlns="http://www.w3.org/2000/svg">
<path fill-rule="evenodd" clip-rule="evenodd" d="M24.411 31.1518C27.1214 30.9078 30.1288 32.141 32.8682 33.8195L33.3221 34.1032C33.4726 34.1991 33.6221 34.2961 33.7706 34.3941L34.2129 34.6911C34.2861 34.7411 34.359 34.7913 34.4316 34.8416L34.8636 35.1458L35.288 35.4535C35.3581 35.505 35.4278 35.5566 35.4972 35.6083L35.9092 35.9191L36.3122 36.2308L36.7055 36.5423C36.7702 36.5941 36.8345 36.6459 36.8984 36.6976L37.461 37.1602L37.822 37.4645L38.171 37.7643L38.5076 38.0586L38.831 38.3463L39.4362 38.8975L39.8514 39.2856L40.3496 39.7626L40.8769 40.2818L41.2895 40.6999L41.7608 41.1949C44.6538 44.1117 56.7961 54.5385 60.0848 56.3953C56.8219 61.0667 52.1534 64.682 46.6898 66.6266C44.0169 67.579 41.1523 68.1312 38.171 68.2109L28.6842 59.8048C28.6842 59.8048 14.0882 45.4691 13.4503 44.3643C13.4365 44.3404 13.432 44.2947 13.4366 44.2292L13.4502 44.1162C13.457 44.0737 13.4661 44.0265 13.4773 43.9748L13.5177 43.8064L13.5711 43.6125L13.6374 43.3944L13.7165 43.1536L13.8081 42.8915L13.9122 42.6095L14.0284 42.309L14.1566 41.9915L14.2967 41.6583L14.4484 41.3109L14.6117 40.9506L14.7863 40.579L14.972 40.1974C15.0039 40.133 15.0362 40.0683 15.069 40.0032L15.2711 39.6093L15.4839 39.2089L15.7072 38.8035C15.8215 38.5998 15.9396 38.3947 16.0615 38.189L16.3104 37.7772C18.2566 34.618 21.0762 31.4525 24.411 31.1518Z" fill="#FFC8E9"/>
<path fill-rule="evenodd" clip-rule="evenodd" d="M14.968 6.62771L32.1277 4.21608C34.1879 3.92654 36.0927 5.36195 36.3823 7.42217L41.625 44.7257C41.9145 46.7859 40.4791 48.6908 38.4189 48.9803L21.2592 51.392C19.199 51.6815 17.2942 50.2461 17.0046 48.1859L11.7619 10.8823C11.4724 8.82211 12.9078 6.91726 14.968 6.62771Z" fill="#005CFF"/>
<path fill-rule="evenodd" clip-rule="evenodd" d="M15.7087 8.29978L31.8736 6.02796C33.2471 5.83493 34.517 6.79187 34.71 8.16535L39.7779 44.2254C39.9709 45.5989 39.014 46.8688 37.6405 47.0619L21.4756 49.3337C20.1022 49.5267 18.8323 48.5698 18.6392 47.1963L13.5713 11.1362C13.3783 9.76272 14.3352 8.49281 15.7087 8.29978Z" fill="#002199"/>
<path fill-rule="evenodd" clip-rule="evenodd" d="M23.4231 5.44041C24.7965 5.24738 26.0664 6.20432 26.2595 7.5778C26.4525 8.95128 25.4956 10.2212 24.1221 10.4142C22.7486 10.6072 21.4787 9.6503 21.2857 8.27682C21.0926 6.90334 22.0496 5.63344 23.4231 5.44041Z" fill="#005CFF"/>
<path fill-rule="evenodd" clip-rule="evenodd" d="M16.675 26.2212C17.0104 27.2891 16.6428 28.4124 15.8323 29.0951C16.6728 29.3337 17.3791 29.9754 17.66 30.8693C17.9548 31.8079 17.7066 32.7894 17.0918 33.4768C17.8509 33.7516 18.4765 34.3633 18.7367 35.1916C19.034 36.1379 18.7794 37.1277 18.1535 37.816C19.1013 37.9908 19.9207 38.6677 20.2286 39.6478C20.674 41.066 19.8798 42.5819 18.4547 43.0337C18.3408 43.0698 18.2577 43.1272 18.1878 43.213L18.0927 43.352L18.1014 43.3104L18.0382 43.5132C17.5691 44.8243 16.1624 45.5831 14.7924 45.2241C13.3503 44.8462 12.4951 43.3729 12.8821 41.9333C12.9685 41.6121 13.1193 41.2182 13.3584 40.7822L13.2983 40.7673C11.8564 40.3887 11.0018 38.915 11.3895 37.4756C11.4759 37.1547 11.6267 36.7613 11.8657 36.3258C10.6437 35.8162 9.95884 34.4713 10.313 33.1548C10.4013 32.8268 10.5567 32.423 10.8048 31.9759C10.7077 31.948 10.6111 31.9133 10.5155 31.8726C9.14511 31.2893 8.51474 29.7063 9.10754 28.3371C9.24963 28.0088 9.48447 27.5746 9.83001 27.0881C10.6763 25.8969 11.8018 24.9427 13.2881 24.4715C14.7133 24.0197 16.2297 24.8031 16.675 26.2212Z" fill="#FFC8E9"/>
<path fill-rule="evenodd" clip-rule="evenodd" d="M44.5664 29.3354C45.737 30.1394 46.0667 31.7046 45.3534 32.9124L45.1762 33.1959L45.0551 33.4121C44.9925 33.5289 44.9271 33.6588 44.8602 33.801C44.5287 34.5064 44.2511 35.3219 44.0729 36.2272C43.5575 38.8454 43.958 41.6462 45.6695 44.6105C46.4125 45.8974 45.9649 47.5468 44.6697 48.2946C44.0399 48.6582 43.3257 48.7417 42.6727 48.5835L35.9476 50.7128L35.8722 50.3204L35.8064 49.8898L35.7598 49.5208L35.7259 49.2027L35.6944 48.8503L35.6669 48.4645L35.6448 48.0463L35.6338 47.75L35.6262 47.4401L35.6225 47.1168L35.6231 46.7805L35.6285 46.4313L35.639 46.0697L35.6552 45.6959L35.6774 45.3102L35.706 44.9129L35.7415 44.5043L35.7844 44.0846L35.835 43.6542C35.8441 43.5816 35.8535 43.5086 35.8633 43.4351L35.9263 42.9892L35.9982 42.5333L36.0793 42.0677C36.0936 41.9893 36.1083 41.9105 36.1234 41.8313L36.2192 41.3517C36.3032 40.9483 36.398 40.5354 36.5046 40.1141L36.6384 39.6043L36.7839 39.0866C37.3903 37.0004 38.2906 34.7305 39.6082 32.3612C39.7214 32.0776 39.8409 31.8029 39.966 31.5368C40.0805 31.293 40.1921 31.0718 40.2982 30.8736L40.4529 30.5938L40.5267 30.4671L40.7177 30.1593L40.8036 30.0319C41.6555 28.8048 43.3401 28.493 44.5664 29.3354Z" fill="#FFC8E9"/>
<path fill-rule="evenodd" clip-rule="evenodd" d="M17.9097 37.5867C18.0137 37.5841 18.1001 37.6662 18.1028 37.7702C18.1054 37.8742 18.0233 37.9607 17.9193 37.9633C16.5657 37.9979 15.1313 38.903 13.6219 40.6959C13.5549 40.7755 13.4361 40.7857 13.3565 40.7187C13.2769 40.6517 13.2667 40.5329 13.3337 40.4533C14.9059 38.5859 16.4293 37.6246 17.9097 37.5867ZM16.8969 33.2667C17.0009 33.2667 17.0852 33.351 17.0852 33.4551C17.0852 33.5591 17.0009 33.6434 16.8969 33.6434C15.2068 33.6434 13.6105 34.5308 12.1029 36.3216C12.0359 36.4012 11.9171 36.4114 11.8375 36.3444C11.7579 36.2774 11.7477 36.1585 11.8147 36.079C13.3887 34.2094 15.0844 33.2667 16.8969 33.2667ZM15.4955 28.9206C15.5993 28.915 15.688 28.9947 15.6936 29.0986C15.6991 29.2025 15.6194 29.2912 15.5156 29.2967C13.7606 29.3904 12.3194 30.2717 11.1799 31.9547C11.1216 32.0409 11.0045 32.0634 10.9183 32.0051C10.8322 31.9468 10.8097 31.8297 10.868 31.7435C12.0711 29.9665 13.6177 29.0208 15.4955 28.9206Z" fill="#003CE5"/>
<path d="M34.437 25.2243L27.0099 19.2351C26.1425 18.5356 24.8807 18.6997 24.1916 19.6016L18.2911 27.3241C17.602 28.226 17.7465 29.5241 18.6139 30.2236L26.041 36.2128C26.9084 36.9123 28.1702 36.7482 28.8593 35.8463L34.7598 28.1238C35.4489 27.2219 35.3044 25.9238 34.437 25.2243Z" fill="#48CDE1"/>
<path d="M25.5615 19.0591C26.2172 18.9736 26.9027 19.1456 27.4604 19.5958L33.9879 24.8592C35.1035 25.7587 35.2894 27.4288 34.4032 28.5888L29.2178 35.3758C28.7742 35.9558 28.1473 36.2986 27.4907 36.384C26.834 36.4693 26.1495 36.2975 25.5917 35.8473L19.0643 30.5839C17.9486 29.6844 17.7628 28.0143 18.6489 26.8543L23.8344 20.0673C24.2779 19.4873 24.9048 19.1445 25.5615 19.0591ZM25.4964 18.4751C24.6598 18.5841 23.9109 19.0215 23.3873 19.7072L18.2018 26.4942C17.6781 27.1798 17.442 28.0314 17.538 28.892C17.634 29.7526 18.0499 30.5191 18.7093 31.0507L25.2367 36.3141C25.8961 36.8457 26.7199 37.079 27.5564 36.97C28.393 36.861 29.1419 36.4235 29.6656 35.7379L34.851 28.9509C35.9318 27.5354 35.7047 25.4924 34.3435 24.3944L27.8161 19.131C27.1567 18.5994 26.3329 18.3661 25.4964 18.4751Z" fill="#F4F9FF"/>
<path d="M21.1141 27.2115C21.1599 27.6201 21.4295 27.6422 21.8846 27.7107C22.6428 27.8264 22.9927 28.0857 23.0745 28.8229C23.1748 29.7211 22.6945 30.1111 21.7858 30.2299C21.354 30.286 20.9838 30.2796 20.6629 30.2482L20.666 29.5864C20.9524 29.5935 21.3862 29.5852 21.6813 29.5468C22.0849 29.4947 22.3209 29.3662 22.2761 28.9576C22.2337 28.5789 21.9428 28.5294 21.5744 28.4606C20.8609 28.3268 20.4305 28.1542 20.3446 27.3851C20.246 26.5023 20.7059 26.1552 21.5892 26.0408C21.9957 25.9882 22.4216 25.9978 22.7026 26.0251L22.7028 26.6683C22.449 26.6587 22.1341 26.6518 21.8474 26.6894C21.5374 26.7296 21.0699 26.8049 21.115 27.2116L21.1141 27.2115Z" fill="#F4F9FF"/>
<path d="M23.3816 27.9139C23.2171 26.4393 23.4908 25.7921 24.6852 25.6366C25.8776 25.4818 26.2858 26.0403 26.4503 27.5148C26.6149 28.9893 26.3403 29.6364 25.1477 29.7922C23.9534 29.9477 23.5452 29.3892 23.3807 27.9138L23.3816 27.9139ZM25.6598 27.6173C25.5671 26.7875 25.4877 26.2216 24.7608 26.316C24.033 26.4104 24.0796 26.9807 24.1723 27.8105C24.265 28.6403 24.3447 29.2043 25.0725 29.1099C25.7994 29.0155 25.7525 28.4471 25.6598 27.6173Z" fill="#F4F9FF"/>
<path d="M26.8359 29.5301L27.5825 25.8357C27.6664 25.4207 27.8552 25.2244 28.1502 25.186C28.4369 25.1485 28.6728 25.3011 28.8394 25.6729L30.356 29.0727L29.5289 29.1801L29.1233 28.2096L27.8137 28.3799L27.6396 29.4255L26.8359 29.5301ZM28.87 27.5997L28.2089 26.0153L27.9231 27.7222L28.8702 27.5988L28.87 27.5997Z" fill="#F4F9FF"/>
<path d="M32.4066 25.3527L31.4624 25.4755L31.8413 28.8794L31.0592 28.9811L30.6802 25.5772L29.7416 25.6997L29.6672 25.0319L32.3323 24.6849L32.4066 25.3527Z" fill="#F4F9FF"/>
</svg>
