<svg width="60" height="60" viewBox="0 0 60 60" fill="none" xmlns="http://www.w3.org/2000/svg">
<path fill-rule="evenodd" clip-rule="evenodd" d="M52.9429 59.8364C38.2328 51.1424 35.3764 45.8829 35.0361 33.3752C34.9069 31.5241 34.4354 30.0277 32.9736 29.7075C31.4475 29.3728 30.31 29.9155 29.7631 31.2994C29.6427 31.6042 28.2671 34.7735 29.1252 40.2097C26.4087 38.5453 24.4441 36.2042 24.2272 32.0931C27.823 31.2357 29.329 30.154 29.7666 29.7731C29.7666 29.7731 32.0757 27.9389 30.3469 25.7067C30.1949 25.5365 30.0325 25.4065 29.866 25.2938C30.778 24.4998 31.2782 23.7073 31.4298 23.4968C32.3031 22.2875 31.924 20.5572 30.6391 19.6729C29.3526 18.7893 27.5378 19.0045 26.663 20.2126C25.1199 22.3455 21.9135 26.0727 19.882 26.9911C19.5338 27.1493 19.2307 27.3233 18.9478 27.5034C16.2606 28.028 14.342 29.821 13.869 32.3116C13.4029 32.5236 12.9579 32.7946 12.5455 33.1378C10.5659 34.7869 10.3623 36.9097 10.5849 38.5625C10.5925 38.6163 10.5996 38.6693 10.6082 38.7222C8.46879 42.2411 11.8055 49.2604 11.8055 49.2604C15.6059 57.2761 18.1051 61.1045 22.3186 67.3507C36.091 72.7927 46.822 67.6292 46.822 67.6292" fill="#FFC8E9"/>
<path fill-rule="evenodd" clip-rule="evenodd" d="M29.3126 40.0101C29.4237 40.0403 29.4899 40.1537 29.4604 40.2632L29.3547 40.6785L29.2288 41.2066L29.0987 41.788C28.8489 42.9418 28.643 44.1127 28.5124 45.2285C28.3651 46.4853 28.3238 47.5918 28.4097 48.4947C28.4203 48.6079 28.3364 48.7073 28.2218 48.7168C28.1074 48.7262 28.0059 48.6419 27.9952 48.5288C27.9063 47.593 27.9486 46.4597 28.0989 45.1768C28.2312 44.0466 28.4393 42.8635 28.6917 41.6978L28.823 41.1106L29.0038 40.3628L29.0581 40.1535C29.0875 40.044 29.2015 39.9798 29.3126 40.0101Z" fill="#003CE5"/>
<path fill-rule="evenodd" clip-rule="evenodd" d="M14.5211 32.7027C15.0053 29.9777 17.1461 28.0261 20.1083 27.6101C24.9485 26.9298 26.5684 25.7612 26.5838 25.7494C26.519 25.7975 26.4916 25.8261 26.4916 25.8261C26.4916 25.8261 29.2236 23.9307 30.8602 25.8041C32.5453 28.034 30.2508 29.9005 30.2508 29.9005C29.6837 30.4039 27.0191 32.1832 20.6593 33.0779" fill="#FFC8E9"/>
<path fill-rule="evenodd" clip-rule="evenodd" d="M24.4944 32.1366C24.602 32.1094 24.713 32.1736 24.7422 32.28C24.7713 32.3865 24.7077 32.4948 24.6 32.522C23.4165 32.8212 22.1151 33.0746 20.6904 33.2748C20.5803 33.2904 20.4769 33.2147 20.4596 33.106C20.4423 32.9972 20.5177 32.8965 20.6279 32.8811C22.0382 32.6828 23.3252 32.4322 24.4944 32.1366Z" fill="#003CE5"/>
<path fill-rule="evenodd" clip-rule="evenodd" d="M30.3526 25.0966C30.4475 25.1554 30.477 25.2784 30.4186 25.371C30.3601 25.4638 30.2358 25.4911 30.1408 25.4323C29.3098 24.9168 28.5391 24.9844 27.516 25.4936L27.2699 25.6219L26.4 26.1034L26.0726 26.2776L25.7522 26.4387C25.1152 26.749 24.491 26.9881 23.7168 27.1908L23.3164 27.2892C23.2473 27.3052 23.1771 27.321 23.1055 27.3365L22.659 27.4276C22.5045 27.4574 22.3437 27.4865 22.1763 27.5151L21.6526 27.6L21.0837 27.6831L20.4647 27.7654C20.3571 27.779 20.2472 27.7927 20.1351 27.8066C20.0246 27.82 19.9227 27.7426 19.9074 27.6336C19.8921 27.5246 19.9692 27.4252 20.0797 27.4117L20.7154 27.3308L21.2989 27.2498L21.8348 27.1679L22.3275 27.0838L22.7818 26.997C23.3638 26.8787 23.8548 26.7501 24.3036 26.6009L24.6331 26.4848C24.687 26.4649 24.7402 26.4444 24.7932 26.4237L25.1073 26.2942C25.1591 26.2718 25.2108 26.249 25.2623 26.2257L25.5713 26.0806L25.8826 25.924C25.9348 25.8968 25.9875 25.8692 26.0404 25.841L26.5009 25.5905L27.137 25.2373C28.3669 24.5831 29.3206 24.4565 30.3526 25.0966Z" fill="#003CE5"/>
<path fill-rule="evenodd" clip-rule="evenodd" d="M22.8304 42.4343C23.4348 42.4862 24.3099 42.7644 25.2056 42.1217C26.4336 41.2395 26.8712 39.6379 25.9261 38.3403C25.2547 37.4186 21.8419 32.6939 17.7452 32.1281C16.0754 31.8978 14.515 32.3533 13.2347 33.4445L15.8815 39.4793L22.8304 42.4343Z" fill="#FFC8E9"/>
<path fill-rule="evenodd" clip-rule="evenodd" d="M17.7704 31.9314C18.517 32.0345 19.2663 32.2743 20.0158 32.6374C21.4897 33.3516 22.9025 34.5042 24.2312 35.943C24.6547 36.4016 25.0486 36.867 25.4183 37.336L25.749 37.7645L25.9656 38.0565C26.0046 38.1095 26.0455 38.1656 26.0896 38.2261C27.0722 39.5751 26.725 41.2213 25.3302 42.2802C24.5234 42.8923 23.5757 42.9422 22.7575 42.6189C22.6535 42.5778 22.6019 42.462 22.6421 42.3602C22.6824 42.2582 22.7993 42.2089 22.9032 42.25C23.5981 42.5246 24.3972 42.4825 25.0808 41.9638C26.3134 41.0281 26.6106 39.6191 25.7626 38.4549L25.5298 38.1375L25.324 37.8642L25.1008 37.5771C24.7373 37.116 24.3502 36.6586 23.9342 36.2084C22.6374 34.8041 21.2622 33.6821 19.8417 32.9939C19.1295 32.6488 18.4212 32.4221 17.72 32.3253C16.7889 32.1974 15.8925 32.2891 15.0596 32.5955C14.9556 32.6338 14.8386 32.5813 14.7984 32.4783C14.758 32.3754 14.8096 32.261 14.9136 32.2227C15.8096 31.8931 16.7735 31.7943 17.7704 31.9314Z" fill="#003CE5"/>
<path fill-rule="evenodd" clip-rule="evenodd" d="M11.3675 38.9072C12.0654 37.843 13.1547 37.2145 14.4355 37.1378C17.5077 36.9528 21.0145 40.3762 22.8301 42.434C23.8431 43.5803 23.7309 45.3026 22.5805 46.2799C21.4303 47.2566 20.0101 47.2144 18.6646 45.9738C17.789 45.0424 16.7567 44.0051 16.2084 43.6134C15.66 43.2224 14.7708 43.8622 15.2901 44.6114" fill="#FFC8E9"/>
<path fill-rule="evenodd" clip-rule="evenodd" d="M14.4199 36.9395C17.0413 36.7818 20.0554 38.9903 22.9819 42.3051C24.0682 43.5348 23.948 45.3832 22.7132 46.4314C21.4987 47.4635 20.0226 47.4055 18.6763 46.2508L18.5326 46.1228C18.2418 45.8726 17.9462 45.5992 17.6286 45.2902L16.338 44.0021L16.1279 43.8005C15.6978 43.4148 15.0861 43.9677 15.456 44.501C15.5193 44.5923 15.4962 44.716 15.4044 44.7769C15.3124 44.838 15.1868 44.8136 15.1235 44.7222C14.4877 43.8051 15.6037 42.7963 16.3972 43.508L16.6138 43.7154L17.9104 45.0092C18.1443 45.2368 18.3656 45.4445 18.5839 45.6391L18.8012 45.8297C20.0437 46.976 21.3498 47.061 22.447 46.1287C23.5138 45.223 23.6175 43.6264 22.6787 42.5638C19.8354 39.3431 16.8962 37.1893 14.4501 37.3365C13.2667 37.4076 12.2573 37.9725 11.5926 38.9351C11.5303 39.0254 11.4048 39.0477 11.3123 38.9851C11.2198 38.9224 11.1954 38.7985 11.2576 38.7083C11.9914 37.6456 13.113 37.018 14.4199 36.9395Z" fill="#003CE5"/>
<path fill-rule="evenodd" clip-rule="evenodd" d="M44.554 44.1828C44.5633 44.0826 44.6216 43.1868 43.6672 43.0853C43.5066 43.0682 43.3904 42.924 43.4075 42.7634C43.4246 42.6028 43.5685 42.486 43.7292 42.5031C44.6825 42.6045 44.8148 41.7188 44.8272 41.6159C44.8447 41.4559 44.9884 41.3399 45.1487 41.3569C45.308 41.3739 45.4234 41.5152 45.4093 41.6736L45.409 41.6769C45.399 41.781 45.342 42.6747 46.295 42.7761C46.4556 42.7932 46.5724 42.9377 46.5553 43.0983C46.5382 43.2589 46.3937 43.3754 46.233 43.3583C45.2693 43.2558 45.1465 44.1433 45.1357 44.2447C45.1186 44.4054 44.9744 44.5218 44.8137 44.5047C44.6531 44.4877 44.5369 44.3435 44.554 44.1828Z" fill="#F4F9FF"/>
<path fill-rule="evenodd" clip-rule="evenodd" d="M6.33436 30.7849C6.3399 30.7251 6.37469 30.1908 5.8054 30.1302C5.70959 30.12 5.64026 30.034 5.65046 29.9382C5.66065 29.8424 5.74655 29.7728 5.84236 29.783C6.41099 29.8435 6.48994 29.3152 6.49731 29.2537C6.5078 29.1583 6.59347 29.0891 6.68912 29.0993C6.78411 29.1094 6.85295 29.1937 6.84456 29.2882L6.84435 29.2902C6.8384 29.3523 6.80441 29.8853 7.37287 29.9458C7.46869 29.956 7.53832 30.0422 7.52813 30.138C7.51793 30.2338 7.43173 30.3033 7.33592 30.2931C6.76105 30.2319 6.68779 30.7613 6.68135 30.8219C6.67115 30.9177 6.58512 30.9872 6.4893 30.977C6.39349 30.9668 6.32417 30.8807 6.33436 30.7849Z" fill="#F4F9FF"/>
<path fill-rule="evenodd" clip-rule="evenodd" d="M42.0056 11.3433C42.0112 11.2835 42.046 10.7492 41.4767 10.6886C41.3809 10.6784 41.3115 10.5924 41.3217 10.4966C41.3319 10.4008 41.4178 10.3311 41.5136 10.3413C42.0823 10.4018 42.1612 9.87352 42.1686 9.81209C42.1791 9.71665 42.2647 9.64746 42.3604 9.65764C42.4554 9.66775 42.5242 9.75205 42.5158 9.84655L42.5156 9.84852C42.5097 9.9106 42.4757 10.4437 43.0441 10.5042C43.14 10.5144 43.2096 10.6006 43.1994 10.6964C43.1892 10.7922 43.103 10.8617 43.0072 10.8515C42.4323 10.7903 42.3591 11.3197 42.3526 11.3802C42.3424 11.476 42.2564 11.5455 42.1606 11.5353C42.0648 11.5251 41.9954 11.4391 42.0056 11.3433Z" fill="#F4F9FF"/>
<path fill-rule="evenodd" clip-rule="evenodd" d="M26.3116 41.5979L10.4256 16.2057C9.88882 15.3475 10.1445 14.216 10.9972 13.6779L25.8577 4.30202C26.7101 3.76429 27.8363 4.02385 28.3734 4.88222L44.2593 30.2739C44.7961 31.1323 44.5405 32.2641 43.688 32.8019L28.8273 42.1778C27.9749 42.7158 26.8487 42.456 26.3116 41.5979Z" fill="#003CE5"/>
<mask id="mask0_309_9215" style="mask-type:luminance" maskUnits="userSpaceOnUse" x="10" y="3" width="35" height="40">
<path fill-rule="evenodd" clip-rule="evenodd" d="M44.7058 29.9941L28.795 4.59715C28.2656 3.752 27.1552 3.49664 26.3154 4.02712L11.3659 13.4725C10.5261 14.0033 10.2745 15.1187 10.8043 15.964L26.7153 41.3607C27.2449 42.2064 28.3549 42.4615 29.1947 41.9308L44.1442 32.4857C44.7937 32.0754 45.0911 31.3155 44.9478 30.601C44.9058 30.3916 44.8258 30.1858 44.7058 29.9941Z" fill="white"/>
</mask>
<g mask="url(#mask0_309_9215)">
<path fill-rule="evenodd" clip-rule="evenodd" d="M27.6076 46.988L7.00292 14.0993L28.2494 0.675498L48.8541 33.5642L27.6076 46.988Z" fill="#005CFF"/>
</g>
<mask id="mask1_309_9215" style="mask-type:luminance" maskUnits="userSpaceOnUse" x="10" y="3" width="35" height="40">
<path fill-rule="evenodd" clip-rule="evenodd" d="M28.795 4.59715C28.2656 3.752 27.1552 3.49664 26.3154 4.02712L11.3659 13.4725C10.5261 14.0033 10.2745 15.1187 10.8043 15.964L26.7153 41.3607C27.2449 42.2064 28.3549 42.4615 29.1947 41.9308L44.1442 32.4857C44.7937 32.0754 45.0911 31.3156 44.9478 30.601C44.9058 30.3916 44.8258 30.1858 44.7058 29.9941L28.795 4.59715Z" fill="white"/>
</mask>
<g mask="url(#mask1_309_9215)">
<path fill-rule="evenodd" clip-rule="evenodd" d="M44.2436 18.3152C44.0074 18.4644 42.2842 26.1288 42.2842 26.1288C42.2842 26.1288 42.2466 29.9396 38.8712 31.9606C35.4959 33.9815 26.3558 35.5223 14.4835 25.8637C2.61121 16.2057 25.7854 57.0532 25.7854 57.0532L53.412 41.7158L52.2697 26.3925L44.2436 18.3152Z" fill="#FF7800"/>
</g>
<path fill-rule="evenodd" clip-rule="evenodd" d="M25.8236 22.2193L23.5395 18.5731C23.357 18.2819 23.4434 17.8981 23.7325 17.7156L25.1647 16.8108C25.4538 16.6283 25.8358 16.716 26.0182 17.007L28.3024 20.6532C28.4845 20.9442 28.3981 21.328 28.109 21.5105L26.6768 22.4156C26.3881 22.598 26.0057 22.51 25.8236 22.2193Z" fill="#0B7EFF"/>
<path fill-rule="evenodd" clip-rule="evenodd" d="M21.9226 15.8198L19.6385 12.1736C19.456 11.8824 19.5424 11.4985 19.8315 11.3161L21.2637 10.4112C21.5528 10.2288 21.9348 10.3165 22.1172 10.6075L24.4014 14.2536C24.5835 14.5446 24.4971 14.9285 24.208 15.111L22.7758 16.016C22.4871 16.1985 22.1047 16.1105 21.9226 15.8198Z" fill="#0B7EFF"/>
<path fill-rule="evenodd" clip-rule="evenodd" d="M29.8856 28.7028L27.6012 25.0567C27.419 24.7654 27.5054 24.3816 27.7945 24.1991L29.2268 23.2946C29.5158 23.1118 29.8978 23.1996 30.0799 23.4906L32.3643 27.1367C32.5465 27.4277 32.4601 27.8115 32.171 27.994L30.7388 28.8991C30.45 29.0815 30.0678 28.9938 29.8856 28.7028Z" fill="#0B7EFF"/>
<path fill-rule="evenodd" clip-rule="evenodd" d="M33.9477 35.1859L31.6636 31.5397C31.4812 31.2488 31.5676 30.865 31.8566 30.6822L33.2889 29.7777C33.5779 29.5949 33.9599 29.6826 34.1423 29.9736L36.4265 33.6201C36.6086 33.9108 36.5222 34.2946 36.2332 34.4774L34.801 35.3822C34.5122 35.5646 34.1299 35.4769 33.9477 35.1859Z" fill="#0B7EFF"/>
<path fill-rule="evenodd" clip-rule="evenodd" d="M17.4989 22.754L14.3069 17.659C14.0666 17.2758 14.1808 16.7699 14.5617 16.5291L15.7135 15.8012C16.0944 15.5605 16.5979 15.6764 16.8382 16.0596L20.0302 21.1546C20.2702 21.5382 20.1563 22.0441 19.7756 22.2848L18.6234 23.0127C18.2426 23.2532 17.7392 23.1375 17.4989 22.754Z" fill="#0B7EFF"/>
<path fill-rule="evenodd" clip-rule="evenodd" d="M14.5209 32.7017C15.0051 29.9767 17.1458 28.0251 20.108 27.6092C24.9482 26.9288 26.5682 25.7602 26.5836 25.7484C26.5187 25.7965 26.4913 25.8251 26.4913 25.8251C26.4913 25.8251 29.2233 23.9297 30.86 25.8032C32.545 28.033 30.2506 29.8995 30.2506 29.8995C29.6835 30.4029 27.0189 32.1822 20.6591 33.0769" fill="#FFC8E9"/>
<path fill-rule="evenodd" clip-rule="evenodd" d="M24.4955 32.1354C24.6031 32.1082 24.7141 32.1723 24.7433 32.2788C24.7724 32.3853 24.7088 32.4935 24.6011 32.5207C23.4176 32.82 22.1162 33.0734 20.6915 33.2736C20.5814 33.2892 20.478 33.2135 20.4607 33.1048C20.4434 32.996 20.5188 32.8953 20.629 32.8799C22.0393 32.6815 23.3263 32.431 24.4955 32.1354Z" fill="#003CE5"/>
<path fill-rule="evenodd" clip-rule="evenodd" d="M30.3537 25.0966C30.4486 25.1554 30.4781 25.2784 30.4197 25.371C30.3612 25.4638 30.2369 25.4911 30.1419 25.4323C29.3109 24.9168 28.5402 24.9844 27.5171 25.4936L27.271 25.6219L26.4011 26.1034L26.0737 26.2776L25.7533 26.4387C25.1163 26.749 24.4921 26.9881 23.7179 27.1908L23.3175 27.2892C23.2484 27.3052 23.1782 27.321 23.1066 27.3365L22.6601 27.4276C22.5056 27.4574 22.3448 27.4865 22.1774 27.5151L21.6537 27.6L21.0848 27.6831L20.4658 27.7654C20.3582 27.779 20.2483 27.7927 20.1362 27.8066C20.0257 27.82 19.9238 27.7426 19.9085 27.6336C19.8932 27.5246 19.9703 27.4252 20.0808 27.4117L20.7165 27.3308L21.3 27.2498L21.8359 27.1679L22.3286 27.0838L22.7829 26.997C23.3649 26.8787 23.8559 26.7501 24.3047 26.6009L24.6342 26.4848C24.6881 26.4649 24.7413 26.4444 24.7943 26.4237L25.1084 26.2942C25.1602 26.2718 25.2119 26.249 25.2634 26.2257L25.5724 26.0806L25.8837 25.924C25.9359 25.8968 25.9886 25.8692 26.0415 25.841L26.502 25.5905L27.1381 25.2373C28.368 24.5831 29.3217 24.4565 30.3537 25.0966Z" fill="#003CE5"/>
<path fill-rule="evenodd" clip-rule="evenodd" d="M22.8304 42.4329C23.4348 42.4848 24.3099 42.763 25.2056 42.1203C26.4336 41.2381 26.8712 39.6365 25.9261 38.3389C25.2547 37.4172 21.8419 32.6925 17.7452 32.1267C16.0754 31.8964 14.515 32.3519 13.2347 33.4431L15.8815 39.4779L22.8304 42.4329Z" fill="#FFC8E9"/>
<path fill-rule="evenodd" clip-rule="evenodd" d="M17.7704 31.9302C18.517 32.0334 19.2663 32.2731 20.0158 32.6362C21.4897 33.3504 22.9025 34.503 24.2312 35.9418C24.6547 36.4004 25.0486 36.8658 25.4183 37.3349L25.749 37.7633L25.9656 38.0553C26.0046 38.1084 26.0455 38.1645 26.0896 38.225C27.0722 39.574 26.725 41.2201 25.3302 42.279C24.5234 42.8912 23.5757 42.941 22.7575 42.6177C22.6535 42.5766 22.6019 42.4608 22.6421 42.359C22.6824 42.2571 22.7993 42.2078 22.9032 42.2489C23.5981 42.5235 24.3972 42.4813 25.0808 41.9626C26.3134 41.0269 26.6106 39.618 25.7626 38.4538L25.5298 38.1363L25.324 37.863L25.1008 37.5759C24.7373 37.1149 24.3502 36.6574 23.9342 36.2072C22.6374 34.803 21.2622 33.6809 19.8417 32.9927C19.1295 32.6476 18.4212 32.421 17.72 32.3241C16.7889 32.1962 15.8925 32.2879 15.0596 32.5943C14.9556 32.6326 14.8386 32.5802 14.7984 32.4772C14.758 32.3743 14.8096 32.2598 14.9136 32.2215C15.8096 31.8919 16.7735 31.7931 17.7704 31.9302Z" fill="#003CE5"/>
<path fill-rule="evenodd" clip-rule="evenodd" d="M11.3671 38.9058C12.065 37.8417 13.1544 37.2132 14.4351 37.1365C17.5073 36.9514 21.0141 40.3748 22.8298 42.4327C23.8428 43.5789 23.7306 45.3012 22.5801 46.2786C21.4299 47.2553 20.0097 47.2131 18.6643 45.9724C17.7887 45.0411 16.7563 44.0037 16.2081 43.6121C15.6596 43.221 14.7704 43.8609 15.2897 44.6101" fill="#FFC8E9"/>
<path fill-rule="evenodd" clip-rule="evenodd" d="M14.4199 36.9381C17.0413 36.7804 20.0554 38.9889 22.9819 42.3037C24.0682 43.5334 23.948 45.3818 22.7132 46.43C21.4987 47.4621 20.0226 47.4041 18.6763 46.2494L18.5326 46.1214C18.2418 45.8712 17.9462 45.5978 17.6286 45.2888L16.338 44.0007L16.1279 43.7991C15.6978 43.4134 15.0861 43.9663 15.456 44.4996C15.5193 44.5909 15.4962 44.7145 15.4044 44.7755C15.3124 44.8366 15.1868 44.8121 15.1235 44.7208C14.4877 43.8037 15.6037 42.7949 16.3972 43.5066L16.6138 43.714L17.9104 45.0078C18.1443 45.2354 18.3656 45.4431 18.5839 45.6377L18.8012 45.8283C20.0437 46.9746 21.3498 47.0596 22.447 46.1273C23.5138 45.2216 23.6175 43.625 22.6787 42.5624C19.8354 39.3417 16.8962 37.1879 14.4501 37.3351C13.2667 37.4062 12.2573 37.9711 11.5926 38.9337C11.5303 39.024 11.4048 39.0463 11.3123 38.9837C11.2198 38.921 11.1954 38.7971 11.2576 38.7069C11.9914 37.6442 13.113 37.0166 14.4199 36.9381Z" fill="#003CE5"/>
<path fill-rule="evenodd" clip-rule="evenodd" d="M39.0174 4.88714L49.7852 6.87051L51.7314 7.87478L51.6962 8.36834L51.6792 9.05889L51.6606 9.64611L51.6265 10.5111C51.6265 10.5111 51.5175 13.2289 51.3242 15.6582C50.8304 21.8639 43.8842 26.2031 39.1574 27.0492C38.9319 26.9149 38.0248 26.4813 38.0248 26.4813L38.9617 25.9363C36.4954 24.049 35.432 20.9093 34.9852 18.7878C34.7909 17.8658 34.6974 16.4496 34.6625 14.9056L34.651 14.2372C34.6483 14.0124 34.6467 13.7862 34.646 13.5594L34.6466 12.8789L34.6522 12.2019L34.662 11.5349L34.6829 10.5672L34.7092 9.65791L34.7383 8.82879L34.7678 8.10142L33.6343 8.08448C33.6343 8.08448 36.1971 7.43091 37.3948 7.21478C38.0293 7.10028 38.6567 6.72567 39.1981 6.29558L39.0174 4.88714Z" fill="#003CE5"/>
<path fill-rule="evenodd" clip-rule="evenodd" d="M38.504 4.4334L49.2718 6.41678L51.218 7.42104L51.1828 7.9146L51.1658 8.60516L51.1472 9.19237L51.1131 10.0573C51.1131 10.0573 51.0041 12.7751 50.8108 15.2044C50.317 21.4102 43.3708 25.7494 38.644 26.5955C38.4185 26.4611 38.4789 25.9664 38.4789 25.9664L38.736 26.1929C36.2697 24.3056 34.9186 20.4555 34.4717 18.334C34.2775 17.4121 34.184 15.9959 34.1491 14.4519L34.1376 13.7834C34.1349 13.5587 34.1333 13.3324 34.1326 13.1057L34.1332 12.4252L34.1388 11.7482L34.1485 11.0812L34.1695 10.1134L34.1958 9.20417L34.2249 8.37505L34.2543 7.64769L33.1209 7.63074C33.1209 7.63074 35.6837 6.97717 36.8814 6.76104C37.5159 6.64655 38.1433 6.27193 38.6847 5.84185L38.504 4.4334Z" fill="#FFC74A"/>
<path fill-rule="evenodd" clip-rule="evenodd" d="M38.2244 26.5874C35.3911 25.0105 32.5561 20.7059 32.0479 18.3682C31.3632 15.2354 31.0839 7.93088 31.0839 7.93088C31.0839 7.93088 37.9592 4.39591 38.1374 4.42834C41.6065 5.0599 49.1647 6.60443 49.1647 6.60443C49.1647 6.60443 49.6966 9.53499 48.9591 15.4635C48.2216 21.3921 38.4358 26.7075 38.2244 26.5874Z" fill="#FFC74A"/>
<path fill-rule="evenodd" clip-rule="evenodd" d="M30.8518 17.6194C29.9158 13.6946 30.747 6.59294 30.747 6.59294L38.2433 4.42969C37.2126 12.2389 37.3615 21.3377 38.3206 26.5908C35.5521 25.0147 31.7505 21.3877 30.8518 17.6194Z" fill="#FFE39C"/>
<path fill-rule="evenodd" clip-rule="evenodd" d="M35.7499 18.2936L36.5605 13.4954C36.0459 13.3008 35.684 12.8072 35.6928 12.2307C35.704 11.4945 36.3201 10.9271 37.0696 10.9182C37.2034 10.9166 37.3427 10.9188 37.4425 10.9426C38.0414 11.0893 38.4153 11.6404 38.4057 12.2721C38.3974 12.8156 38.0606 13.2784 37.5836 13.478L38.6259 18.366L38.6472 18.4627L35.7499 18.2936Z" fill="#FFA900"/>
<path fill-rule="evenodd" clip-rule="evenodd" d="M36.6678 18.336L37.304 13.4824C36.8305 13.2875 36.498 12.792 36.5068 12.2126C36.5165 11.5778 36.8457 10.913 37.4891 10.9228C38.1677 10.9926 38.443 11.6072 38.4333 12.242C38.425 12.7882 38.1144 13.2538 37.6753 13.4549L38.6478 18.4627L36.6678 18.336Z" fill="#0A1B64"/>
</svg>
