<svg width="60" height="60" viewBox="0 0 60 60" fill="none" xmlns="http://www.w3.org/2000/svg">
<path fill-rule="evenodd" clip-rule="evenodd" d="M53.9429 59.8364C39.2328 51.1424 36.3764 45.883 36.0361 33.3753C35.9069 31.5242 35.4354 30.0278 33.9736 29.7075C32.4475 29.3728 31.31 29.9155 30.7631 31.2995C30.6427 31.6043 29.2671 34.7735 30.1252 40.2097C27.4087 38.5454 25.4441 36.2043 25.2272 32.0932C28.823 31.2358 30.329 30.1541 30.7666 29.7732C30.7666 29.7732 33.0757 27.939 31.3469 25.7068C31.1949 25.5366 31.0325 25.4066 30.866 25.2938C31.778 24.4999 32.2782 23.7073 32.4298 23.4968C33.3031 22.2875 32.924 20.5572 31.6391 19.673C30.3526 18.7894 28.5378 19.0045 27.663 20.2126C26.1199 22.3456 22.9135 26.0728 20.882 26.9912C20.5338 27.1494 20.2307 27.3233 19.9478 27.5034C17.2606 28.028 15.342 29.821 14.869 32.3117C14.4029 32.5236 13.9579 32.7947 13.5455 33.1379C11.5659 34.787 11.3623 36.9098 11.5849 38.5626C11.5925 38.6163 11.5996 38.6694 11.6082 38.7222C9.46879 42.2411 12.8055 49.2605 12.8055 49.2605C16.6059 57.2761 19.1051 61.1045 23.3186 67.3508C37.091 72.7928 47.822 67.6293 47.822 67.6293" fill="#FFC8E9"/>
<path fill-rule="evenodd" clip-rule="evenodd" d="M30.3126 40.0102C30.4237 40.0403 30.4899 40.1537 30.4604 40.2632L30.3547 40.6785L30.2288 41.2066L30.0987 41.7881C29.8489 42.9419 29.643 44.1128 29.5124 45.2286C29.3651 46.4854 29.3238 47.5919 29.4097 48.4947C29.4203 48.608 29.3364 48.7074 29.2218 48.7168C29.1074 48.7263 29.0059 48.642 28.9952 48.5289C28.9063 47.5931 28.9486 46.4598 29.0989 45.1768C29.2312 44.0467 29.4393 42.8635 29.6917 41.6978L29.823 41.1106L30.0038 40.3629L30.0581 40.1536C30.0875 40.044 30.2015 39.9799 30.3126 40.0102Z" fill="#003CE5"/>
<path fill-rule="evenodd" clip-rule="evenodd" d="M15.5211 32.7027C16.0053 29.9777 18.1461 28.0261 21.1083 27.6102C25.9485 26.9299 27.5684 25.7612 27.5838 25.7495C27.519 25.7975 27.4916 25.8261 27.4916 25.8261C27.4916 25.8261 30.2236 23.9307 31.8602 25.8042C33.5453 28.034 31.2508 29.9005 31.2508 29.9005C30.6837 30.4039 28.0191 32.1832 21.6593 33.078" fill="#FFC8E9"/>
<path fill-rule="evenodd" clip-rule="evenodd" d="M25.4944 32.1367C25.602 32.1095 25.713 32.1736 25.7422 32.2801C25.7713 32.3865 25.7077 32.4948 25.6 32.522C24.4165 32.8213 23.1151 33.0747 21.6904 33.2749C21.5803 33.2905 21.4769 33.2148 21.4596 33.1061C21.4423 32.9973 21.5177 32.8966 21.6279 32.8812C23.0382 32.6828 24.3252 32.4323 25.4944 32.1367Z" fill="#003CE5"/>
<path fill-rule="evenodd" clip-rule="evenodd" d="M31.3526 25.0967C31.4475 25.1555 31.477 25.2784 31.4186 25.3711C31.3601 25.4639 31.2358 25.4912 31.1408 25.4324C30.3098 24.9169 29.5391 24.9845 28.516 25.4937L28.2699 25.622L27.4 26.1035L27.0726 26.2776L26.7522 26.4388C26.1152 26.7491 25.491 26.9881 24.7168 27.1908L24.3164 27.2893C24.2473 27.3052 24.1771 27.321 24.1055 27.3366L23.659 27.4277C23.5045 27.4575 23.3437 27.4866 23.1763 27.5152L22.6526 27.6L22.0837 27.6831L21.4647 27.7655C21.3571 27.7791 21.2472 27.7928 21.1351 27.8066C21.0246 27.8201 20.9227 27.7427 20.9074 27.6336C20.8921 27.5246 20.9692 27.4253 21.0797 27.4118L21.7154 27.3308L22.2989 27.2499L22.8348 27.168L23.3275 27.0839L23.7818 26.997C24.3638 26.8788 24.8548 26.7502 25.3036 26.6009L25.6331 26.4849C25.687 26.4649 25.7402 26.4444 25.7932 26.4238L26.1073 26.2943C26.1591 26.2719 26.2108 26.2491 26.2623 26.2258L26.5713 26.0807L26.8826 25.9241C26.9348 25.8969 26.9875 25.8693 27.0404 25.8411L27.5009 25.5905L28.137 25.2373C29.3669 24.5831 30.3206 24.4566 31.3526 25.0967Z" fill="#003CE5"/>
<path fill-rule="evenodd" clip-rule="evenodd" d="M23.8304 42.4344C24.4348 42.4862 25.3099 42.7644 26.2056 42.1217C27.4336 41.2396 27.8712 39.638 26.9261 38.3404C26.2547 37.4187 22.8419 32.694 18.7452 32.1281C17.0754 31.8979 15.515 32.3534 14.2347 33.4446L16.8815 39.4794L23.8304 42.4344Z" fill="#FFC8E9"/>
<path fill-rule="evenodd" clip-rule="evenodd" d="M18.7704 31.9314C19.517 32.0346 20.2663 32.2743 21.0158 32.6375C22.4897 33.3516 23.9025 34.5043 25.2312 35.9431C25.6547 36.4017 26.0486 36.867 26.4183 37.3361L26.749 37.7645L26.9656 38.0565C27.0046 38.1096 27.0455 38.1657 27.0896 38.2262C28.0722 39.5752 27.725 41.2214 26.3302 42.2802C25.5234 42.8924 24.5757 42.9422 23.7575 42.6189C23.6535 42.5779 23.6019 42.462 23.6421 42.3602C23.6824 42.2583 23.7993 42.209 23.9032 42.2501C24.5981 42.5247 25.3972 42.4826 26.0808 41.9638C27.3134 41.0281 27.6106 39.6192 26.7626 38.455L26.5298 38.1376L26.324 37.8642L26.1008 37.5771C25.7373 37.1161 25.3502 36.6587 24.9342 36.2085C23.6374 34.8042 22.2622 33.6821 20.8417 32.994C20.1295 32.6489 19.4212 32.4222 18.72 32.3254C17.7889 32.1974 16.8925 32.2891 16.0596 32.5955C15.9556 32.6338 15.8386 32.5814 15.7984 32.4784C15.758 32.3755 15.8096 32.261 15.9136 32.2227C16.8096 31.8931 17.7735 31.7944 18.7704 31.9314Z" fill="#003CE5"/>
<path fill-rule="evenodd" clip-rule="evenodd" d="M12.3675 38.9072C13.0654 37.8431 14.1547 37.2146 15.4355 37.1379C18.5077 36.9528 22.0145 40.3762 23.8301 42.4341C24.8431 43.5803 24.7309 45.3026 23.5805 46.28C22.4303 47.2567 21.0101 47.2145 19.6646 45.9738C18.789 45.0425 17.7567 44.0051 17.2084 43.6135C16.66 43.2224 15.7708 43.8623 16.2901 44.6115" fill="#FFC8E9"/>
<path fill-rule="evenodd" clip-rule="evenodd" d="M15.4199 36.9396C18.0413 36.7818 21.0554 38.9904 23.9819 42.3052C25.0682 43.5349 24.948 45.3832 23.7132 46.4315C22.4987 47.4635 21.0226 47.4056 19.6763 46.2509L19.5326 46.1229C19.2418 45.8726 18.9462 45.5993 18.6286 45.2903L17.338 44.0021L17.1279 43.8006C16.6978 43.4149 16.0861 43.9678 16.456 44.5011C16.5193 44.5924 16.4962 44.716 16.4044 44.777C16.3124 44.8381 16.1868 44.8136 16.1235 44.7223C15.4877 43.8052 16.6037 42.7964 17.3972 43.5081L17.6138 43.7154L18.9104 45.0093C19.1443 45.2369 19.3656 45.4445 19.5839 45.6391L19.8012 45.8298C21.0437 46.976 22.3498 47.0611 23.447 46.1287C24.5138 45.2231 24.6175 43.6264 23.6787 42.5638C20.8354 39.3432 17.8962 37.1894 15.4501 37.3366C14.2667 37.4077 13.2573 37.9725 12.5926 38.9352C12.5303 39.0255 12.4048 39.0478 12.3123 38.9852C12.2198 38.9224 12.1954 38.7985 12.2576 38.7084C12.9914 37.6456 14.113 37.0181 15.4199 36.9396Z" fill="#003CE5"/>
<path fill-rule="evenodd" clip-rule="evenodd" d="M45.554 44.1829C45.5633 44.0827 45.6216 43.1869 44.6672 43.0853C44.5066 43.0682 44.3904 42.924 44.4075 42.7634C44.4246 42.6028 44.5685 42.486 44.7292 42.5031C45.6825 42.6046 45.8148 41.7189 45.8272 41.6159C45.8447 41.4559 45.9884 41.3399 46.1487 41.357C46.308 41.3739 46.4234 41.5153 46.4093 41.6737L46.409 41.677C46.399 41.7811 46.342 42.6747 47.295 42.7762C47.4556 42.7933 47.5724 42.9378 47.5553 43.0984C47.5382 43.259 47.3937 43.3755 47.233 43.3584C46.2693 43.2558 46.1465 44.1433 46.1357 44.2448C46.1186 44.4054 45.9744 44.5219 45.8137 44.5048C45.6531 44.4877 45.5369 44.3435 45.554 44.1829Z" fill="#F4F9FF"/>
<path fill-rule="evenodd" clip-rule="evenodd" d="M7.33436 30.785C7.3399 30.7252 7.37469 30.1909 6.8054 30.1303C6.70959 30.1201 6.64026 30.0341 6.65046 29.9383C6.66065 29.8425 6.74655 29.7728 6.84236 29.783C7.41099 29.8435 7.48994 29.3152 7.49731 29.2538C7.5078 29.1584 7.59347 29.0892 7.68912 29.0993C7.78411 29.1095 7.85295 29.1938 7.84456 29.2883L7.84435 29.2902C7.8384 29.3523 7.80441 29.8854 8.37287 29.9459C8.46869 29.9561 8.53832 30.0423 8.52813 30.1381C8.51793 30.2339 8.43173 30.3034 8.33592 30.2932C7.76105 30.232 7.68779 30.7614 7.68135 30.8219C7.67115 30.9177 7.58512 30.9872 7.4893 30.977C7.39349 30.9668 7.32417 30.8808 7.33436 30.785Z" fill="#F4F9FF"/>
<path fill-rule="evenodd" clip-rule="evenodd" d="M43.0056 11.3433C43.0112 11.2835 43.046 10.7492 42.4767 10.6886C42.3809 10.6784 42.3115 10.5924 42.3217 10.4966C42.3319 10.4008 42.4178 10.3311 42.5136 10.3413C43.0823 10.4018 43.1612 9.87352 43.1686 9.81209C43.1791 9.71665 43.2647 9.64746 43.3604 9.65764C43.4554 9.66775 43.5242 9.75205 43.5158 9.84655L43.5156 9.84852C43.5097 9.9106 43.4757 10.4437 44.0441 10.5042C44.14 10.5144 44.2096 10.6006 44.1994 10.6964C44.1892 10.7922 44.103 10.8617 44.0072 10.8515C43.4323 10.7903 43.3591 11.3197 43.3526 11.3802C43.3424 11.476 43.2564 11.5455 43.1606 11.5353C43.0648 11.5251 42.9954 11.4391 43.0056 11.3433Z" fill="#F4F9FF"/>
<path fill-rule="evenodd" clip-rule="evenodd" d="M26.9101 23.0228L24.3943 19.5324C24.1933 19.2536 24.2547 18.865 24.5313 18.6641L25.9019 17.6683C26.1785 17.4675 26.5654 17.5303 26.7663 17.8088L29.2821 21.2992C29.4827 21.5777 29.4213 21.9664 29.1447 22.1672L27.7743 23.1633C27.4979 23.3641 27.1107 23.301 26.9101 23.0228Z" fill="#0B7EFF"/>
<path fill-rule="evenodd" clip-rule="evenodd" d="M22.6027 16.8905L20.087 13.4001C19.886 13.1213 19.9473 12.7327 20.224 12.5318L21.5945 11.5361C21.8711 11.3352 22.258 11.398 22.4589 11.6765L24.9747 15.1669C25.1753 15.4455 25.114 15.8341 24.8373 16.0349L23.4669 17.031C23.1905 17.2318 22.8033 17.1688 22.6027 16.8905Z" fill="#0B7EFF"/>
<path fill-rule="evenodd" clip-rule="evenodd" d="M31.3848 29.2294L28.8688 25.7391C28.668 25.4602 28.7294 25.0716 29.006 24.8708L30.3766 23.8753C30.6532 23.6741 31.0401 23.7369 31.2407 24.0155L33.7568 27.5058C33.9574 27.7844 33.896 28.173 33.6194 28.3739L32.249 29.3699C31.9726 29.5707 31.5855 29.508 31.3848 29.2294Z" fill="#0B7EFF"/>
<path fill-rule="evenodd" clip-rule="evenodd" d="M35.8583 35.4361L33.3426 31.9457C33.1416 31.6672 33.203 31.2786 33.4795 31.0775L34.8501 30.082C35.1267 29.8809 35.5136 29.9437 35.7145 30.2222L38.2303 33.7128C38.4309 33.9911 38.3696 34.3797 38.093 34.5809L36.7225 35.5767C36.4461 35.7774 36.059 35.7147 35.8583 35.4361Z" fill="#0B7EFF"/>
<path fill-rule="evenodd" clip-rule="evenodd" d="M18.6386 24.0964L15.123 19.2191C14.8584 18.8522 14.9395 18.3399 15.304 18.075L16.4061 17.274C16.7707 17.009 17.2806 17.092 17.5453 17.4589L21.0609 22.3362C21.3253 22.7033 21.2445 23.2155 20.8802 23.4804L19.7776 24.2816C19.4132 24.5462 18.9033 24.4635 18.6386 24.0964Z" fill="#0B7EFF"/>
<path fill-rule="evenodd" clip-rule="evenodd" d="M30.4611 5.98318L47.1007 29.4907C47.7571 30.418 47.5375 31.7019 46.6101 32.3583L31.4982 43.0552C30.5708 43.7116 29.2869 43.4919 28.6305 42.5646L11.991 19.0571C11.3346 18.1298 11.5542 16.8459 12.4815 16.1895L27.5935 5.49262C28.5208 4.8362 29.8047 5.05584 30.4611 5.98318Z" fill="#202E44"/>
<path fill-rule="evenodd" clip-rule="evenodd" d="M47.1007 29.4901C47.7571 30.4174 47.5375 31.7013 46.6101 32.3577L31.4982 43.0546C30.5709 43.711 29.287 43.4914 28.6306 42.564L18.4636 28.2019C21.4214 29.8614 30.0934 33.0042 35.5831 32.6932C40.4101 32.4186 42.0311 28.5876 42.4299 27.4431L42.5773 26.9949C42.6961 26.5999 43.0024 25.4998 43.2907 24.1077L47.1007 29.4901Z" fill="white" fill-opacity="0.1"/>
<path fill-rule="evenodd" clip-rule="evenodd" d="M29.1909 9.08552L32.7566 14.1228C33.0848 14.5865 32.975 15.2285 32.5113 15.5567L30.8322 16.7452C30.3685 17.0734 29.7266 16.9636 29.3984 16.4999L25.8327 11.4626C25.5045 10.9989 25.6144 10.357 26.078 10.0288L27.7571 8.84024C28.2208 8.51204 28.8627 8.62185 29.1909 9.08552Z" fill="#E8F6FC"/>
<path fill-rule="evenodd" clip-rule="evenodd" d="M29.0042 33.3008L32.0684 37.6298C32.3505 38.0282 32.3207 38.5342 32.0019 38.7598L30.8476 39.577C30.5288 39.8026 30.0417 39.6625 29.7597 39.264L26.6955 34.9351C26.4134 34.5366 26.4432 34.0307 26.762 33.805L27.9163 32.9879C28.2351 32.7623 28.7222 32.9024 29.0042 33.3008Z" fill="#E8F6FC"/>
<rect x="18.6531" y="15.1676" width="17.0535" height="1.78957" rx="0.894784" transform="rotate(54.7076 18.6531 15.1676)" fill="#ACB2BD"/>
<rect x="16.0403" y="17.0186" width="8.4859" height="1.74395" rx="0.871973" transform="rotate(54.7076 16.0403 17.0186)" fill="#ACB2BD"/>
<path fill-rule="evenodd" clip-rule="evenodd" d="M15.5209 32.7017C16.0051 29.9767 18.1458 28.0251 21.108 27.6092C25.9482 26.9288 27.5682 25.7602 27.5836 25.7484C27.5187 25.7965 27.4913 25.8251 27.4913 25.8251C27.4913 25.8251 30.2233 23.9297 31.86 25.8032C33.545 28.033 31.2506 29.8995 31.2506 29.8995C30.6835 30.4029 28.0189 32.1822 21.6591 33.0769" fill="#FFC8E9"/>
<path fill-rule="evenodd" clip-rule="evenodd" d="M25.4955 32.1354C25.6031 32.1082 25.7141 32.1723 25.7433 32.2788C25.7724 32.3853 25.7088 32.4935 25.6011 32.5207C24.4176 32.82 23.1162 33.0734 21.6915 33.2736C21.5814 33.2892 21.478 33.2135 21.4607 33.1048C21.4434 32.996 21.5188 32.8953 21.629 32.8799C23.0393 32.6815 24.3263 32.431 25.4955 32.1354Z" fill="#003CE5"/>
<path fill-rule="evenodd" clip-rule="evenodd" d="M31.3537 25.0966C31.4486 25.1554 31.4781 25.2784 31.4197 25.371C31.3612 25.4638 31.2369 25.4911 31.1419 25.4323C30.3109 24.9168 29.5402 24.9844 28.5171 25.4936L28.271 25.6219L27.4011 26.1034L27.0737 26.2776L26.7533 26.4387C26.1163 26.749 25.4921 26.9881 24.7179 27.1908L24.3175 27.2892C24.2484 27.3052 24.1782 27.321 24.1066 27.3365L23.6601 27.4276C23.5056 27.4574 23.3448 27.4865 23.1774 27.5151L22.6537 27.6L22.0848 27.6831L21.4658 27.7654C21.3582 27.779 21.2483 27.7927 21.1362 27.8066C21.0257 27.82 20.9238 27.7426 20.9085 27.6336C20.8932 27.5246 20.9703 27.4252 21.0808 27.4117L21.7165 27.3308L22.3 27.2498L22.8359 27.1679L23.3286 27.0838L23.7829 26.997C24.3649 26.8787 24.8559 26.7501 25.3047 26.6009L25.6342 26.4848C25.6881 26.4649 25.7413 26.4444 25.7943 26.4237L26.1084 26.2942C26.1602 26.2718 26.2119 26.249 26.2634 26.2257L26.5724 26.0806L26.8837 25.924C26.9359 25.8968 26.9886 25.8692 27.0415 25.841L27.502 25.5905L28.1381 25.2373C29.368 24.5831 30.3217 24.4565 31.3537 25.0966Z" fill="#003CE5"/>
<path fill-rule="evenodd" clip-rule="evenodd" d="M23.8304 42.4329C24.4348 42.4848 25.3099 42.763 26.2056 42.1203C27.4336 41.2381 27.8712 39.6365 26.9261 38.3389C26.2547 37.4172 22.8419 32.6925 18.7452 32.1267C17.0754 31.8964 15.515 32.3519 14.2347 33.4431L16.8815 39.4779L23.8304 42.4329Z" fill="#FFC8E9"/>
<path fill-rule="evenodd" clip-rule="evenodd" d="M18.7704 31.9302C19.517 32.0334 20.2663 32.2731 21.0158 32.6362C22.4897 33.3504 23.9025 34.503 25.2312 35.9418C25.6547 36.4004 26.0486 36.8658 26.4183 37.3349L26.749 37.7633L26.9656 38.0553C27.0046 38.1084 27.0455 38.1645 27.0896 38.225C28.0722 39.574 27.725 41.2201 26.3302 42.279C25.5234 42.8912 24.5757 42.941 23.7575 42.6177C23.6535 42.5766 23.6019 42.4608 23.6421 42.359C23.6824 42.2571 23.7993 42.2078 23.9032 42.2489C24.5981 42.5235 25.3972 42.4813 26.0808 41.9626C27.3134 41.0269 27.6106 39.618 26.7626 38.4538L26.5298 38.1363L26.324 37.863L26.1008 37.5759C25.7373 37.1149 25.3502 36.6574 24.9342 36.2072C23.6374 34.803 22.2622 33.6809 20.8417 32.9927C20.1295 32.6476 19.4212 32.421 18.72 32.3241C17.7889 32.1962 16.8925 32.2879 16.0596 32.5943C15.9556 32.6326 15.8386 32.5802 15.7984 32.4772C15.758 32.3743 15.8096 32.2598 15.9136 32.2215C16.8096 31.8919 17.7735 31.7931 18.7704 31.9302Z" fill="#003CE5"/>
<path fill-rule="evenodd" clip-rule="evenodd" d="M12.3671 38.9058C13.065 37.8417 14.1544 37.2132 15.4351 37.1365C18.5073 36.9514 22.0141 40.3748 23.8298 42.4327C24.8428 43.5789 24.7306 45.3012 23.5801 46.2786C22.4299 47.2553 21.0097 47.2131 19.6643 45.9724C18.7887 45.0411 17.7563 44.0037 17.2081 43.6121C16.6596 43.221 15.7704 43.8609 16.2897 44.6101" fill="#FFC8E9"/>
<path fill-rule="evenodd" clip-rule="evenodd" d="M15.4199 36.9381C18.0413 36.7804 21.0554 38.9889 23.9819 42.3037C25.0682 43.5334 24.948 45.3818 23.7132 46.43C22.4987 47.4621 21.0226 47.4041 19.6763 46.2494L19.5326 46.1214C19.2418 45.8712 18.9462 45.5978 18.6286 45.2888L17.338 44.0007L17.1279 43.7991C16.6978 43.4134 16.0861 43.9663 16.456 44.4996C16.5193 44.5909 16.4962 44.7145 16.4044 44.7755C16.3124 44.8366 16.1868 44.8121 16.1235 44.7208C15.4877 43.8037 16.6037 42.7949 17.3972 43.5066L17.6138 43.714L18.9104 45.0078C19.1443 45.2354 19.3656 45.4431 19.5839 45.6377L19.8012 45.8283C21.0437 46.9746 22.3498 47.0596 23.447 46.1273C24.5138 45.2216 24.6175 43.625 23.6787 42.5624C20.8354 39.3417 17.8962 37.1879 15.4501 37.3351C14.2667 37.4062 13.2573 37.9711 12.5926 38.9337C12.5303 39.024 12.4048 39.0463 12.3123 38.9837C12.2198 38.921 12.1954 38.7971 12.2576 38.7069C12.9914 37.6442 14.113 37.0166 15.4199 36.9381Z" fill="#003CE5"/>
</svg>
